<svg width="19" height="19" viewBox="0 0 19 19" fill="none" xmlns="http://www.w3.org/2000/svg">
<path d="M1 7.93237C1 9.52367 1.63214 11.0498 2.75736 12.175C3.88258 13.3002 5.4087 13.9324 7 13.9324C8.5913 13.9324 10.1174 13.3002 11.2426 12.175C12.3679 11.0498 13 9.52367 13 7.93237C13 6.34107 12.3679 4.81495 11.2426 3.68973C10.1174 2.56451 8.5913 1.93237 7 1.93237C5.4087 1.93237 3.88258 2.56451 2.75736 3.68973C1.63214 4.81495 1 6.34107 1 7.93237Z" stroke="#43495D" stroke-width="2" stroke-linecap="round" stroke-linejoin="round"/>
<path d="M10.5 12.9324H11C11.5304 12.9324 12.0391 13.1431 12.4142 13.5182C12.7893 13.8932 13 14.4019 13 14.9324V15.9324C13 16.4628 12.7893 16.9715 12.4142 17.3466C12.0391 17.7217 11.5304 17.9324 11 17.9324H3C2.46957 17.9324 1.96086 17.7217 1.58579 17.3466C1.21071 16.9715 1 16.4628 1 15.9324V14.9324C1 14.4019 1.21071 13.8932 1.58579 13.5182C1.96086 13.1431 2.46957 12.9324 3 12.9324H3.5" stroke="#43495D" stroke-width="2" stroke-linecap="round" stroke-linejoin="round"/>
<path d="M13 14.9324C13.8749 14.8157 14.7108 14.4973 15.4417 14.0024C16.1726 13.5075 16.7785 12.8495 17.2116 12.0804C17.6448 11.3113 17.8933 10.452 17.9376 9.57045C17.9819 8.68887 17.8208 7.80905 17.467 7.00037L17 5.93237" stroke="#43495D" stroke-width="2" stroke-linecap="round" stroke-linejoin="round"/>
<path d="M7 7.93237V7.94237" stroke="#43495D" stroke-width="2" stroke-linecap="round" stroke-linejoin="round"/>
<path d="M16 5.93237C16 6.19759 16.1054 6.45194 16.2929 6.63948C16.4804 6.82702 16.7348 6.93237 17 6.93237C17.2652 6.93237 17.5196 6.82702 17.7071 6.63948C17.8946 6.45194 18 6.19759 18 5.93237C18 5.66716 17.8946 5.4128 17.7071 5.22527C17.5196 5.03773 17.2652 4.93237 17 4.93237C16.7348 4.93237 16.4804 5.03773 16.2929 5.22527C16.1054 5.4128 16 5.66716 16 5.93237Z" stroke="#43495D" stroke-width="2" stroke-linecap="round" stroke-linejoin="round"/>
</svg>
