<svg width="14" height="14" viewBox="0 0 14 14" fill="none" xmlns="http://www.w3.org/2000/svg">
<path d="M5.66667 11.6667H1.66667C1.48986 11.6667 1.32029 11.5964 1.19526 11.4714C1.07024 11.3464 1 11.1768 1 11V1.66667C1 1.48986 1.07024 1.32029 1.19526 1.19526C1.32029 1.07024 1.48986 1 1.66667 1H5.66667C6.02029 1 6.35943 1.14048 6.60948 1.39052C6.85952 1.64057 7 1.97971 7 2.33333C7 1.97971 7.14048 1.64057 7.39052 1.39052C7.64057 1.14048 7.97971 1 8.33333 1H12.3333C12.5101 1 12.6797 1.07024 12.8047 1.19526C12.9298 1.32029 13 1.48986 13 1.66667V11C13 11.1768 12.9298 11.3464 12.8047 11.4714C12.6797 11.5964 12.5101 11.6667 12.3333 11.6667H8.33333C7.97971 11.6667 7.64057 11.8071 7.39052 12.0572C7.14048 12.3072 7 12.6464 7 13C7 12.6464 6.85952 12.3072 6.60948 12.0572C6.35943 11.8071 6.02029 11.6667 5.66667 11.6667Z" stroke="#2F82FF" stroke-linecap="round" stroke-linejoin="round"/>
<path d="M7 2.33331V13" stroke="#2F82FF" stroke-linecap="round" stroke-linejoin="round"/>
<path d="M3.6665 3.66669H4.33317" stroke="#2F82FF" stroke-linecap="round" stroke-linejoin="round"/>
<path d="M3.6665 6.33331H4.33317" stroke="#2F82FF" stroke-linecap="round" stroke-linejoin="round"/>
<path d="M9.6665 3.66669H10.3332" stroke="#2F82FF" stroke-linecap="round" stroke-linejoin="round"/>
<path d="M9.6665 6.33331H10.3332" stroke="#2F82FF" stroke-linecap="round" stroke-linejoin="round"/>
<path d="M9.6665 9H10.3332" stroke="#2F82FF" stroke-linecap="round" stroke-linejoin="round"/>
</svg>
