<svg width="15" height="18" viewBox="0 0 15 18" fill="none" xmlns="http://www.w3.org/2000/svg">
<path d="M1.16663 5.04165C1.16663 4.62172 1.33344 4.21899 1.63037 3.92206C1.92731 3.62513 2.33003 3.45831 2.74996 3.45831H12.25C12.6699 3.45831 13.0726 3.62513 13.3695 3.92206C13.6665 4.21899 13.8333 4.62172 13.8333 5.04165V14.5416C13.8333 14.9616 13.6665 15.3643 13.3695 15.6612C13.0726 15.9582 12.6699 16.125 12.25 16.125H2.74996C2.33003 16.125 1.92731 15.9582 1.63037 15.6612C1.33344 15.3643 1.16663 14.9616 1.16663 14.5416V5.04165Z" stroke="black" stroke-width="2" stroke-linecap="round" stroke-linejoin="round"/>
<path d="M10.6666 1.875V5.04167" stroke="black" stroke-width="2" stroke-linecap="round" stroke-linejoin="round"/>
<path d="M4.33337 1.875V5.04167" stroke="black" stroke-width="2" stroke-linecap="round" stroke-linejoin="round"/>
<path d="M1.16663 8.20831H13.8333" stroke="black" stroke-width="2" stroke-linecap="round" stroke-linejoin="round"/>
<path d="M6.70837 11.375H7.50004" stroke="black" stroke-width="2" stroke-linecap="round" stroke-linejoin="round"/>
<path d="M7.5 11.375V13.75" stroke="black" stroke-width="2" stroke-linecap="round" stroke-linejoin="round"/>
</svg>
