<svg width="16" height="21" viewBox="0 0 16 21" fill="none" xmlns="http://www.w3.org/2000/svg">
<path d="M9 2.5C9 2.76522 9.10536 3.01957 9.29289 3.20711C9.48043 3.39464 9.73478 3.5 10 3.5C10.2652 3.5 10.5196 3.39464 10.7071 3.20711C10.8946 3.01957 11 2.76522 11 2.5C11 2.23478 10.8946 1.98043 10.7071 1.79289C10.5196 1.60536 10.2652 1.5 10 1.5C9.73478 1.5 9.48043 1.60536 9.29289 1.79289C9.10536 1.98043 9 2.23478 9 2.5Z" stroke="#B3B3B3" stroke-width="2" stroke-linecap="round" stroke-linejoin="round"/>
<path d="M1 15.5L6 16.5L6.75 15" stroke="#B3B3B3" stroke-width="2" stroke-linecap="round" stroke-linejoin="round"/>
<path d="M12 19.5V15.5L8 12.5L9 6.5" stroke="#B3B3B3" stroke-width="2" stroke-linecap="round" stroke-linejoin="round"/>
<path d="M4 10.5V7.5L9 6.5L12 9.5L15 10.5" stroke="#B3B3B3" stroke-width="2" stroke-linecap="round" stroke-linejoin="round"/>
</svg>
