<svg width="21" height="20" viewBox="0 0 21 20" fill="none" xmlns="http://www.w3.org/2000/svg">
<path d="M3.5 5C3.5 6.06087 3.92143 7.07828 4.67157 7.82843C5.42172 8.57857 6.43913 9 7.5 9C8.56087 9 9.57828 8.57857 10.3284 7.82843C11.0786 7.07828 11.5 6.06087 11.5 5C11.5 3.93913 11.0786 2.92172 10.3284 2.17157C9.57828 1.42143 8.56087 1 7.5 1C6.43913 1 5.42172 1.42143 4.67157 2.17157C3.92143 2.92172 3.5 3.93913 3.5 5Z" stroke="#BCDDB6" stroke-width="2" stroke-linecap="round" stroke-linejoin="round"/>
<path d="M1.5 19V17C1.5 15.9391 1.92143 14.9217 2.67157 14.1716C3.42172 13.4214 4.43913 13 5.5 13H9.5C10.5609 13 11.5783 13.4214 12.3284 14.1716C13.0786 14.9217 13.5 15.9391 13.5 17V19" stroke="#BCDDB6" stroke-width="2" stroke-linecap="round" stroke-linejoin="round"/>
<path d="M14.5 1.13C15.3604 1.35031 16.123 1.85071 16.6676 2.55232C17.2122 3.25392 17.5078 4.11683 17.5078 5.005C17.5078 5.89318 17.2122 6.75608 16.6676 7.45769C16.123 8.1593 15.3604 8.6597 14.5 8.88" stroke="#BCDDB6" stroke-width="2" stroke-linecap="round" stroke-linejoin="round"/>
<path d="M19.5 19V17C19.4949 16.1172 19.1979 15.2608 18.6553 14.5644C18.1126 13.868 17.3548 13.3707 16.5 13.15" stroke="#BCDDB6" stroke-width="2" stroke-linecap="round" stroke-linejoin="round"/>
</svg>
