<svg width="19" height="23" viewBox="0 0 19 23" fill="none" xmlns="http://www.w3.org/2000/svg">
<path d="M6 12.9324V4.43237C6 4.03455 6.15804 3.65302 6.43934 3.37171C6.72064 3.09041 7.10218 2.93237 7.5 2.93237C7.89782 2.93237 8.27936 3.09041 8.56066 3.37171C8.84196 3.65302 9 4.03455 9 4.43237V11.9324" stroke="white" stroke-width="2" stroke-linecap="round" stroke-linejoin="round"/>
<path d="M9 11.4324V9.43237C9 9.03455 9.15804 8.65302 9.43934 8.37171C9.72064 8.09041 10.1022 7.93237 10.5 7.93237C10.8978 7.93237 11.2794 8.09041 11.5607 8.37171C11.842 8.65302 12 9.03455 12 9.43237V11.9324" stroke="white" stroke-width="2" stroke-linecap="round" stroke-linejoin="round"/>
<path d="M12 10.4324C12 10.0345 12.158 9.65302 12.4393 9.37171C12.7206 9.09041 13.1022 8.93237 13.5 8.93237C13.8978 8.93237 14.2794 9.09041 14.5607 9.37171C14.842 9.65302 15 10.0345 15 10.4324V11.9324" stroke="white" stroke-width="2" stroke-linecap="round" stroke-linejoin="round"/>
<path d="M15.0002 11.4324C15.0002 11.0345 15.1582 10.653 15.4395 10.3717C15.7208 10.0904 16.1024 9.93237 16.5002 9.93237C16.898 9.93237 17.2795 10.0904 17.5608 10.3717C17.8421 10.653 18.0002 11.0345 18.0002 11.4324V15.9324C18.0002 17.5237 17.368 19.0498 16.2428 20.175C15.1176 21.3002 13.5915 21.9324 12.0002 21.9324H10.0002H10.2082C9.21452 21.9325 8.23637 21.6859 7.36157 21.2147C6.48676 20.7434 5.7427 20.0622 5.19618 19.2324L5.00018 18.9324C4.68818 18.4534 3.59318 16.5444 1.71418 13.2044C1.52263 12.8639 1.47147 12.4621 1.57157 12.0845C1.67166 11.7069 1.91513 11.3832 2.25018 11.1824C2.60706 10.9682 3.02526 10.8795 3.43834 10.9302C3.85143 10.9809 4.23572 11.1683 4.53018 11.4624L6.00018 12.9324" stroke="white" stroke-width="2" stroke-linecap="round" stroke-linejoin="round"/>
<path d="M3 2.93237L2 1.93237" stroke="white" stroke-width="2" stroke-linecap="round" stroke-linejoin="round"/>
<path d="M2 6.93237H1" stroke="white" stroke-width="2" stroke-linecap="round" stroke-linejoin="round"/>
<path d="M12 2.93237L13 1.93237" stroke="white" stroke-width="2" stroke-linecap="round" stroke-linejoin="round"/>
<path d="M13 5.93237H14" stroke="white" stroke-width="2" stroke-linecap="round" stroke-linejoin="round"/>
</svg>
