<svg width="21" height="20" viewBox="0 0 21 20" fill="none" xmlns="http://www.w3.org/2000/svg">
<path d="M3.5 10H1.5L10.5 1L19.5 10H17.5" stroke="#228BE6" stroke-width="2" stroke-linecap="round" stroke-linejoin="round"/>
<path d="M3.5 10V17C3.5 17.5304 3.71071 18.0391 4.08579 18.4142C4.46086 18.7893 4.96957 19 5.5 19H15.5C16.0304 19 16.5391 18.7893 16.9142 18.4142C17.2893 18.0391 17.5 17.5304 17.5 17V10" stroke="#228BE6" stroke-width="2" stroke-linecap="round" stroke-linejoin="round"/>
<path d="M7.5 19V13C7.5 12.4696 7.71071 11.9609 8.08579 11.5858C8.46086 11.2107 8.96957 11 9.5 11H11.5C12.0304 11 12.5391 11.2107 12.9142 11.5858C13.2893 11.9609 13.5 12.4696 13.5 13V19" stroke="#228BE6" stroke-width="2" stroke-linecap="round" stroke-linejoin="round"/>
</svg>
