<svg width="131" height="141" viewBox="0 0 131 141" fill="none" xmlns="http://www.w3.org/2000/svg">
<path d="M97.7174 124.574C94.3378 124.574 33.2713 124.925 26.6088 125.075C26.1297 125.085 26.0456 125.965 26.5582 125.965C32.8331 125.895 41.2706 126.058 47.8342 126.061C52.1035 126.061 54.7637 126.123 55.0777 131.237C55.3447 135.591 53.5452 137.33 49.2082 137.333C41.8434 137.338 33.5264 137.451 26.4741 137.451C25.911 137.451 25.911 138.383 26.4741 138.401C44.9924 138.987 88.1447 137.775 97.4585 137.882C101.401 137.928 103.617 135.965 103.599 131.762C103.577 126.969 101.238 124.574 97.7174 124.574ZM67.2213 134.206C67.1165 134.899 66.3703 134.846 66.4439 134.026C66.4863 132.556 66.3769 131.085 66.1174 129.637C65.9002 128.387 66.1174 128.558 67.2942 128.558C74.7237 128.558 84.6885 128.39 92.1633 128.396C92.7771 128.396 92.7659 129.03 92.1633 129.053C83.5674 129.376 75.0674 129.615 67.0525 129.508C67.385 131.052 67.4421 132.642 67.2213 134.206ZM94.9344 133.397C94.6949 134.6 94.0841 134.791 92.9802 134.802C85.0947 134.881 76.8521 135.159 69.035 135.01C68.5224 135 68.4719 134.193 68.9785 134.201C76.8982 134.267 85.6853 133.835 93.8528 133.672C94.1741 132.93 94.4754 131.57 93.6504 128.868C93.5016 128.39 93.9837 128.111 94.2136 128.553C94.9991 130.039 95.2534 131.747 94.9344 133.397Z" fill="#191919"/>
<path d="M29.132 136.521C31.3853 134.689 31.8332 130.022 29.504 127.732C29.1886 127.423 28.7169 127.881 28.9408 128.221C29.7311 129.39 30.1242 130.781 30.0624 132.189C30.0005 133.597 29.4869 134.948 28.5972 136.043C28.3784 136.306 28.8501 136.723 29.132 136.521Z" fill="#191919"/>
<path d="M47.692 129.014C43.5127 129.162 40.1159 129.477 35.8637 129.148C35.761 129.141 35.6597 129.174 35.5807 129.24C35.5017 129.306 35.4511 129.4 35.4396 129.502C35.428 129.604 35.4562 129.706 35.5185 129.788C35.5807 129.87 35.6721 129.924 35.7737 129.941C38.9904 130.205 44.7007 130.299 47.817 129.761C47.9163 129.745 48.005 129.69 48.0636 129.608C48.1222 129.526 48.1459 129.425 48.1294 129.326C48.1129 129.226 48.0577 129.138 47.9758 129.079C47.8939 129.021 47.7921 128.997 47.6927 129.014H47.692Z" fill="#191919"/>
<path d="M38.6794 134.048C38.1951 134.048 38.2233 134.781 38.6794 134.802C41.4951 134.927 44.3123 134.967 47.1287 134.95C47.529 134.95 47.6361 134.242 47.2031 134.22C44.3725 134.076 41.5241 134.043 38.6794 134.048Z" fill="#191919"/>
<path d="M51.5221 131.464C48.7845 131.484 46.0424 131.671 43.3041 131.717C42.8198 131.725 42.7685 132.468 43.2587 132.475C46.0348 132.546 48.8127 132.457 51.5787 132.211C52.0183 132.167 51.9387 131.461 51.5221 131.464Z" fill="#191919"/>
<path d="M38.753 99.7202C36.6805 101.328 36.0869 105.493 38.1899 107.689C39.9455 109.522 43.2084 109.321 45.6477 109.306C59.7687 109.21 76.538 108.975 91.5264 108.745C92.0338 108.737 92.0903 107.825 91.5658 107.834C75.2034 108.12 58.8172 108.115 43.7827 108.155C42.1661 108.159 40.1628 108.125 39.0573 106.745C37.4951 104.792 38.0694 101.17 40.4536 100.214C41.934 99.62 43.6421 99.7402 45.2021 99.7195C60.2048 99.5156 75.1637 99.3825 90.0788 99.3202C90.8115 99.3202 90.9015 98.1936 90.1688 98.1966C74.7295 98.2582 59.2911 98.4066 43.8563 98.4771C42.1044 98.486 40.2007 98.5966 38.753 99.7202Z" fill="#191919"/>
<path d="M67.4468 31.1244C67.451 32.8658 67.8152 34.5875 68.5165 36.1821C68.7129 36.5309 69.2106 36.3602 69.0804 35.9595C68.4297 34.0306 68.152 31.996 68.2621 29.9637C68.6786 29.1608 69.0054 28.3146 69.2367 27.4405C71.0726 27.3336 72.9369 23.1413 70.5013 22.2759C70.1979 22.1868 69.877 22.1751 69.5679 22.2419C69.2588 22.3087 68.9715 22.4518 68.7323 22.6581C66.3004 19.8143 67.5368 16.9563 66.226 17.3422C64.3625 17.8907 61.2187 19.2718 56.2159 16.9711C55.7264 16.7485 55.6528 17.3251 55.9793 17.5337C57.4994 18.3726 59.1777 18.8872 60.9077 19.0449C62.6377 19.2025 64.3816 18.9998 66.0289 18.4495C66.0999 20.0496 66.6932 21.5828 67.7183 22.8155C69.0804 24.4601 69.0217 22.6982 70.2082 23.0737C71.6893 23.6756 70.1227 26.4378 69.0819 26.5915C68.9628 26.6094 68.8507 26.659 68.7575 26.7352C68.6642 26.8113 68.5933 26.9111 68.5523 27.0241C67.0704 32.0818 63.6863 32.91 61.3534 30.9575C58.0363 28.1826 57.3965 23.3558 57.3362 19.3586C57.3303 18.9259 56.8319 18.9697 56.7731 19.3586C56.61 20.5425 56.6351 21.7447 56.8475 22.9209C55.3835 22.9995 54.249 25.5339 56.8475 27.3151C57.7223 27.9147 57.7543 27.108 57.4902 26.9559C55.9779 26.0831 55.4623 23.9495 57.0052 23.6682C57.5185 26.3147 58.7236 29.9511 60.7516 31.6929C61.2228 32.1066 61.7731 32.421 62.3693 32.617C62.9655 32.813 63.5953 32.8867 64.2207 32.8336C64.8462 32.7805 65.4545 32.6017 66.0089 32.308C66.5633 32.0142 67.0524 31.6117 67.4468 31.1244Z" fill="#191919"/>
<path d="M61.29 24.0615C61.0665 24.8045 60.966 25.5788 60.9924 26.354C61.0475 27.8383 63.6043 26.6508 62.8849 26.1625C62.5769 25.9525 62.0517 26.3933 61.7929 26.2924C61.534 26.1915 61.7929 24.2886 61.8546 24.106C61.9602 23.6563 61.435 23.5717 61.29 24.0615Z" fill="#191919"/>
<path d="M63.8632 22.8192C63.559 22.1112 62.6871 22.9372 63.2212 23.9435C63.5039 24.4741 64.3646 23.9829 63.8632 22.8192Z" fill="#191919"/>
<path d="M59.3744 24.2856C59.6243 24.8467 60.3548 24.5216 60.1465 23.4374C59.9382 22.3531 58.8045 23.0084 59.3744 24.2856Z" fill="#191919"/>
<path d="M64.1508 28.6747C64.5436 28.5564 64.8888 28.3171 65.1367 27.9909C65.3846 27.6648 65.5226 27.2686 65.5307 26.8594C65.5404 26.1009 64.9676 26.0282 64.7868 26.7852C64.7431 27.1161 64.5942 27.4244 64.3621 27.6648C64.1299 27.9052 63.8267 28.0651 63.4969 28.121C62.3654 28.4498 63.2722 29.0569 64.1508 28.6747Z" fill="#191919"/>
<path d="M63.1429 20.2009C62.8758 20.3137 62.7375 20.9312 63.4241 20.8978C64.5511 20.8414 64.9953 21.7282 65.2839 21.5939C65.8716 21.3223 64.5392 19.6109 63.1429 20.2009Z" fill="#191919"/>
<path d="M60.1864 20.4139C58.9017 20.0095 57.7419 21.6154 58.2991 21.988C58.6093 22.195 58.6569 21.3557 60.0904 21.139C60.1712 21.1252 60.2453 21.0859 60.3021 21.027C60.3589 20.9682 60.3953 20.8927 60.406 20.8117C60.4167 20.7307 60.4012 20.6484 60.3617 20.5768C60.3222 20.5053 60.2608 20.4482 60.1864 20.4139Z" fill="#191919"/>
<path d="M60.3667 32.7148C60.2346 33.6162 60.0465 34.5085 59.8035 35.3865C59.4479 36.6883 60.3004 36.5487 60.5021 35.4311C60.662 34.5405 60.7996 33.6499 60.9804 32.7594C61.0645 32.3416 60.4232 32.3104 60.3667 32.7148Z" fill="#191919"/>
<path d="M55.9107 21.729C52.8078 17.5248 53.6901 11.797 59.7403 10.2385C64.1294 9.11042 70.5323 9.11488 72.8481 13.846C74.1827 16.5719 73.357 19.6785 71.7553 22.0949C71.6874 22.1948 71.6619 22.3175 71.6847 22.4361C71.7074 22.5546 71.7765 22.6594 71.8766 22.7272C71.9767 22.795 72.0997 22.8203 72.2186 22.7976C72.3375 22.7749 72.4424 22.7061 72.5104 22.6062C77.941 15.1225 72.1898 6.29253 59.9263 9.06367C57.2222 9.67519 54.7755 11.0296 53.6514 13.6775C53.0825 15.1152 52.9335 16.6842 53.2217 18.2028C53.5099 19.7214 54.2235 21.1275 55.2798 22.2581C55.3506 22.34 55.4509 22.3908 55.559 22.3995C55.6671 22.4081 55.7742 22.3739 55.8572 22.3043C55.9401 22.2347 55.9923 22.1353 56.0023 22.0276C56.0123 21.9199 55.9794 21.8126 55.9107 21.729Z" fill="#191919"/>
<path d="M69.4234 7.90519C69.4628 6.18789 69.8392 3.13622 70.9053 1.65714C71.1004 1.39963 71.3725 1.21057 71.6822 1.1172C71.992 1.02384 72.3235 1.031 72.6289 1.13764C73.9583 1.56838 75.1852 2.26623 76.2339 3.18817C76.7383 3.62486 77.0757 4.22227 77.1886 4.87894C77.3016 5.5356 77.1832 6.21103 76.8536 6.7905C76.0353 8.19389 74.4106 8.76607 72.9852 9.3583C72.8594 9.4099 72.7582 9.50785 72.7028 9.63184C72.6474 9.75583 72.6419 9.89635 72.6876 10.0243C72.7332 10.1522 72.8264 10.2576 72.9479 10.3188C73.0694 10.3799 73.2099 10.3921 73.3401 10.3528C74.9135 9.77909 76.5687 9.03176 77.5759 7.6217C78.0495 6.9675 78.3044 6.18108 78.3044 5.37413C78.3044 4.56719 78.0495 3.78077 77.5759 3.12657C76.4696 1.79145 75.0042 0.79917 73.352 0.266374C72.9753 0.0996656 72.5691 0.00935237 72.1571 0.000688647C71.7451 -0.00797508 71.3355 0.0651839 70.9521 0.215909C70.2612 0.589024 69.7261 1.19548 69.4427 1.92654C68.55 3.81529 68.2704 5.93494 68.643 7.9898C68.6807 8.06668 68.7413 8.1301 68.8164 8.17142C68.8916 8.21273 68.9777 8.22994 69.063 8.22069C69.1483 8.21144 69.2286 8.17619 69.2931 8.11974C69.3576 8.06328 69.4031 7.98837 69.4234 7.90519Z" fill="#191919"/>
<path d="M20.3673 50.5848C19.967 50.8788 19.4974 51.0648 19.004 51.1247C18.5106 51.1846 18.0101 51.1165 17.5508 50.9269C17.0814 50.7302 16.5264 51.6616 18.1459 51.9444C19.2053 52.1292 20.6202 51.5273 20.7987 50.8824C20.8947 50.5447 20.6775 50.4274 20.3673 50.5848Z" fill="#191919"/>
<path d="M20.6935 47.8982C19.9898 47.916 17.4947 48.5075 16.8296 46.7108C16.7987 46.6232 16.738 46.549 16.6581 46.5012C16.5782 46.4534 16.4841 46.4349 16.392 46.4489C16.2999 46.4629 16.2156 46.5085 16.1535 46.5778C16.0915 46.6472 16.0557 46.7359 16.0522 46.8288C16.2211 48.9298 19.1194 49.2111 20.8572 48.4073C21.2068 48.2478 21.0268 47.8901 20.6935 47.8982Z" fill="#191919"/>
<path d="M20.7674 46.0496C20.231 45.9998 17.5975 46.3843 17.2977 44.4874C17.2851 44.3984 17.2416 44.3168 17.1748 44.2566C17.1079 44.1965 17.022 44.1617 16.932 44.1583C16.8421 44.155 16.7538 44.1833 16.6826 44.2382C16.6114 44.2932 16.5619 44.3714 16.5427 44.4592C16.1358 46.6975 19.2014 47.0277 20.8462 46.6344C21.2122 46.5216 21.1624 46.0837 20.7674 46.0496Z" fill="#191919"/>
<path d="M20.711 49.5109C20.8642 49.22 20.6604 48.9988 20.3673 49.0894C19.8548 49.4008 19.2702 49.5744 18.6704 49.5931C18.0706 49.6118 17.4762 49.4751 16.9453 49.1962C16.5845 49.0174 16.1679 49.522 16.5116 49.7981C17.9637 50.9603 20.281 50.328 20.711 49.5109Z" fill="#191919"/>
<path d="M105.894 49.4775C108.223 50.4987 110.716 48.6738 110.817 47.4433C110.819 47.3653 110.798 47.2884 110.756 47.2221C110.715 47.1558 110.656 47.1028 110.585 47.0696C110.514 47.0363 110.435 47.0242 110.358 47.0347C110.28 47.0451 110.207 47.0778 110.148 47.1286C109.8 47.4129 108.837 49.3387 106.07 48.814C105.559 48.7175 105.413 49.266 105.894 49.4775Z" fill="#191919"/>
<path d="M106.837 47.539C108.6 47.8411 110.962 46.1661 110.741 44.6558C110.729 44.5801 110.694 44.5095 110.642 44.4531C110.59 44.3967 110.522 44.357 110.448 44.339C110.373 44.321 110.295 44.3254 110.222 44.3519C110.15 44.3783 110.087 44.4254 110.042 44.4874C109.017 46.106 108.651 46.644 106.567 46.8474C106.155 46.8874 106.015 47.398 106.837 47.539Z" fill="#191919"/>
<path d="M109.275 51.7477C108.588 51.8879 108.065 52.8305 105.928 52.0623C105.506 51.9102 105.309 52.3429 105.691 52.6242C106.977 53.5711 109.262 53.1859 109.696 52.259C109.718 52.1963 109.723 52.129 109.712 52.0637C109.7 51.9983 109.672 51.9371 109.629 51.8858C109.587 51.8345 109.532 51.7949 109.47 51.7707C109.408 51.7465 109.341 51.7386 109.275 51.7477Z" fill="#191919"/>
<path d="M109.763 49.5896C109.014 49.9206 108.558 50.9789 105.73 50.4608C105.358 50.3926 105.284 50.849 105.566 51.0226C107.132 51.9793 109.778 51.1948 110.304 50.0393C110.443 49.7284 110.042 49.4656 109.763 49.5896Z" fill="#191919"/>
<path d="M37.0517 94.2299C40.3762 96.88 45.0361 96.1646 48.7512 94.6403C49.2415 94.4391 48.9528 93.9241 48.4536 94.0785C45.3061 95.0469 41.8998 95.8663 38.7991 94.2692C36.8292 93.2547 34.8601 90.7143 35.7632 89C36.5607 87.4846 37.4571 88.6289 39.4136 89.3763C41.8912 90.3387 44.5498 90.749 47.2031 90.5785C47.7105 90.5429 47.6428 89.9329 47.1287 89.9269C44.3123 89.8943 40.4164 89.1291 37.8856 87.679C35.0661 86.0626 32.7555 90.8056 37.0517 94.2299Z" fill="#191919"/>
<path d="M91.1432 86.7447C89.2454 88.2059 85.7527 89.8557 83.4548 89.993C83.0084 90.0197 83.1111 90.6513 83.5508 90.6335C86.9304 90.4954 89.8093 88.7039 91.5657 87.3681C94.4171 85.1951 94.952 87.3992 93.7461 89.947C93.114 91.4034 92.1309 92.6814 90.8843 93.6673C88.1139 95.4841 85.4887 95.0774 82.9363 94.8362C82.5643 94.8013 82.4788 95.3022 82.8857 95.398C84.9991 95.8785 87.1938 95.8785 89.3072 95.398C92.0054 94.6173 93.4389 92.7419 94.557 90.2958C96.3253 86.427 94.5235 84.1435 91.1432 86.7447Z" fill="#191919"/>
<path d="M48.7618 88.8857C48.6547 91.5493 49.4715 94.3197 51.0151 95.7023C56.4896 95.7357 79.3025 93.5041 89.8133 81.6536C96.3397 74.2953 94.6071 71.0054 91.2386 70.1564C87.8702 69.3074 81.1839 69.9434 74.2774 74.9803C67.3708 80.0172 58.7608 86.1888 48.7618 88.8857Z" fill="#191919"/>
<path d="M48.7513 88.1948C53.8094 86.4058 58.616 83.9757 63.0531 80.9642C60.0041 79.283 57.1349 77.2962 54.4899 75.0345C48.0059 69.4543 44.2908 68.307 40.8308 68.6447C36.0504 69.1115 32.2483 73.3439 39.4278 82.0135C41.4334 84.4336 45.1232 86.6942 48.7513 88.1948Z" fill="#191919"/>
<path d="M81.985 88.8071C77.4383 91.1906 72.6304 93.0414 67.6572 94.3226C72.0586 95.2438 76.53 95.7927 81.0239 95.9635C81.7991 94.7471 82.5355 91.0773 81.985 88.8071Z" fill="#191919"/>
<path d="M130.455 139.148C87.2402 139.222 43.7144 139.277 0.523435 139.71C-0.118564 139.716 -0.203371 140.708 0.455738 140.716C43.6207 141.18 87.1665 141.08 130.371 140.379C131.142 140.369 131.244 139.148 130.455 139.148Z" fill="#38A1FF"/>
<path d="M88.1243 115.629C88.204 115.599 88.272 115.545 88.3185 115.474C88.3649 115.404 88.3873 115.32 88.3822 115.235C88.3771 115.151 88.3448 115.07 88.2902 115.005C88.2356 114.94 88.1615 114.895 88.0789 114.875C87.4652 114.685 81.7757 114.875 81.0437 114.875C80.5312 114.875 80.5818 115.655 81.0891 115.662C81.8605 115.673 87.4645 115.851 88.1243 115.629Z" fill="#38A1FF"/>
<path d="M93.876 113.032C92.4402 114.61 92.3524 117.943 94.0731 119.776C94.1398 119.841 94.2281 119.879 94.3214 119.884C94.4146 119.889 94.5064 119.86 94.5794 119.802C94.6525 119.744 94.7019 119.661 94.7182 119.569C94.7346 119.478 94.7168 119.383 94.6682 119.304C93.266 117.399 93.501 115.437 94.5842 113.543C94.638 113.449 94.6551 113.339 94.6322 113.233C94.6093 113.127 94.548 113.034 94.4602 112.97C94.3723 112.907 94.2641 112.878 94.1563 112.89C94.0484 112.901 93.9486 112.952 93.876 113.032Z" fill="#38A1FF"/>
<path d="M35.0636 111.128C32.8103 111.128 30.6924 112.813 30.6924 116.792C30.6924 120.523 31.9942 122.551 35.4244 122.658C38.4603 122.753 91.8311 122.54 98.0889 122.338C98.2105 122.315 98.3203 122.251 98.3994 122.156C98.4785 122.061 98.5217 121.941 98.5217 121.818C98.5217 121.695 98.4785 121.575 98.3994 121.48C98.3203 121.385 98.2105 121.321 98.0889 121.299C96.8376 121.104 84.0073 121.439 81.754 121.456C77.9742 121.484 77.7473 119.416 77.9347 115.836C78.1416 111.903 81.6022 112.338 84.0185 112.33C88.2484 112.315 92.8763 112.472 97.0474 112.245C97.1942 112.235 97.3311 112.168 97.429 112.058C97.5269 111.949 97.578 111.805 97.5714 111.659C97.5648 111.512 97.501 111.374 97.3937 111.274C97.2863 111.173 97.1439 111.119 96.9968 111.122C91.3639 111.054 85.6804 111.126 80.0252 111.206C69.9533 111.349 37.0633 111.125 35.0636 111.128ZM68.8605 113.448C68.9186 113.345 69.0133 113.266 69.1262 113.228C69.2391 113.191 69.362 113.196 69.471 113.244C69.5801 113.292 69.6674 113.378 69.716 113.487C69.7645 113.595 69.7709 113.718 69.7338 113.83C68.888 116.305 68.9899 117.629 70.0433 120.012C70.2382 120.451 69.6222 120.696 69.3507 120.377C67.8911 118.658 67.7282 115.291 68.8434 113.448H68.8605ZM65.7851 113.476C66.3802 112.706 66.9114 113.375 66.7031 113.689C66.1798 114.578 65.8834 115.582 65.8402 116.612C65.797 117.641 66.0083 118.666 66.4554 119.595C66.6786 120.041 66.1199 120.505 65.8245 120.079C64.5673 118.268 64.394 115.252 65.768 113.482L65.7851 113.476ZM41.6651 113.328C42.229 112.48 42.8695 112.726 42.4879 113.586C41.3572 116.136 41.2724 117.742 42.3131 120.409C42.5013 120.891 41.9873 121.132 41.6436 120.673C40.2346 118.792 40.2182 115.379 41.6495 113.326L41.6651 113.328ZM37.7789 113.564C38.3138 112.508 39.0689 112.766 38.6515 114.014C38.251 114.975 38.0629 116.012 38.0999 117.052C38.1368 118.093 38.3981 119.113 38.8658 120.044C39.089 120.496 38.4618 120.917 38.1844 120.47C37.5528 119.442 37.182 118.276 37.1042 117.072C37.0265 115.869 37.244 114.665 37.738 113.564H37.7789Z" fill="#38A1FF"/>
<path d="M82.9425 118.219C85.2138 118.418 87.4982 118.418 89.7694 118.219C90.2158 118.114 90.2708 117.376 89.7694 117.376C87.5838 117.376 85.2628 117.376 83.0385 117.439C82.9867 117.432 82.934 117.435 82.8835 117.448C82.833 117.462 82.7856 117.485 82.7442 117.517C82.7027 117.548 82.6681 117.588 82.6421 117.633C82.6162 117.679 82.5996 117.729 82.5933 117.78C82.5869 117.832 82.5909 117.885 82.6051 117.935C82.6193 117.985 82.6433 118.032 82.6758 118.073C82.7083 118.114 82.7486 118.148 82.7944 118.173C82.8402 118.198 82.8905 118.214 82.9425 118.219Z" fill="#38A1FF"/>
<path d="M87.3579 99.9956C86.9322 100.524 86.6299 101.141 86.473 101.801C86.3162 102.46 86.3087 103.147 86.4512 103.81C86.5937 104.473 86.8826 105.096 87.2968 105.634C87.711 106.171 88.2402 106.61 88.8457 106.918C89.2415 107.124 89.6395 106.604 89.2966 106.391C88.8156 106.09 88.4001 105.696 88.0745 105.232C87.749 104.769 87.5201 104.244 87.4014 103.691C87.2827 103.137 87.2766 102.565 87.3835 102.009C87.4904 101.453 87.7081 100.924 88.0237 100.453C88.0606 100.41 88.088 100.36 88.1041 100.306C88.1202 100.251 88.1246 100.194 88.1172 100.138C88.1097 100.082 88.0905 100.028 88.0607 99.9793C88.031 99.931 87.9914 99.8895 87.9445 99.8574C87.8977 99.8253 87.8446 99.8034 87.7887 99.7932C87.7328 99.7829 87.6753 99.7845 87.6201 99.7978C87.5648 99.8111 87.513 99.8359 87.468 99.8704C87.4229 99.905 87.3857 99.9487 87.3587 99.9985L87.3579 99.9956Z" fill="#38A1FF"/>
<path d="M59.6111 105.76C66.5958 105.941 74.607 105.735 82.2381 105.587C82.3509 105.587 82.4592 105.542 82.539 105.462C82.6188 105.383 82.6636 105.275 82.6636 105.162C82.6636 105.05 82.6188 104.942 82.539 104.862C82.4592 104.783 82.3509 104.738 82.2381 104.738C74.5013 104.894 66.6158 104.946 59.6171 104.991C59.5234 105.002 59.4372 105.048 59.3744 105.118C59.3116 105.188 59.2766 105.279 59.2759 105.373C59.2752 105.467 59.3088 105.558 59.3704 105.63C59.4321 105.701 59.5177 105.747 59.6111 105.76Z" fill="#38A1FF"/>
<path d="M68.6629 101.681C61.4298 101.633 51.1564 101.822 45.5063 101.816C44.9997 101.816 45.0391 102.592 45.5458 102.597C52.052 102.672 61.4581 102.768 68.7024 102.474C68.8051 102.465 68.9004 102.417 68.9682 102.339C69.036 102.262 69.071 102.161 69.0659 102.058C69.0608 101.956 69.0159 101.859 68.9408 101.788C68.8656 101.718 68.766 101.68 68.6629 101.681Z" fill="#38A1FF"/>
<path d="M83.365 19.3014C85.2077 15.6294 87.2193 12.0396 89.0314 8.36086C89.2167 7.98385 88.5739 7.61278 88.3783 7.99573C86.4887 11.6871 84.6803 15.4089 82.8525 19.1107C82.6353 19.5501 83.153 19.7237 83.365 19.3014Z" fill="#38A1FF"/>
<path d="M89.9382 24.2857C95.0139 22.5787 101.052 20.0176 106.048 17.9077C106.504 17.7155 106.196 17.0751 105.744 17.2227C102.75 18.2031 92.3232 22.4073 89.6287 23.7068C89.1883 23.9198 89.4658 24.4452 89.9382 24.2857Z" fill="#38A1FF"/>
<path d="M103.536 68.5267C107.354 68.8918 111.664 69.2517 115.478 69.4321C115.568 69.4276 115.653 69.3917 115.719 69.3306C115.786 69.2695 115.828 69.1871 115.839 69.0979C115.851 69.0086 115.83 68.9182 115.782 68.8426C115.733 68.7669 115.659 68.7108 115.573 68.684C111.583 68.2019 107.567 67.96 103.547 67.9597C103.035 67.9634 103.08 68.4836 103.536 68.5267Z" fill="#38A1FF"/>
<path d="M100.973 72.3821C102.618 73.8827 109.602 79.3337 111.568 80.6591C111.962 80.9248 112.433 80.4098 112.064 80.0973C110.217 78.5307 103.274 73.1049 101.362 71.8648C101.293 71.8171 101.208 71.7979 101.125 71.8112C101.042 71.8246 100.968 71.8695 100.917 71.9364C100.867 72.0034 100.845 72.0873 100.855 72.1704C100.865 72.2535 100.908 72.3294 100.973 72.3821Z" fill="#38A1FF"/>
<path d="M46.1884 20.5267C46.4257 20.88 46.9933 20.6165 46.7835 20.2299C44.7801 16.4947 42.8884 12.6282 40.8805 8.96274C40.6618 8.56347 40.057 8.92935 40.1991 9.32788C41.1647 12.0434 44.5458 18.0881 46.1884 20.5267Z" fill="#38A1FF"/>
<path d="M26.7269 71.4381C25.5084 72.1431 17.8654 78.5114 17.0218 79.3048C16.9526 79.3715 16.9107 79.4616 16.9042 79.5574C16.8977 79.6532 16.927 79.748 16.9865 79.8235C17.046 79.899 17.1314 79.9498 17.2263 79.9662C17.3212 79.9825 17.4187 79.9631 17.5001 79.9118C18.4412 79.2773 26.1861 72.9268 27.1383 71.9153C27.1845 71.8569 27.2089 71.7843 27.2074 71.7099C27.2058 71.6355 27.1784 71.564 27.1297 71.5076C27.0811 71.4512 27.0143 71.4134 26.9408 71.4007C26.8673 71.388 26.7917 71.4013 26.7269 71.4381Z" fill="#38A1FF"/>
<path d="M11.1197 67.268C12.359 67.1819 21.1164 65.9544 22.5492 65.5151C22.9955 65.3785 22.8252 64.8524 22.4004 64.8635C20.9364 64.8991 12.1812 66.2691 10.9716 66.5489C10.5506 66.6454 10.7016 67.2977 11.1197 67.268Z" fill="#38A1FF"/>
<path d="M26.8507 20.48C29.4588 22.2047 37.9863 25.7143 40.7299 26.6612C40.8148 26.6883 40.9069 26.6816 40.9869 26.6425C41.0669 26.6033 41.1287 26.5349 41.1593 26.4513C41.1898 26.3678 41.1868 26.2758 41.1509 26.1944C41.1149 26.113 41.0489 26.0487 40.9665 26.0148C36.3609 24.2003 31.6675 21.519 27.2115 19.766C27.1171 19.7226 27.0095 19.7175 26.9114 19.7516C26.8133 19.7858 26.7323 19.8566 26.6855 19.9492C26.6387 20.0418 26.6298 20.1489 26.6606 20.2479C26.6914 20.3469 26.7596 20.4301 26.8507 20.48Z" fill="#38A1FF"/>
<path d="M21.0655 32.5071L22.8286 30.9337C27.6953 33.4793 34.1785 34.9561 39.6254 35.5246C46.6725 36.26 61.5494 33.4525 63.0751 43.628C63.1369 44.0376 63.6844 44.454 63.9254 43.976C68.0013 35.9031 78.7636 37.8022 86.2317 36.4404C92.3609 35.3227 98.2185 32.7208 103.868 30.1753C104.843 30.9531 105.869 31.6663 106.938 32.3104C107.168 32.3891 107.529 32.0692 107.225 31.8324C106.221 31.0525 105.223 30.2643 104.217 29.4895C104.139 29.4275 104.045 29.3876 103.946 29.3737C103.847 29.3599 103.746 29.3727 103.653 29.4109C98.2601 31.7211 92.2761 34.47 86.1529 35.5921C79.1511 36.8753 68.0207 35.1765 63.7283 42.5318C61.8358 33.3048 48.7503 35.276 42.2448 34.9064C37.3433 34.6173 32.5093 33.6237 27.8924 31.9564C21.7499 29.753 23.4244 29.3589 21.1332 31.3946C19.2942 33.028 19.4884 33.9179 21.0655 32.5071Z" fill="#38A1FF"/>
<path d="M18.0237 43.9872C19.7139 45.8247 21.8222 43.8469 22.1153 47.1175C22.3987 50.3035 22.0699 52.3377 19.124 52.737C19.2728 53.9986 19.4104 55.2031 19.5294 56.2822C19.6291 57.1868 19.4729 57.9683 21.3148 58.6763C23.1568 59.3843 52.6299 70.2633 56.592 72.3034C55.4144 63.6664 54.1646 54.6086 53.3984 45.9575C53.353 45.4462 53.9511 45.47 54.0173 45.9575C55.2455 54.9753 56.6538 64.6023 57.6566 73.6719C59.6651 76.0883 64.6018 78.4372 68.5051 74.2337C69.6321 65.3051 70.5881 56.4966 71.5752 47.5591C71.6325 47.0396 72.218 47.1205 72.189 47.5984C71.6891 55.9489 70.7361 65.0186 69.5808 73.3461C75.8111 70.5757 102.556 62.1398 104.251 61.6582C105.946 61.1766 106.557 60.3097 106.667 59.2092C106.695 58.9175 107.039 57.0851 107.547 54.5285C103.226 54.1411 103.79 51.5444 104.375 48.437C105.057 44.8184 108.746 46.2232 109.799 43.3126C110.797 38.4738 111.695 34.2837 111.895 33.7598C112.406 32.4143 111.82 31.6076 110.12 32.2644C93.3496 38.7507 82.298 42.3767 72.2232 44.7679C70.4482 45.1887 71.5804 46.1104 67.846 47.4596C64.1115 48.8088 58.669 47.9888 56.682 46.3917C54.9911 45.0328 55.3304 44.2336 53.3984 43.835C49.0666 42.9415 20.9458 34.4262 19.2281 33.7642C16.7643 32.8076 16.2986 33.1008 16.6594 34.9324C17.0202 36.764 17.5283 40.1659 18.0237 43.9872ZM96.4949 54.8721C94.2966 56.0046 85.392 59.0014 82.8128 59.7212C82.3903 59.8392 82.1002 59.1668 82.5153 58.9969C84.4167 58.2147 93.9597 54.6443 96.1973 54.1582C96.6184 54.0669 96.884 54.671 96.4949 54.8721ZM79.7762 55.1192C85.1896 53.2476 93.1607 50.2553 98.5109 48.6567C98.9617 48.5224 99.1061 49.214 98.7341 49.4048C95.3865 51.1265 83.347 55.0754 80.0105 55.8836C79.5686 55.9912 79.3544 55.2654 79.7762 55.1192ZM67.7247 69.7297C65.156 72.2411 60.723 71.6459 58.5746 70.2915C58.5284 70.2675 58.4873 70.2346 58.4539 70.1948C58.4204 70.1549 58.3951 70.1089 58.3795 70.0593C58.3638 70.0097 58.3581 69.9576 58.3627 69.9058C58.3672 69.854 58.382 69.8036 58.4061 69.7575C58.4302 69.7114 58.4631 69.6705 58.503 69.6371C58.543 69.6037 58.5891 69.5785 58.6388 69.5629C58.6885 69.5473 58.7408 69.5416 58.7927 69.5461C58.8446 69.5507 58.8951 69.5654 58.9413 69.5894C63.3178 71.185 64.9514 70.2069 67.2776 69.0269C67.3638 69.0092 67.4533 69.0176 67.5347 69.0512C67.616 69.0847 67.6854 69.1417 67.7339 69.215C67.7824 69.2882 67.8078 69.3743 67.8068 69.462C67.8059 69.5498 67.7786 69.6353 67.7285 69.7074L67.7247 69.7297ZM57.2675 53.068C61.5517 55.1979 64.8153 54.9886 68.3362 52.9448C68.8205 52.6635 69.1374 53.1763 68.787 53.5459C66.2339 56.2361 59.9069 56.5664 56.9588 53.6246C56.6902 53.3567 56.9632 52.9166 57.2675 53.068Z" fill="#38A1FF"/>
</svg>
