<svg width="12" height="12" viewBox="0 0 12 12" fill="none" xmlns="http://www.w3.org/2000/svg">
<path d="M0.666504 8.00002C0.666504 7.6464 0.80698 7.30726 1.05703 7.05721C1.30708 6.80716 1.64622 6.66669 1.99984 6.66669H2.6665C3.02013 6.66669 3.35926 6.80716 3.60931 7.05721C3.85936 7.30726 3.99984 7.6464 3.99984 8.00002V10C3.99984 10.3536 3.85936 10.6928 3.60931 10.9428C3.35926 11.1929 3.02013 11.3334 2.6665 11.3334H1.99984C1.64622 11.3334 1.30708 11.1929 1.05703 10.9428C0.80698 10.6928 0.666504 10.3536 0.666504 10V8.00002Z" stroke="#2F82FF" stroke-linecap="round" stroke-linejoin="round"/>
<path d="M8 8.00002C8 7.6464 8.14048 7.30726 8.39052 7.05721C8.64057 6.80716 8.97971 6.66669 9.33333 6.66669H10C10.3536 6.66669 10.6928 6.80716 10.9428 7.05721C11.1929 7.30726 11.3333 7.6464 11.3333 8.00002V10C11.3333 10.3536 11.1929 10.6928 10.9428 10.9428C10.6928 11.1929 10.3536 11.3334 10 11.3334H9.33333C8.97971 11.3334 8.64057 11.1929 8.39052 10.9428C8.14048 10.6928 8 10.3536 8 10V8.00002Z" stroke="#2F82FF" stroke-linecap="round" stroke-linejoin="round"/>
<path d="M0.666504 8.00002V6.00002C0.666504 4.58553 1.22841 3.22898 2.2286 2.22878C3.2288 1.22859 4.58535 0.666687 5.99984 0.666687C7.41433 0.666687 8.77088 1.22859 9.77107 2.22878C10.7713 3.22898 11.3332 4.58553 11.3332 6.00002V8.00002" stroke="#2F82FF" stroke-linecap="round" stroke-linejoin="round"/>
</svg>
