<svg width="16" height="16" viewBox="0 0 16 16" fill="none" xmlns="http://www.w3.org/2000/svg">
<path d="M8.00002 1.25C8.09902 1.25 8.19727 1.25 8.29477 1.25C7.33127 2.14528 6.71196 3.34989 6.54449 4.65442C6.37701 5.95895 6.67196 7.28093 7.37807 8.39055C8.08418 9.50017 9.1568 10.3273 10.4095 10.7281C11.6621 11.1289 13.0157 11.0781 14.2348 10.5845C13.7658 11.7129 12.9994 12.6928 12.0172 13.4197C11.035 14.1466 9.87385 14.5933 8.6577 14.712C7.44155 14.8308 6.21597 14.6172 5.11169 14.0941C4.00741 13.5709 3.06585 12.7578 2.38746 11.7415C1.70907 10.7251 1.31928 9.54371 1.25968 8.32323C1.20008 7.10275 1.47291 5.88898 2.04905 4.81139C2.62519 3.7338 3.48304 2.83282 4.53109 2.20455C5.57914 1.57629 6.77808 1.2443 8.00002 1.244V1.25Z" stroke="white" stroke-width="2" stroke-linecap="round" stroke-linejoin="round"/>
</svg>
