<svg width="16" height="16" viewBox="0 0 16 16" fill="none" xmlns="http://www.w3.org/2000/svg">
<path d="M7.99996 1.25C8.09896 1.25 8.19721 1.25 8.29471 1.25C7.33121 2.14528 6.7119 3.34989 6.54443 4.65442C6.37695 5.95895 6.6719 7.28093 7.37801 8.39055C8.08412 9.50017 9.15673 10.3273 10.4094 10.7281C11.6621 11.1289 13.0156 11.0781 14.2347 10.5845C13.7658 11.7129 12.9993 12.6928 12.0171 13.4197C11.0349 14.1466 9.87379 14.5933 8.65764 14.712C7.44149 14.8308 6.2159 14.6172 5.11163 14.0941C4.00735 13.5709 3.06579 12.7578 2.3874 11.7415C1.70901 10.7251 1.31922 9.54371 1.25962 8.32323C1.20002 7.10275 1.47284 5.88898 2.04899 4.81139C2.62513 3.7338 3.48298 2.83282 4.53103 2.20455C5.57908 1.57629 6.77802 1.2443 7.99996 1.244V1.25Z" stroke="black" stroke-width="2" stroke-linecap="round" stroke-linejoin="round"/>
</svg>
