<svg width="345" height="217" viewBox="0 0 345 217" fill="none" xmlns="http://www.w3.org/2000/svg">
<path d="M31.272 185.986C14.2696 186.062 6.42756 186.177 2.88251 186.486C-0.742982 186.803 -1.06228 188.4 2.57395 188.567C6.87659 188.766 17.059 188.886 31.2885 188.942C31.2848 187.857 31.2794 186.863 31.272 185.986Z" fill="#38A1FF"/>
<path d="M329.863 184.726C324.909 184.174 314.44 184.176 299.195 184.311L299.186 187.675C315.898 187.524 327.161 187.398 330.093 187.329C332.001 187.284 335.904 185.399 329.863 184.726Z" fill="#38A1FF"/>
<path d="M218.754 185.19L213.075 185.224C212.022 186.337 210.887 187.382 209.664 188.351L276.397 187.868L276.319 184.525C258.599 184.678 223.975 184.653 218.754 185.19Z" fill="#38A1FF"/>
<path d="M117.089 185.711L54.2438 185.909L54.1708 188.982C74.3276 188.986 98.6226 188.921 124.338 188.813C121.881 187.826 119.459 186.788 117.089 185.709V185.711Z" fill="#38A1FF"/>
<path d="M49.5505 125.718C53.0609 131.14 52.7469 144.606 53.0334 151.687C53.4351 161.617 52.1371 163.297 54.6581 162.469C59.7238 160.801 54.6672 145.263 57.8051 139.825C60.8811 134.49 67.0293 136.724 67.8452 141.54C68.9059 147.803 69.928 169.75 63.2049 172.254C60.3682 173.31 57.3908 173.641 54.3933 173.452C51.9965 173.3 52.9804 173.306 51.8159 198.142C51.3741 207.565 52.0312 205.766 36.7959 205.469C33.0063 205.396 33.3402 205.112 33.2947 201.507C33.0227 180.29 33.7328 180.516 31.5751 180.35C24.0907 179.777 21.5168 179.402 20.219 177.091C17.707 172.619 16.756 162.578 16.7141 157.755C16.6519 150.762 15.7447 143.901 22.6669 143.535C24.3481 143.446 26.869 145.922 27.634 147.961C28.4882 150.237 28.302 152.59 28.3842 154.886C28.7456 165.049 27.7909 168.679 31.5477 169.005C33.5832 169.182 32.9479 170.065 32.9479 148.133C30.1842 112.558 46.4508 120.927 49.5505 125.718ZM49.158 135.604C49.2345 133.412 45.852 133.148 45.653 135.531C45.8229 138.068 49.0777 137.891 49.158 135.604ZM62.1132 148.69C64.5265 148.644 65.191 144.4 62.1023 144.586C59.0118 144.772 59.9355 148.73 62.1132 148.69ZM39.8882 131.367C40.0068 129.545 37.9916 129.157 37.2067 131.056C37.318 133.141 39.7659 133.248 39.8882 131.367ZM40.0873 144.293C42.5352 144.153 42.8089 140.176 40.0581 140.316C37.2358 140.276 37.7635 144.427 40.0873 144.293ZM22.8621 157.065C25.3868 157.034 24.8555 153.274 22.6174 153.442C20.4872 153.455 19.9359 157.1 22.8621 157.065ZM49.1963 175.749C49.2949 173.557 45.9104 173.513 45.9505 175.617C45.8338 178.111 49.1032 177.836 49.1963 175.749ZM44.6636 127.245C46.3832 127.171 46.3066 125.039 44.8444 124.935C42.9441 124.8 43.3438 127.302 44.6636 127.245ZM48.446 159.683C48.4569 157.318 45.1035 157.65 45.235 159.798C45.1857 161.61 48.4351 162.048 48.446 159.683ZM42.3507 166.697C42.3727 164.807 38.3494 164.299 38.4515 167.01C38.5538 169.721 42.3215 169.147 42.3507 166.697ZM64.9408 151.337C62.9585 151.25 62.5459 154.261 64.7256 154.245C66.7626 154.378 66.299 151.399 64.9408 151.337ZM21.6354 167.687C21.7085 168.75 22.4349 169.098 23.3111 169.098C25.1896 169.098 25.2973 166.269 23.2673 166.136C22.4111 166.383 21.5569 166.54 21.6372 167.687H21.6354ZM39.2968 147.102C39.2547 145.34 36.7265 145.097 36.6024 146.989C36.6554 149.012 39.3332 148.633 39.2968 147.102ZM40.8539 189.042C42.8401 188.759 42.4347 186.009 40.7315 186.111C38.6159 186.239 39.4172 189.246 40.8539 189.042ZM62.6061 162.474C62.6809 160.625 60.107 160.443 60.1235 162.553C60.1362 164.445 62.5405 164.091 62.6061 162.474Z" fill="#38A1FF"/>
<path d="M297.538 143.408C297.538 165.339 296.903 164.457 298.938 164.281C302.693 163.955 301.74 160.324 302.101 150.161C302.184 147.865 301.997 145.513 302.852 143.237C303.617 141.199 306.137 138.723 307.819 138.81C314.741 139.176 313.834 146.037 313.772 153.03C313.73 157.855 312.777 167.895 310.267 172.367C308.969 174.677 306.395 175.05 298.911 175.626C296.751 175.791 297.463 175.564 297.191 196.782C297.145 200.386 297.479 200.67 293.69 200.744C278.454 201.041 279.113 202.84 278.67 193.418C277.503 168.581 278.489 168.576 276.092 168.727C273.095 168.916 270.116 168.585 267.281 167.529C260.558 165.027 261.578 143.08 262.64 136.815C263.456 131.997 269.603 129.765 272.68 135.1C275.818 140.54 270.764 156.076 275.828 157.744C278.349 158.574 277.051 156.892 277.452 146.962C277.739 139.881 277.425 126.415 280.935 120.993C284.037 116.202 300.302 107.832 297.538 143.408ZM284.831 130.807C284.63 128.423 281.247 128.687 281.326 130.879C281.406 133.166 284.663 133.343 284.831 130.807ZM268.38 139.861C265.291 139.675 265.955 143.919 268.369 143.965C270.545 144.005 271.47 140.047 268.38 139.861ZM293.277 126.331C292.492 124.432 290.475 124.818 290.596 126.643C290.718 128.523 293.166 128.416 293.277 126.331ZM290.426 135.591C287.675 135.451 287.949 139.428 290.396 139.568C292.72 139.701 293.248 135.55 290.426 135.591ZM307.866 148.717C305.628 148.55 305.095 152.309 307.622 152.34C310.548 152.375 309.997 148.73 307.866 148.717ZM284.533 170.892C284.571 168.789 281.187 168.832 281.287 171.025C281.382 173.111 284.65 173.388 284.533 170.892ZM285.639 120.208C284.177 120.312 284.101 122.444 285.82 122.519C287.14 122.575 287.54 120.073 285.639 120.208ZM285.249 155.071C285.38 152.923 282.027 152.592 282.038 154.957C282.049 157.322 285.298 156.881 285.249 155.071ZM292.032 162.283C292.134 159.572 288.111 160.08 288.133 161.97C288.162 164.419 291.93 164.994 292.032 162.283ZM265.758 149.518C267.938 149.534 267.525 146.523 265.543 146.61C264.185 146.67 263.721 149.649 265.758 149.518ZM307.218 161.411C305.188 161.544 305.296 164.373 307.174 164.373C308.051 164.373 308.777 164.026 308.85 162.962C308.929 161.817 308.076 161.659 307.22 161.411H307.218ZM293.881 142.263C293.757 140.371 291.229 140.613 291.187 142.375C291.151 143.907 293.828 144.285 293.881 142.263ZM289.752 181.386C288.049 181.284 287.644 184.034 289.63 184.318C291.067 184.523 291.868 181.514 289.752 181.386ZM270.36 157.826C270.375 155.716 267.801 155.9 267.878 157.748C267.943 159.363 270.347 159.716 270.36 157.826Z" fill="#38A1FF"/>
<path d="M334.206 43.5461C313.584 41.0116 314.734 40.8642 310.444 40.6675C265.516 38.6175 270.583 37.667 267.748 76.9838C267.567 79.4945 266.938 77.9524 252.63 88.6182C251.914 89.1518 251.071 89.8036 251.406 90.8214C251.768 91.9192 252.865 91.5059 253.63 91.4513C272.107 90.1332 274.856 88.1103 277.343 88.6802C300.676 94.0368 311.964 92.0249 318.792 92.806C324.418 93.4504 329.974 93.0609 335.507 92.2835C338.844 91.8154 341.192 90.0184 341.973 86.3988C343.014 81.5739 344.972 69.6026 344.947 59.1862C344.929 51.7904 346.467 45.0536 334.206 43.5461ZM332.871 59.4757C329.467 63.2682 328.28 65.9429 325.582 64.1113C328.757 66.5783 326.968 67.7929 324.947 70.391C322.928 73.0129 322.037 72.614 320.071 71.2121C321.65 72.5176 322.738 73.7648 321.599 75.4599C320.384 77.2715 320.148 77.8595 319.584 78.3839C317.278 80.5216 316.548 76.5796 311.603 75.7002C311.484 76.6069 311.269 77.2824 310.871 77.816C315.816 81.8123 312.452 89.1881 306.822 88.966C300.7 88.824 298.796 81.0932 303.047 77.7777C302.574 77.1058 302.536 76.4376 302.516 75.6783C297.144 76.5723 296.265 81.5885 293.472 77.1258C292.302 75.2578 290.868 73.792 293.009 71.6946C291.643 72.5903 290.663 72.7834 288.807 70.3854C287.098 68.1787 286.324 67.6526 286.479 66.3562C286.549 65.7754 286.939 64.9215 287.521 64.2788C285.627 65.333 284.555 64.1822 283.062 62.3997C280.933 59.8544 278.128 57.7132 280.899 55.5174C288.41 49.5326 300.844 47.488 302.452 47.7758C303.084 45.5909 305.349 45.9531 308.374 45.8876C309.812 45.8567 310.732 46.5175 311.079 47.7575C314.785 47.1968 337.879 53.897 332.871 59.4757Z" fill="#38A1FF"/>
<path d="M308.135 77.022C305.26 77.0166 304.449 77.3333 304.436 75.8969C304.292 58.1302 304.148 61.4494 304.214 49.0101C304.221 47.5937 304.418 47.8776 308.246 47.8158C309.469 47.7958 309.305 47.4517 309.447 54.3594C309.913 76.9655 310.316 77.0275 308.135 77.022Z" fill="#38A1FF"/>
<path d="M302.844 51.1113C302.784 54.1519 303.226 56.9103 302.372 56.9922C294.971 57.6969 290.736 59.696 286.903 62.3997C285.729 63.2282 286.165 62.9041 281.954 58.1939C281.517 57.7078 281.565 57.4419 282.089 57.0267C286.685 53.3762 292.032 51.6375 297.693 50.3557C302.445 49.2796 302.879 49.3305 302.844 51.1113Z" fill="#38A1FF"/>
<path d="M306.866 87.0488C301.393 86.9214 301.074 78.3256 307.189 78.3858C312.658 78.4404 312.76 87.1853 306.866 87.0488Z" fill="#38A1FF"/>
<path d="M310.544 51.1113C310.604 54.1519 310.163 56.9103 311.017 56.9922C318.417 57.6969 322.652 59.696 326.486 62.3997C327.66 63.2282 327.223 62.9041 331.435 58.1939C331.871 57.7078 331.824 57.4419 331.3 57.0267C326.703 53.3762 321.356 51.6375 315.696 50.3557C310.944 49.2796 310.508 49.3305 310.542 51.1113H310.544Z" fill="#38A1FF"/>
<path d="M302.72 61.8502C302.68 64.0769 302.978 66.0924 302.401 66.1526C297.392 66.6787 294.528 68.1335 291.93 70.1144C291.134 70.7207 291.437 70.4804 288.578 67.0357C287.489 65.7228 294.016 62.573 299.234 61.2966C302.45 60.5101 302.744 60.5484 302.72 61.8502Z" fill="#38A1FF"/>
<path d="M311.026 61.8502C311.066 64.0769 310.769 66.0924 311.346 66.1526C316.355 66.6787 319.219 68.1335 321.817 70.1144C322.612 70.7207 322.309 70.4804 325.168 67.0357C326.258 65.7228 319.73 62.573 314.513 61.2966C311.296 60.5101 311.002 60.5484 311.026 61.8502Z" fill="#38A1FF"/>
<path d="M302.994 70.3145C302.967 72.0678 303.155 73.6574 302.786 73.7029C299.599 74.107 297.779 75.265 296.125 76.82C295.617 77.297 295.809 77.1076 293.993 74.3984C293.295 73.3587 297.483 70.8752 300.773 69.8812C302.819 69.2621 303.009 69.2894 302.992 70.3145H302.994Z" fill="#38A1FF"/>
<path d="M310.999 70.3145C311.026 72.0678 310.838 73.6574 311.207 73.7029C314.394 74.107 316.214 75.265 317.868 76.82C318.375 77.297 318.184 77.1076 320 74.3984C320.697 73.3587 316.51 70.8752 313.22 69.8812C311.174 69.2621 310.984 69.2894 311.001 70.3145H310.999Z" fill="#38A1FF"/>
<path d="M243.367 81.3029C238.46 79.9245 226.093 77.1097 221.376 79.0377C219.702 79.7224 217.811 86.4592 216.204 93.9076C217.475 93.2886 218.729 92.919 219.93 92.7587C222.06 81.0297 221.453 81.6341 226.211 81.8327C231.084 82.0348 235.85 83.0271 240.6 84.0631C241.854 84.3361 242.635 85.5833 242.343 86.827C240.063 96.5441 241.343 97.1705 237.506 116.976C236.901 120.094 236.337 119.968 224.965 118.06C224.068 119.32 222.759 120.296 221.193 120.869L221.263 121.168C225.908 122.071 230.68 122.524 235.364 122.755C238.866 122.928 239.939 122.116 240.551 118.719C246.489 85.7308 247.434 82.4463 243.367 81.3029Z" fill="#38A1FF"/>
<path d="M252.834 8.22035C250.16 1.55278 243.652 -0.650196 236.56 0.160032C236.522 0.16723 195.642 5.01227 184.494 7.19172C171.544 9.72423 160.305 16.0968 154.151 27.4764C153.04 29.5338 150.438 27.1851 145.305 30.4423C139.256 34.284 140.044 43.1237 146.097 47.6683C148.102 49.1685 147.983 48.859 147.247 53.7823C147.193 54.1427 146.782 54.1119 146.504 54.1536C134.575 56.0527 132.766 70.2125 143.573 74.6988C147.855 76.4759 146.594 78.8755 146.744 80.0335C147.036 82.3367 142.996 80.1864 139.601 85.5831C136.207 90.9797 138.503 98.3337 143.744 101.454C144.911 102.153 146.765 102.057 147.196 103.497C147.676 105.094 147.18 107.581 147.357 108.714C147.908 112.215 141.838 108.679 139.765 116.272C138.33 121.53 142.359 127.238 146.977 129.071C147.724 129.366 147.947 129.747 147.897 130.512C147.512 136.514 148.151 136.99 146.696 136.746C139.011 135.448 133.947 145.27 139.038 152.648C139.958 153.983 140.546 154.363 137.191 155.07C135.875 155.346 135.022 154.847 134.632 153.573C132.434 146.388 120.617 146.627 118.973 155.381C118.841 156.064 118.726 156.59 117.795 156.528C111.423 156.105 110.665 156.794 110.707 155.299C110.849 150.044 104.804 145.296 100.125 148.517C94.9258 152.095 97.0379 155.268 95.0957 154.651C93.4985 154.145 84.9333 153.591 82.4015 153.993C75.7366 155.061 99.2906 177.863 140.039 190.15C150.132 193.194 151.357 192.242 151.163 194.046C150.573 199.568 150.997 205.116 150.896 210.649C150.785 217.009 159.458 215.9 165.604 216.687C177.284 218.18 178.919 214.254 177.698 206.651C177.444 205.074 176.583 204.087 174.978 203.692C168.043 201.981 165.661 204.198 165.674 201.831C165.708 194.996 165.062 194.488 166.913 194.519C179.693 194.731 179.847 193.218 179.801 195.43C179.408 214.886 178.488 210.829 195.852 213.174C205.492 214.476 207.928 210.396 206.504 203.275C206.038 200.948 205.115 200.067 202.736 199.801C195.197 198.966 194.523 200.089 194.439 198.554C194.065 191.688 194.089 191.429 195.348 191.104C220.335 184.647 222.763 157.992 219.645 132.442C219.322 129.812 218.156 128.562 215.739 128.143C216.586 146.485 218.236 173.748 202.608 183.451C192.707 189.6 175.894 191.273 164.923 190.576C163.899 190.51 163.023 190.805 162.91 191.868C161.152 208.645 164.191 205.498 170.787 206.192C175.073 206.642 175.046 205.527 174.826 210.775C174.701 213.83 175.5 214.921 158.302 213.449C153.242 213.016 153.27 212.692 153.434 207.876C154.076 189.192 154.058 189.365 152.51 189.112C133.628 186.033 102.261 173.698 85.0976 156.699C87.4452 157.274 123.109 163.592 140.115 157.406C146.912 154.933 149.739 147.27 150.555 140.1C151.426 132.438 150.256 103.077 150.256 103.026C150.212 100.966 150.425 99.6628 152.503 98.6577C154.292 97.7893 155.301 95.9557 154.874 93.7745C153.998 89.2956 149.922 91.0763 149.894 88.4434C149.478 47.0765 147.238 17.1492 187.884 9.89909C196.924 8.28776 237.071 3.17868 240.507 3.36618C248.303 3.79228 250.362 9.66049 251.6 17.1455C252.6 23.194 252.412 37.6524 249.283 44.1323C244.147 54.7672 228.477 56.5569 223.473 57.4929C217.579 58.5944 211.703 59.7615 205.637 59.4011C203.136 59.2517 201.157 60.5189 199.518 62.3177C198.937 62.955 197.886 63.6961 198.722 64.5391C199.496 65.3183 200.204 64.1659 200.816 63.7326C203.379 61.9209 208.251 60.3242 208.074 63.452C207.92 66.2196 208.809 67.5634 211.082 68.0895C213.357 68.6157 215.635 68.5738 217.809 67.5288C221.4 65.8027 219.275 62.0447 220.091 61.3491C220.73 60.8047 221.58 61.0141 223.712 60.6355C226.213 60.1894 224.355 64.7029 228.661 65.2565C230.929 65.5442 235.781 65.2637 236.976 61.9172C237.769 59.6941 235.895 57.8916 237.369 57.4383C245.061 55.0822 251.861 49.3634 254.139 40.8496C256.414 32.3523 256.969 18.5456 252.827 8.2221L252.834 8.22035ZM146.528 71.5545C143.753 71.0664 140.999 67.7017 140.698 64.8304C140.402 61.9701 144.095 58.1556 147.019 57.5257C146.335 62.2122 146.552 66.8824 146.528 71.5545ZM147.233 98.8053C144.378 98.5593 142.264 94.7322 142.026 91.2401C141.829 88.3415 144.108 84.4651 146.948 84.3504C147.056 89.1718 147.357 93.984 147.233 98.8053ZM147.452 125.388C145.031 123.376 142.808 121.353 143.122 117.868C143.299 115.942 144.664 114.363 146.431 113.919C147.908 113.546 147.452 113.508 147.452 125.388ZM182.395 196.105C182.389 194.011 182.535 193.866 183.47 193.66C185.81 193.143 188.249 193.192 190.534 192.378C191.267 192.118 191.226 192.586 191.219 193.085C191.073 204.111 192.274 201.866 202.232 202.833C204.107 203.013 203.917 204.056 203.722 207.523C203.503 211.423 200.874 210.518 189.445 209.957C182.541 209.615 182.21 209.082 182.179 206.465C182.114 200.926 182.398 197.147 182.395 196.105ZM106.77 156.047C99.0643 155.002 99.1811 155.441 99.515 154.256C99.8692 152.996 101.731 151.374 102.991 151.111C105.897 150.509 107.547 154.766 107.574 154.804C108.305 155.894 107.963 156.209 106.77 156.047ZM126.09 156.592C123.496 156.592 121.607 157.018 122.688 155.221C125.139 151.157 130.019 151.559 131.647 155.294C132.12 156.384 131.99 156.117 126.09 156.592ZM147.278 141.323C143.344 164.432 135.404 140.713 146.42 139.934C147.174 139.799 147.459 140.263 147.278 141.323ZM150.789 92.0977C152.435 92.7494 153.001 94.4956 151.904 95.8866C151.462 96.4456 150.813 96.8443 150.011 97.5216C150.011 91.9903 149.734 91.6788 150.789 92.0977ZM151.72 32.5472C150.65 35.2837 148.814 41.8584 148.507 44.7787C148.292 46.8052 144.756 42.2497 144.427 38.5809C144.365 33.1079 152.713 30.0036 151.72 32.5472ZM214.917 65.5588C210.823 66.6257 209.499 64.4153 209.795 62.5528C209.888 61.9501 209.906 62.0738 213.105 62.0738C216.976 61.7589 217.223 61.5022 217.223 62.6C217.219 64.9489 217.258 64.9489 214.917 65.5588ZM233.13 62.0466C229.791 62.9023 227.937 63.942 227 60.0584C229.202 59.6632 231.421 59.3519 233.561 58.6928C235.359 58.1356 234.526 61.6844 233.13 62.0466Z" fill="#191919"/>
<path d="M223.864 104.175C225.253 105.169 227.504 106.409 226.697 109.134C225.396 113.524 222.04 110.6 222.387 113.561C222.805 117.131 217.891 118.731 215.41 116.654C212.792 114.464 213.225 112.643 211.535 112.689C205.936 112.841 204.255 112.51 189.812 111.76C182.108 111.359 185.987 107.718 198.702 109.204C213.698 110.957 210.711 108.339 216.588 114.393C217.519 115.352 219.987 115.494 219.654 112.535C219.386 110.136 219.386 110.127 221.651 109.753C222.675 109.584 223.72 109.373 223.86 108.146C224.205 105.142 217.466 106.689 221.451 102.964C222.347 102.126 223.177 100.819 222.513 99.8323C221.666 98.5741 217.519 99.8013 215.848 101.682C214.178 103.563 211.411 103.088 202.787 102.177C195.126 101.369 187.91 101.755 188.16 99.8596C188.41 97.9642 209.185 99.885 210.248 100.151C215.335 101.424 215.617 96.717 221.034 96.5166C225.525 96.3492 227.685 100.593 223.862 104.178L223.864 104.175Z" fill="#191919"/>
<path d="M194.083 73.761C207.86 73.9448 238.526 71.6561 242.139 58.3921C242.35 57.613 242.308 56.4003 243.389 56.5187C245.014 56.699 248.681 75.6892 198.054 76.4884C195.334 76.5321 181.468 76.0587 181.519 74.3163C181.542 73.5134 181.499 73.5935 194.083 73.761Z" fill="#191919"/>
<path d="M209.926 94.3171C208.139 89.9945 208.844 89.1662 207.555 86.1C205.927 82.2237 203.902 78.3966 202.283 78.899C200.929 79.3197 202.802 83.713 207.031 96.4709C207.688 98.4554 210.058 94.6357 209.926 94.3171Z" fill="#191919"/>
<path d="M164.491 44.4711C164.498 49.6601 158.019 53.1341 155.509 49.6146C153.62 46.9655 155.739 41.0662 158.865 40.1796C162.15 39.2474 164.487 41.0281 164.491 44.4711ZM156.937 47.0236C156.862 49.1502 158.573 49.3033 159.553 48.6624C162.276 46.8835 162.674 43.1347 160.953 42.4646C158.687 41.5815 156.993 45.4232 156.937 47.0236Z" fill="#191919"/>
<path d="M165.935 79.875C166.261 84.7727 161.294 89.1862 158.554 84.4686C157.181 82.1036 158.012 77.3788 160.128 75.538C163.26 72.8124 166.342 76.869 165.935 79.875ZM163.826 80.0971C164.034 76.6815 161.864 75.711 160.679 77.3023C159.394 79.0302 158.808 81.0948 159.752 83.0702C161.393 86.5097 163.866 83.0831 163.826 80.0971Z" fill="#191919"/>
<path d="M180.573 23.0739C174.786 22.5404 184.279 19.3669 187.442 17.7882C190.94 16.0422 191.124 13.8812 192.433 14.9518C194.187 16.3882 189.731 22.7115 180.573 23.0739Z" fill="#191919"/>
<path d="M163.536 111.834C163.567 118.164 156.285 118.351 155.309 112.149C154.573 107.483 159.808 104.943 162.417 108.675C163.094 109.644 163.722 110.702 163.536 111.834ZM157.101 111.366C157.108 116.605 163.164 115.6 160.81 110.549C159.46 107.65 156.92 108.879 157.101 111.366Z" fill="#191919"/>
<path d="M116.463 165.746C116.344 162.504 122.323 161.357 124.559 164.614C128.471 170.315 116.262 172.765 116.463 165.746ZM120.435 164.925C119.338 164.925 118.248 165.635 118.253 166.342C118.259 167.128 119.723 168.095 120.917 168.126C123.892 168.204 123.411 164.925 120.435 164.925Z" fill="#191919"/>
<path d="M194.375 45.3612C194.368 52.4458 184.08 51.437 190.513 40.924C192.187 38.1875 194.719 43.2346 194.375 45.3612ZM191.44 42.6393C190.044 46.7268 189.593 47.4624 190.682 47.6936C192.575 48.096 192.01 44.4655 191.44 42.6393Z" fill="#191919"/>
<path d="M151.711 167.139C146.762 170.782 142.428 167.58 144.529 164.568C149.096 158.019 156.479 163.629 151.711 167.139ZM147.054 167.115C149.52 167.168 152.099 164.421 150.409 163.734C147.578 162.582 143.801 167.046 147.054 167.115Z" fill="#191919"/>
<path d="M195.657 31.1069C195.122 34.9141 190.613 34.4917 189.989 31.2071C188.704 24.4449 196.527 24.9165 195.657 31.1069Z" fill="#191919"/>
<path d="M187.765 67.2665C179.954 67.0135 188.351 55.9544 189.425 59.0678C190.153 61.1816 191.022 63.3702 190.255 65.6843C189.839 66.9389 188.87 67.4342 187.765 67.2665ZM187.754 61.3565C186.769 61.9901 186.575 63.0533 186.108 63.9583C185.299 65.526 188.643 66.1122 188.302 64.2624C188.125 63.3028 187.942 62.347 187.754 61.3565Z" fill="#191919"/>
<path d="M157.037 142.794C157.185 140.023 158.757 137.456 161.174 137.917C163.406 138.343 164.129 142.936 161.34 145.263C159.551 146.756 156.869 145.922 157.037 142.794ZM161.386 141.516C161.506 137.509 157.84 141.287 158.868 143.512C159.818 145.565 161.369 142.029 161.386 141.516Z" fill="#191919"/>
<path d="M165.819 131.307C161.948 131.176 161.783 125.412 165.743 125.565C169.591 125.714 170.264 131.457 165.819 131.307ZM166.77 128.471C165.558 126.877 164.503 127.196 164.573 128.287C164.668 129.783 166.844 129.589 166.77 128.471Z" fill="#191919"/>
<path d="M247.604 12.7592C247.712 15.7525 244.771 15.8454 244.033 13.8263C242.531 9.72052 246.45 7.91063 247.604 12.7592Z" fill="#191919"/>
</svg>
