<svg width="273" height="286" viewBox="0 0 273 286" fill="none" xmlns="http://www.w3.org/2000/svg">
<path d="M188.084 105.21C186.977 95.7095 184.008 86.099 177.774 78.8495C171.54 71.6 161.379 67.1975 152.124 69.7175C148.387 70.7345 147.516 72.431 147.237 75.2105C146.778 79.8095 147.775 84.4865 146.916 89.051C146.064 93.5825 142.458 98.2475 137.856 97.862C133.506 97.499 130.713 92.942 129.829 88.6595C129.717 87.0509 129.107 85.5172 128.082 84.272C126.694 83.018 124.585 83.201 122.731 82.922C121.096 82.6544 119.555 81.9733 118.256 80.9431C116.958 79.913 115.944 78.5681 115.311 77.036C114.372 74.663 114.177 74.0225 111.493 73.79C107.535 73.2227 103.506 73.4044 99.615 74.3255C94.8583 75.9326 90.7934 79.1164 88.0935 83.3495C83.4105 90.2495 80.2605 102.836 78.6435 111.032C78.1335 113.606 78.3735 114.687 80.1765 116.382C85.1265 121.032 91.848 122.6 98.6265 123.837C101.613 124.391 104.659 124.559 107.688 124.337C108.223 123.801 107.988 121.055 108.045 120.128C108.157 117.513 108.552 114.917 109.221 112.386C109.371 111.853 110.079 112.065 110.041 112.601C109.957 116.8 109.621 120.991 109.035 125.15C109.01 125.327 108.942 125.494 108.836 125.638C108.73 125.781 108.589 125.895 108.427 125.97C107.062 126.451 105.63 126.715 104.182 126.755C105.75 141.2 105 145.025 110.746 158.327C113.169 163.929 124.516 163.852 129.973 163.928C137.151 164.034 144.286 162.814 151.02 160.328C153.72 159.324 154.518 158.604 155.52 155.405C160.92 138.068 161.412 124.227 161.94 121.587C160.264 122.265 158.542 122.81 157.125 123.371C156.903 123.433 156.666 123.405 156.466 123.292C156.265 123.18 156.117 122.992 156.054 122.771C154.92 118.957 154.284 115.012 154.164 111.035C154.164 110.499 155.029 110.355 155.127 110.892C155.763 114.413 156.519 117.92 157.482 121.344C163.669 118.819 164.658 117.929 166.363 117.312C187.876 107.649 187.398 108.027 187.873 107.253C188.17 106.615 188.244 105.896 188.084 105.21Z" fill="#38A1FF"/>
<path d="M128.94 73.748C128.918 73.2128 129.016 72.6795 129.225 72.1866C129.435 71.6938 129.751 71.2536 130.152 70.898C130.361 70.72 130.603 70.5858 130.865 70.5035C131.126 70.4213 131.402 70.3926 131.675 70.4192C131.948 70.4458 132.213 70.5271 132.454 70.6584C132.695 70.7896 132.907 70.968 133.077 71.183C133.397 71.471 134.031 71.183 133.862 70.7195C133.701 70.3983 133.476 70.1133 133.201 69.882C132.926 69.6507 132.607 69.478 132.263 69.3744C131.919 69.2709 131.558 69.2388 131.201 69.28C130.844 69.3212 130.499 69.4348 130.188 69.614C129.448 70.0008 128.843 70.6039 128.454 71.3429C128.066 72.082 127.911 72.922 128.012 73.751C128.019 73.8696 128.071 73.9809 128.157 74.0622C128.244 74.1435 128.358 74.1885 128.477 74.1881C128.596 74.1878 128.71 74.142 128.796 74.0601C128.882 73.9783 128.934 73.8666 128.94 73.748Z" fill="black"/>
<path d="M138.5 77.102C136.799 78.4826 134.83 79.4935 132.717 80.07C130.604 80.6464 128.394 80.7759 126.228 80.45C120.954 79.937 118.806 78.965 116.954 73.85C113.891 65.399 113.315 55.9115 113.315 47C113.301 46.9015 113.253 46.8112 113.178 46.7458C113.103 46.6804 113.007 46.6444 112.907 46.6444C112.808 46.6444 112.712 46.6804 112.637 46.7458C112.562 46.8112 112.513 46.9015 112.5 47C112.165 52.5869 112.427 58.1935 113.28 63.725C113.984 68.399 114.732 74.0405 117.56 77.993C119.835 81.173 123.804 81.725 127.478 81.917C129.624 82.1418 131.793 81.8872 133.828 81.1715C135.864 80.4558 137.715 79.2969 139.248 77.7785C139.713 77.351 138.992 76.6655 138.5 77.102Z" fill="black"/>
<path d="M122.447 55.484C122.447 55.4279 122.435 55.3723 122.414 55.3204C122.393 55.2686 122.361 55.2214 122.321 55.1817C122.282 55.142 122.234 55.1105 122.183 55.0891C122.131 55.0676 122.075 55.0565 122.019 55.0565C121.963 55.0565 121.907 55.0676 121.855 55.0891C121.804 55.1105 121.756 55.142 121.717 55.1817C121.677 55.2214 121.646 55.2686 121.624 55.3204C121.603 55.3723 121.592 55.4279 121.592 55.484C121.501 56.8092 121.358 58.1302 121.163 59.444C121.049 60.194 120.551 61.3715 120.806 62.1545C121.226 63.4415 123.983 62.945 124.908 62.7965C125.002 62.7654 125.083 62.7056 125.141 62.6257C125.198 62.5457 125.229 62.4496 125.229 62.351C125.229 62.2524 125.198 62.1563 125.141 62.0764C125.083 61.9964 125.002 61.9366 124.908 61.9055C124.236 61.8028 123.556 61.7552 122.876 61.763C122.804 61.763 121.947 61.8695 121.841 61.763C121.893 61.3409 121.976 60.9232 122.091 60.5135C122.413 58.8576 122.532 57.1687 122.447 55.484ZM117.846 50.027C116.775 50.027 116.486 51.1325 117.246 51.845C117.936 52.4975 118.979 53.435 119.708 52.8095C119.873 52.6579 119.978 52.4519 120.004 52.2292C120.03 52.0065 119.976 51.7818 119.85 51.596C119.489 50.9525 118.701 50.027 117.846 50.027ZM129.332 52.559C129.71 52.3882 130.059 52.1594 130.367 51.881C130.521 51.7456 130.638 51.5729 130.707 51.3794C130.775 51.1858 130.793 50.9779 130.758 50.7755C130.437 49.6235 128.145 50.396 127.548 51.275C127.05 52.0205 127.635 53.4065 129.332 52.559ZM133.613 42.8555C131.832 43.43 130.958 45.9365 129.153 45.4955C128.453 45.2233 127.846 44.7545 127.406 44.1455C127.325 44.0675 127.219 44.0214 127.107 44.016C126.995 44.0106 126.885 44.0462 126.798 44.1161C126.71 44.186 126.651 44.2855 126.631 44.3958C126.612 44.5061 126.633 44.6198 126.692 44.7155C127.496 46.0655 128.759 47.384 130.473 46.928C131.302 46.6411 132.063 46.1894 132.712 45.6001C133.362 45.0107 133.885 44.296 134.25 43.499C134.272 43.4107 134.27 43.3184 134.246 43.2308C134.222 43.1431 134.176 43.0632 134.112 42.9986C134.048 42.9341 133.968 42.887 133.881 42.8619C133.793 42.8369 133.701 42.8347 133.613 42.8555ZM119.022 44.5325C118.317 44.6393 117.653 44.9341 117.101 45.3859C116.548 45.8378 116.128 46.4301 115.884 47.1005C115.734 47.564 116.345 48.0965 116.775 47.7785C117.413 47.309 117.993 46.4405 118.773 46.2095C119.673 45.944 120.198 47.0675 120.699 47.672C121.055 48.101 121.731 47.6375 121.599 47.1365C121.263 45.962 120.414 44.4965 119.022 44.5325ZM162.114 24.6635C161.663 24.7937 161.249 25.0296 160.907 25.3518C160.564 25.674 160.304 26.0731 160.147 26.516C159.99 26.9589 159.941 27.4329 160.004 27.8985C160.067 28.3642 160.24 28.8081 160.509 29.1935C160.578 29.2943 160.678 29.3697 160.794 29.408C160.932 29.9213 161.249 30.3685 161.687 30.6693C162.125 30.9701 162.656 31.1047 163.185 31.049C164.007 30.8429 164.727 30.3467 165.212 29.6519C165.697 28.957 165.915 28.1102 165.825 27.2675C165.781 26.8399 165.646 26.4266 165.428 26.0558C165.211 25.6851 164.916 25.3654 164.564 25.1184C164.212 24.8715 163.811 24.7031 163.388 24.6246C162.966 24.5461 162.531 24.5594 162.114 24.6635ZM163.898 29.444C162.275 31.067 161.01 27.794 161.901 26.5535C162.084 26.3725 162.306 26.236 162.55 26.1543C162.794 26.0727 163.053 26.0482 163.308 26.0827C163.563 26.1172 163.807 26.2098 164.02 26.3533C164.234 26.4968 164.411 26.6875 164.54 26.9105C164.659 27.3533 164.663 27.8195 164.551 28.2643C164.438 28.7091 164.213 29.1174 163.898 29.45V29.444ZM172.674 30.62C172.693 30.5293 172.684 30.4352 172.65 30.3492C172.616 30.2632 172.557 30.1891 172.481 30.1362C172.405 30.0832 172.315 30.0536 172.223 30.0511C172.13 30.0486 172.039 30.0733 171.96 30.122C168.06 32.5955 169.839 38.876 173.244 37.934C176.99 36.896 175.491 30.371 172.674 30.62ZM171.533 36.1145C171.154 35.4848 170.965 34.7587 170.991 34.0242C171.016 33.2896 171.254 32.5782 171.675 31.976C171.863 32.0705 174.42 31.7345 174.386 34.367C174.368 35.7575 173.04 38.2475 171.533 36.1145ZM182.198 26.519C181.398 27.5309 180.848 28.7175 180.594 29.982C180.34 31.2465 180.388 32.5532 180.735 33.7955C181.185 35.4455 181.913 36.8975 183.66 37.256C184.32 37.4453 185.019 37.4489 185.681 37.2663C186.342 37.0837 186.941 36.722 187.41 36.221C189.483 33.8345 190.682 27.917 188.76 25.121C187.076 22.6715 182.912 23.915 182.198 26.519ZM188.013 29.519C187.953 31.619 187.298 35.603 184.517 35.798C182.162 35.963 181.596 32.3735 181.77 30.6245C181.871 29.5467 182.225 28.508 182.804 27.593C183.483 27.593 183.225 26.594 184.589 25.952C185.709 25.1465 188.108 26.1005 188.013 29.5145V29.519ZM255.683 18.992C255.611 18.956 255.54 18.992 255.468 18.992C255.46 16.1292 254.812 13.3044 253.572 10.7243C252.331 8.14423 250.529 5.87425 248.298 4.08051C241.991 -0.600986 232.032 -0.948986 226.11 4.54401C221.829 2.11851 216.729 0.837515 212.16 2.58201C206.739 4.65501 203.171 9.00352 203.562 14.8175C190.485 23.453 187.362 44.195 199.281 55.1675C198.485 57.7402 198.315 60.4656 198.783 63.1175C199.658 67.5557 201.859 71.6237 205.097 74.783C210.816 80.333 220.757 81.383 226.247 75.1745C234.975 79.8095 248.036 75.6245 251.789 64.01C251.819 63.9412 251.831 63.8659 251.825 63.7909C251.819 63.716 251.794 63.6438 251.753 63.581C259.601 61.2635 266.453 52.667 267.627 45.2465C269.175 35.474 266.955 21.809 255.683 18.992ZM266.135 45.317C265.292 50.0285 262.143 54.2045 258.75 57.482C256.908 59.3138 254.693 60.7271 252.255 61.6258C249.817 62.5245 247.215 62.8875 244.625 62.69C243.983 62.6495 243.875 63.6275 244.475 63.7955C246.505 64.3357 248.639 64.3604 250.682 63.8675C249.801 66.0915 248.484 68.1165 246.808 69.8231C245.132 71.5298 243.131 72.8835 240.923 73.8044C238.716 74.7254 236.346 75.1948 233.954 75.1851C231.562 75.1754 229.197 74.6868 226.997 73.748C226.927 73.6449 226.83 73.5634 226.717 73.513C226.603 73.4626 226.478 73.4453 226.355 73.463C225.411 72.9982 224.504 72.4616 223.643 71.858C223.101 71.4755 222.611 72.284 223.001 72.7145C223.611 73.3821 224.293 73.9802 225.035 74.498C215.535 82.0955 202.901 75.248 200.171 63.26C199.091 58.5185 200.585 54.176 202.632 49.955C202.689 49.8556 202.704 49.7377 202.673 49.6273C202.643 49.5168 202.57 49.423 202.471 49.3663C202.371 49.3096 202.253 49.2947 202.143 49.325C202.033 49.3552 201.939 49.4281 201.882 49.5275C201.029 50.9358 200.301 52.4159 199.706 53.951C197.09 51.0253 195.206 47.5209 194.207 43.7257C193.209 39.9305 193.125 35.9526 193.962 32.1185C194.714 28.093 196.495 24.3308 199.134 21.1988C201.772 18.0668 205.177 15.6719 209.016 14.2475C209.481 14.0735 209.616 13.2575 209.016 13.1765C207.458 13.0483 205.899 13.4102 204.557 14.2115C204.711 11.7685 205.627 9.43545 207.177 7.5408C208.727 5.64615 210.833 4.28536 213.197 3.65001C218.946 1.85001 225.231 5.16952 229.397 8.92852C230.184 9.63952 231.395 8.46501 230.574 7.75251C229.459 6.77618 228.266 5.8932 227.007 5.11251C230.104 2.9435 233.814 1.82197 237.594 1.91184C241.374 2.00171 245.027 3.29827 248.018 5.61201C253.901 10.3955 254.352 18.095 253.868 25.124C253.87 25.2377 253.914 25.3466 253.991 25.4306C254.067 25.5146 254.172 25.568 254.285 25.581C254.398 25.594 254.511 25.5657 254.605 25.5012C254.699 25.4368 254.766 25.3407 254.795 25.2305C255.253 23.4842 255.481 21.6855 255.473 19.88C265.706 23.9855 267.909 35.405 266.135 45.317Z" fill="black"/>
<path d="M235.992 22.0594C212.367 23.0989 217.092 22.3745 206.705 22.487C206.627 22.4893 206.551 22.51 206.482 22.5472C206.414 22.5845 206.356 22.6373 206.312 22.7015C206.252 22.6751 206.186 22.6655 206.121 22.6737C206.056 22.6819 205.995 22.7076 205.944 22.748C205.892 22.7883 205.853 22.8419 205.83 22.9029C205.807 22.964 205.801 23.0302 205.812 23.0944C206.894 36.8794 207.579 50.7019 207.704 64.5454C207.706 64.7716 207.797 64.9877 207.958 65.1475C208.118 65.3073 208.334 65.3981 208.56 65.4004C214.131 64.9009 219.761 64.6399 225.36 64.4375C229.533 64.2874 234.135 63.7249 238.308 64.2949C238.475 64.3203 238.646 64.308 238.808 64.2589C239.271 64.367 239.814 64.1524 239.771 63.5464C238.805 50.0839 238.121 36.5704 236.988 23.0944C236.993 22.9604 236.971 22.8267 236.924 22.7013C236.876 22.5759 236.804 22.4615 236.711 22.3648C236.617 22.2682 236.506 22.1913 236.382 22.1388C236.259 22.0863 236.126 22.0593 235.992 22.0594ZM225.683 62.5475C220.26 62.7515 214.802 62.9749 209.381 63.581C208.916 50.204 208.274 36.8269 206.741 23.5219C213.024 24.7879 221.291 24.2719 235.136 24.0574C236.348 36.7924 237.062 49.5574 238.136 62.333C233.985 62.0968 229.823 62.1685 225.683 62.5475ZM244.95 33.2599C244.918 33.4124 244.945 33.5716 245.026 33.7047C245.107 33.8378 245.236 33.9348 245.386 33.9759C245.537 34.017 245.697 33.9989 245.835 33.9255C245.972 33.852 246.077 33.7288 246.126 33.581C246.876 31.598 248.909 31.0069 250.764 30.8344C252.761 30.6499 254.064 30.9004 254.973 33.0469C256.491 36.6049 254.51 39.0469 251.406 40.3969C250.016 40.9969 248.375 41.324 247.589 42.7145C246.663 44.357 247.32 46.4239 247.412 48.1369C247.416 48.3188 247.484 48.4933 247.605 48.6293C247.726 48.7654 247.891 48.8542 248.071 48.88C248.251 48.9057 248.434 48.8667 248.588 48.7699C248.742 48.6731 248.857 48.5249 248.912 48.3515C249.13 47.3561 249.214 46.3361 249.162 45.3185C249.207 43.643 249.807 43.256 251.303 42.644C252.801 42.1124 254.191 41.3146 255.405 40.2889C257.786 38.0704 257.813 35.1455 256.653 32.228C254.714 27.3619 246.087 28.3099 244.95 33.2599ZM248.441 52.6999C248.181 52.6123 247.902 52.5984 247.634 52.6598C247.367 52.7211 247.122 52.8553 246.926 53.0475C246.73 53.2397 246.592 53.4823 246.525 53.7485C246.459 54.0146 246.468 54.2939 246.551 54.5554C246.598 54.711 246.679 54.8545 246.787 54.9758C246.895 55.097 247.029 55.1933 247.178 55.2578C247.327 55.3223 247.489 55.3535 247.651 55.3493C247.814 55.3451 247.974 55.3056 248.12 55.2334C248.421 55.2139 248.706 55.0899 248.926 54.883C249.146 54.676 249.287 54.3989 249.325 54.0992C249.363 53.7995 249.296 53.4959 249.134 53.2406C248.973 52.9852 248.728 52.7941 248.441 52.6999Z" fill="black"/>
<path d="M213.626 31.9054C216.252 32.2507 218.911 32.2744 221.544 31.9759C223.934 31.8904 227.294 32.4904 229.535 31.5844C230.142 31.3384 230.502 30.3274 229.749 29.9779C227.547 28.9579 224.327 29.6284 221.972 29.7289C219.163 29.6275 216.355 29.9157 213.626 30.5854C213.486 30.6302 213.364 30.7183 213.277 30.8369C213.19 30.9555 213.144 31.0986 213.144 31.2454C213.144 31.3923 213.19 31.5354 213.277 31.654C213.364 31.7726 213.486 31.8607 213.626 31.9054ZM220.545 41.2864C223.964 41.5068 227.397 41.3513 230.783 40.8229C231.71 40.6024 231.782 39.0079 230.783 38.8609C227.37 38.6294 223.943 38.7127 220.545 39.1099C218.167 39.1089 215.796 39.3843 213.482 39.9304C212.982 40.0714 212.949 40.8814 213.482 40.9654C215.823 41.2644 218.186 41.3717 220.545 41.2864ZM231.711 48.9499C229.217 48.2974 226.04 48.9889 223.506 49.0924C220.785 49.1306 218.069 49.3335 215.373 49.6999C215.233 49.7443 215.111 49.8321 215.024 49.9506C214.937 50.0692 214.89 50.2123 214.89 50.3592C214.89 50.5061 214.937 50.6492 215.024 50.7678C215.111 50.8863 215.233 50.9741 215.373 51.0184C218.069 51.3724 220.788 51.5159 223.506 51.4474C225.968 51.4474 229.398 51.9259 231.711 51.0184C231.927 50.9445 232.114 50.805 232.246 50.6196C232.378 50.4342 232.449 50.212 232.449 49.9842C232.449 49.7564 232.378 49.5342 232.246 49.3488C232.114 49.1634 231.927 49.0239 231.711 48.9499ZM147.45 36.7999C145.298 29.2716 140.674 22.687 134.324 18.1069C123.443 9.97394 118.628 22.6369 118.628 22.6369C110.174 18.7129 99.0255 21.1369 99.9345 36.8344C100.844 52.5319 126.15 37.9789 126.476 38.5114C128.417 41.6989 135.072 39.4114 135.072 39.4114C134.93 45.4399 142.028 46.3669 142.028 46.3669C141.906 52.3669 146.694 55.1089 149.163 52.4674C149.628 51.9694 150.156 51.4279 150.626 50.8969C151.965 49.3849 155.909 51.5059 153.8 57.6754C152.483 61.5289 150.411 61.9939 149.055 61.8124C148.865 61.7859 148.672 61.7972 148.486 61.8457C148.301 61.8942 148.127 61.979 147.974 62.0952C147.822 62.2114 147.694 62.3566 147.597 62.5225C147.501 62.6885 147.439 62.8718 147.414 63.0619L146.88 67.0564C146.889 67.0564 146.898 67.0528 146.904 67.0463C146.911 67.0399 146.915 67.0311 146.915 67.0219C146.772 68.0554 146.676 69.0919 146.559 70.0534C146.081 72.9786 145.985 75.9535 146.273 78.9034C146.337 79.3684 147.06 79.5814 147.165 79.0099C147.641 76.4074 147.8 73.7599 148.128 71.1259C148.337 69.4489 148.806 67.6309 149.091 65.8474C154.442 62.9569 164.973 56.5474 163.431 46.3699C161.618 34.3714 147.45 36.7999 147.45 36.7999ZM113.886 27.6949C111.315 27.7489 109.035 27.7669 107.073 29.7289C106.173 30.6995 105.542 31.8879 105.242 33.1768C104.941 34.4657 104.982 35.8106 105.36 37.0789C105.498 37.5799 104.778 37.7614 104.576 37.2934C103.962 35.8818 103.777 34.3209 104.043 32.8049C104.31 31.2889 105.017 29.8848 106.076 28.7674C107.963 26.7304 111.557 25.4029 114.137 26.7334C114.229 26.7933 114.3 26.8807 114.34 26.9832C114.379 27.0857 114.386 27.1982 114.358 27.3046C114.33 27.411 114.27 27.5059 114.185 27.576C114.1 27.6461 113.996 27.6877 113.886 27.6949ZM188.298 206.198C188.204 206.242 188.128 206.318 188.083 206.412C188.039 206.506 188.028 206.613 188.053 206.714C188.078 206.814 188.138 206.904 188.221 206.966C188.305 207.028 188.407 207.059 188.511 207.054C196.151 205.506 206.211 208.052 210.093 215.331C210.161 215.439 210.261 215.521 210.379 215.568C210.497 215.615 210.627 215.622 210.75 215.591C210.873 215.559 210.983 215.489 211.063 215.391C211.144 215.293 211.191 215.172 211.199 215.045C211.001 210.981 205.874 208.295 202.602 206.945C198.047 205.125 193.018 204.862 188.298 206.198ZM216.657 215.973C216.718 216.07 216.808 216.145 216.914 216.188C217.02 216.231 217.137 216.239 217.248 216.211C217.358 216.183 217.458 216.121 217.531 216.033C217.604 215.946 217.648 215.837 217.656 215.723C217.584 209.159 210.584 204.144 204.707 203.096C204.135 202.992 203.889 203.799 204.458 203.951C207.378 204.709 210.047 206.222 212.198 208.338C214.301 210.552 215.261 213.282 216.657 215.973ZM222.258 212.87C222.581 213.47 223.44 213.047 223.328 212.441C222.071 205.691 214.341 201.288 208.061 200.526C207.461 200.453 207.311 201.488 207.918 201.597C214.521 202.787 219.15 207.05 222.258 212.87ZM192.3 198.993C188.839 198.841 185.408 199.688 182.416 201.434C179.424 203.18 176.998 205.75 175.428 208.838C175.145 209.375 175.901 210.093 176.355 209.552C180.936 204.095 186.105 199.802 193.62 200.813C193.75 200.81 193.877 200.778 193.992 200.72C194.108 200.661 194.209 200.577 194.288 200.475C194.366 200.372 194.421 200.253 194.448 200.126C194.474 199.999 194.472 199.868 194.441 199.742C178.812 160.38 181.637 169.107 167.259 121.592C167.221 121.475 167.139 121.377 167.03 121.318C166.922 121.259 166.795 121.244 166.676 121.276C166.557 121.309 166.455 121.385 166.39 121.491C166.326 121.596 166.305 121.722 166.331 121.842C175.872 155.774 176.933 161.358 192.3 198.993ZM205.278 197.852C205.363 197.993 205.499 198.097 205.657 198.143C205.815 198.189 205.985 198.174 206.133 198.101C210.541 197.808 214.958 198.526 219.047 200.201C222.156 201.632 224.946 203.672 227.252 206.201C227.751 206.699 228.452 206.06 228.179 205.487C226.61 202.257 222.972 200.099 219.761 198.737C215.477 197.008 210.826 196.395 206.241 196.953C199.782 183.791 197.456 142.682 186.872 111.233C186.656 110.592 185.646 110.88 185.837 111.519C197.775 151.605 198.021 186.093 205.278 197.852ZM55.704 222.929C59.628 215.579 69.933 213.104 77.571 214.653C77.6751 214.659 77.7778 214.628 77.8615 214.566C77.9453 214.504 78.0049 214.414 78.0302 214.313C78.0556 214.212 78.045 214.105 78.0004 214.011C77.9557 213.917 77.8798 213.841 77.7855 213.797C72.9934 212.484 67.9072 212.734 63.267 214.511C59.949 215.829 54.6345 218.504 54.567 222.611C54.552 223.214 55.455 223.464 55.704 222.929ZM48.642 223.964C50.0385 221.273 51.033 218.579 53.172 216.329C55.3588 214.205 58.0651 212.692 61.02 211.941C61.5885 211.791 61.3425 210.986 60.7695 211.086C54.861 212.12 47.7315 217.077 47.643 223.713C47.6509 223.828 47.6946 223.936 47.768 224.024C47.8414 224.112 47.9406 224.174 48.0516 224.202C48.1625 224.229 48.2793 224.221 48.3854 224.179C48.4915 224.136 48.5813 224.061 48.642 223.964ZM57.096 208.517C50.781 209.267 42.8955 213.603 41.6145 220.431C41.5839 220.567 41.6025 220.709 41.6669 220.831C41.7314 220.954 41.8376 221.05 41.9664 221.102C42.0952 221.154 42.2382 221.158 42.3697 221.113C42.5012 221.069 42.6127 220.979 42.684 220.86C45.96 215.066 50.601 210.971 57.234 209.588C57.849 209.46 57.702 208.446 57.096 208.517ZM38.511 213.903C40.9181 211.307 43.8315 209.232 47.0715 207.804C51.1648 206.199 55.5618 205.517 59.949 205.806C60.0215 205.847 60.1014 205.873 60.184 205.882C60.2665 205.891 60.3501 205.884 60.4298 205.861C60.5095 205.837 60.5838 205.799 60.6483 205.746C60.7129 205.694 60.7663 205.629 60.8055 205.556C64.146 200.589 65.0415 194.069 66.156 188.291C70.4625 165.969 72.9525 142.079 80.4255 119.195C80.6355 118.551 79.6275 118.262 79.3905 118.908C74.085 133.365 71.5635 148.556 68.868 163.713C63.9945 191.108 63.2655 197.642 59.7705 204.629C55.0384 204.045 50.2356 204.684 45.8205 206.484C42.6825 207.809 39.078 209.909 37.545 213.119C37.2975 213.761 38.007 214.4 38.511 213.903ZM72.6495 208.517C80.2395 207.494 85.632 211.667 90.1635 217.257C90.5955 217.79 91.3845 217.107 91.092 216.543C89.4933 213.424 87.0255 210.834 83.9867 209.087C80.948 207.34 77.4683 206.51 73.968 206.697C88.9965 170.397 90.018 165.621 100.368 129.503C100.401 129.38 100.384 129.249 100.32 129.138C100.256 129.028 100.151 128.947 100.028 128.914C99.9052 128.881 99.7739 128.898 99.6635 128.962C99.5531 129.026 99.4725 129.131 99.4395 129.254C86.2665 172.604 86.8395 170.667 71.865 207.411C71.8212 207.537 71.808 207.671 71.8265 207.802C71.8451 207.934 71.8949 208.059 71.9717 208.167C72.0485 208.275 72.1501 208.363 72.2681 208.424C72.386 208.485 72.5168 208.517 72.6495 208.517ZM80.961 257.888C76.965 247.688 72.6885 237.302 66.585 228.137C66.4154 227.806 66.1422 227.54 65.8072 227.379C65.4721 227.218 65.0937 227.172 64.7295 227.246C59.0026 228.55 53.3647 230.218 47.85 232.239C42.5745 233.928 37.2 235.76 32.013 237.804C31.894 237.833 31.7823 237.886 31.6854 237.961C31.5885 238.035 31.5086 238.13 31.4512 238.238C31.3937 238.346 31.3599 238.465 31.352 238.587C31.3441 238.709 31.3624 238.831 31.4055 238.946C36.981 249.087 42.003 259.559 46.7805 270.087C46.8134 270.18 46.8655 270.264 46.9333 270.335C47.0012 270.406 47.0832 270.462 47.1741 270.499C47.265 270.536 47.3627 270.554 47.4608 270.551C47.559 270.547 47.6553 270.523 47.7435 270.48C50.121 270.48 62.9655 265.577 64.6515 264.986C69.7515 263.201 75.033 261.633 80.0265 259.529C81.1035 259.172 81.138 258.53 80.961 257.888ZM63.339 263.631C58.3425 265.407 53.0655 266.841 48.213 269.018C43.4685 258.743 38.2965 248.756 32.589 239.018C38.082 237.668 43.389 235.553 48.789 233.846C54.2085 232.128 59.8815 230.996 65.1615 228.923C65.982 228.602 75.579 247.758 78.717 257.996C73.5405 259.635 68.472 261.8 63.339 263.631Z" fill="black"/>
<path d="M32.3745 257.6C27.219 256.06 21.9585 254.75 16.7865 253.391C11.8995 252.109 6.94047 250.541 1.94698 249.718C6.37198 243.308 9.30597 237.217 19.0695 225.104C19.775 223.962 20.5871 222.889 21.495 221.9C21.9105 221.627 21.9345 221.75 24.705 222.436C26.703 222.935 28.701 223.328 30.705 223.756C36.3765 224.969 42.1875 226.832 47.97 227.323C48.4335 227.362 48.435 226.714 48.0765 226.573C41.685 224.069 36.06 223.796 23.463 220.687C22.926 220.553 21.57 219.899 21.108 220.436C14.1285 228.667 7.73955 237.38 1.98898 246.512C1.50022 247.219 1.05924 247.959 0.668975 248.725C0.184475 249.893 0.637474 250.388 1.77447 250.793C4.71297 251.843 31.836 259.03 31.989 259.07C32.0855 259.095 32.1861 259.101 32.2849 259.088C32.3838 259.074 32.479 259.041 32.5652 258.991C32.6513 258.941 32.7267 258.874 32.787 258.794C32.8473 258.715 32.8914 258.624 32.9167 258.528C32.942 258.431 32.9481 258.331 32.9345 258.232C32.921 258.133 32.8881 258.038 32.8377 257.952C32.7874 257.865 32.7206 257.79 32.6411 257.73C32.5616 257.669 32.471 257.625 32.3745 257.6ZM122.946 249.932C124.721 248.09 126.235 246.014 127.446 243.761C128.926 241.397 130.557 239.165 132.048 236.842C132.144 236.67 132.175 236.469 132.136 236.276C132.096 236.083 131.989 235.911 131.834 235.79C131.679 235.669 131.485 235.608 131.289 235.618C131.092 235.628 130.905 235.707 130.762 235.843C129.119 237.812 127.673 239.939 126.447 242.192C125.173 244.232 123.771 246.223 122.559 248.327C122.407 248.238 122.235 248.189 122.059 248.185C110.209 248.167 98.5095 244.76 86.673 244.975C103.909 226.525 113.143 218.321 113.391 217.825C117.346 218.87 121.36 219.68 125.412 220.25C127.621 220.688 129.837 221.135 132.048 221.57C133.653 221.887 135.685 222.712 137.326 222.32C137.48 222.275 137.617 222.187 137.721 222.066C137.826 221.945 137.894 221.797 137.916 221.639C137.939 221.481 137.916 221.32 137.849 221.174C137.782 221.029 137.676 220.906 137.541 220.82C136.179 219.901 133.864 219.868 132.291 219.571C117.571 216.784 113.581 215.438 111.922 216.682C102.397 225.387 93.5264 234.783 85.3815 244.792C85.3247 244.86 85.2853 244.941 85.2668 245.028C85.2482 245.115 85.251 245.205 85.275 245.291C85.2449 245.369 85.2337 245.452 85.2423 245.535C85.2509 245.617 85.2789 245.697 85.3242 245.767C85.3694 245.836 85.4306 245.894 85.5026 245.936C85.5746 245.977 85.6555 246.001 85.7385 246.005C100.818 247.55 121.789 250.801 122.946 249.932Z" fill="black"/>
<path d="M187.441 243.869C171.541 223.576 168.523 220.831 164.641 214.619C164.403 214.237 164.076 214.227 163.642 214.368C151.507 218.313 139.615 223.202 127.72 227.924C127.258 228.108 126.868 228.811 127.363 229.208C134.806 235.192 146.448 248.9 153.582 257.39C154.443 258.414 155.058 255.71 186.651 246.046C188.038 245.621 188.053 244.649 187.441 243.869ZM129.403 228.886C140.818 224.249 152.304 219.611 164.076 215.974C166.644 221.003 170.526 225.358 174.028 229.774C177.7 234.413 181.341 239.113 185.052 243.724C185.126 243.813 185.177 243.919 185.199 244.033C185.221 244.147 185.214 244.264 185.178 244.375C185.142 244.485 185.079 244.585 184.995 244.664C184.911 244.743 184.807 244.8 184.695 244.829C174.365 247.949 164.228 251.677 154.338 255.993C146.596 246.615 138.678 236.77 129.403 228.886Z" fill="black"/>
<path d="M160.581 227.423C161.433 226.954 161.117 225.323 160.046 225.461C157.244 226.037 154.533 226.985 151.983 228.28C149.313 229.433 146.16 230.554 144.065 232.63C143.981 232.717 143.929 232.829 143.915 232.948C143.9 233.068 143.925 233.189 143.986 233.293C144.046 233.398 144.138 233.48 144.249 233.527C144.36 233.575 144.483 233.585 144.6 233.557C147.437 232.749 150.194 231.686 152.84 230.381C155.48 229.558 158.065 228.57 160.581 227.423ZM162.722 230.384C157.511 232.771 152.453 235.565 147.453 238.304C146.669 238.733 147.35 239.804 148.131 239.482C153.434 237.25 158.753 234.965 163.827 232.282C165.083 231.61 163.97 229.813 162.722 230.384ZM168.464 239.161C168.621 239.11 168.766 239.027 168.89 238.918C169.014 238.808 169.113 238.674 169.182 238.523C169.251 238.373 169.287 238.21 169.29 238.045C169.292 237.879 169.26 237.716 169.195 237.563C169.13 237.411 169.034 237.274 168.913 237.161C168.793 237.048 168.65 236.962 168.494 236.907C168.338 236.853 168.172 236.832 168.007 236.845C167.842 236.858 167.682 236.905 167.537 236.984C162.257 239.624 156.965 242.234 151.592 244.76C150.738 245.161 151.484 246.364 152.304 246.01C157.688 243.68 163.068 241.348 168.464 239.161ZM60.948 240.373C61.0649 240.249 61.144 240.095 61.1759 239.928C61.2078 239.761 61.1912 239.588 61.1281 239.43C61.065 239.273 60.958 239.136 60.8197 239.037C60.6815 238.938 60.5178 238.881 60.348 238.873C57.9225 238.756 55.3575 240.308 53.214 241.334C50.4081 242.532 47.6903 243.927 45.081 245.509C44.9241 245.608 44.8074 245.759 44.7518 245.936C44.6961 246.114 44.7051 246.305 44.7771 246.476C44.849 246.647 44.9794 246.787 45.1449 246.871C45.3104 246.955 45.5004 246.978 45.681 246.935C48.4225 246.182 51.0768 245.142 53.5995 243.832C55.95 242.794 58.95 242.125 60.948 240.373ZM66.549 247.151C66.727 247.041 66.8644 246.876 66.9405 246.681C67.0166 246.486 67.0273 246.272 66.9709 246.071C66.9145 245.869 66.7942 245.691 66.628 245.564C66.4618 245.437 66.2587 245.368 66.0495 245.366C63.339 245.449 60.45 247.046 57.987 248.149C54.9614 249.433 52.0997 251.074 49.4625 253.036C49.3216 253.13 49.2222 253.275 49.1847 253.441C49.1473 253.606 49.1747 253.78 49.2612 253.926C49.3478 254.072 49.487 254.179 49.6502 254.226C49.8134 254.273 49.9883 254.255 50.139 254.177C52.8795 252.95 55.5285 251.65 58.2735 250.468C60.915 249.331 64.224 248.711 66.549 247.151ZM69.2595 253.501C63.6645 254.912 58.4865 258.001 53.1 260.063C52.173 260.42 52.5315 261.887 53.529 261.563C59.0295 259.763 64.479 257.663 69.831 255.563C70.0878 255.473 70.3007 255.289 70.4267 255.048C70.5528 254.807 70.5825 254.527 70.5098 254.264C70.4372 254.002 70.2676 253.778 70.0355 253.636C69.8033 253.494 69.526 253.446 69.2595 253.501ZM141.782 274.832C137.18 264.986 133.232 254.611 127.941 245.117C127.685 244.657 126.869 244.975 127.049 245.474C130.619 255.367 135.182 264.986 139.392 274.654C129.803 276.113 122.583 279.154 113.387 282.395C112.599 282.673 110.316 283.828 109.605 283.501C108.924 283.186 108.323 281.003 108 280.289C104.168 271.816 100.106 260.417 97.227 251.609C97.1808 251.457 97.0771 251.329 96.9381 251.252C96.7991 251.176 96.6357 251.156 96.4824 251.198C96.3292 251.24 96.1983 251.339 96.1175 251.476C96.0367 251.613 96.0123 251.776 96.0495 251.93C98.872 262.415 102.547 272.651 107.037 282.538C107.427 283.394 107.681 284.605 108.5 285.176C109.821 286.102 112.175 284.786 113.457 284.357C122.58 281.297 131.718 277.339 140.889 276.544C141.04 276.542 141.189 276.508 141.325 276.444C141.462 276.38 141.583 276.287 141.681 276.172C141.779 276.058 141.852 275.923 141.894 275.778C141.935 275.633 141.946 275.481 141.924 275.332C141.922 275.155 141.873 274.983 141.782 274.832Z" fill="black"/>
<path d="M112.672 271.193C117.849 270.431 122.733 268.232 127.62 266.485C129.082 266.27 128.37 263.707 126.763 264.451C117.364 268.808 114.991 267.926 112.138 270.266C111.6 270.658 112.174 271.267 112.672 271.193ZM110.674 262.525C115.051 262.153 119.352 261.156 123.445 259.564C124.803 259.106 124.195 256.919 122.845 257.389C118.773 258.799 114.534 259.708 110.503 261.277C109.89 261.562 109.926 262.55 110.674 262.525ZM119.058 252.466C115.096 252.635 111.034 254.507 107.358 255.854C107.192 255.901 107.052 256.013 106.968 256.163C106.885 256.314 106.864 256.492 106.912 256.657C106.959 256.823 107.07 256.963 107.221 257.047C107.372 257.13 107.549 257.151 107.715 257.104C111.496 256.111 115.707 255.754 119.308 254.321C120.201 253.966 120.199 252.418 119.058 252.466ZM214.2 228.244C214.346 227.992 214.387 227.694 214.314 227.412C214.24 227.131 214.058 226.891 213.807 226.744C206.377 222.844 184.621 213.394 182.307 215.006C179.409 217.03 177.19 221.156 175.743 224.246C175.658 224.393 175.634 224.567 175.678 224.731C175.721 224.895 175.828 225.035 175.975 225.12C176.121 225.205 176.296 225.228 176.46 225.185C176.623 225.141 176.763 225.035 176.848 224.888C177.66 223.501 178.541 222.156 179.488 220.858C180.436 219.277 181.642 217.866 183.055 216.683C184.623 215.753 186.94 217.12 188.442 217.682C190.08 218.297 205.707 224.995 211.692 228.098C203.416 241.832 192.964 253.961 182.406 266.018C179.587 264.235 167.355 258.829 163.999 258.455C163.321 258.38 163.213 259.421 163.857 259.597C167.419 260.573 179.689 267.319 182.727 268.408C182.847 268.454 182.975 268.471 183.103 268.458C183.231 268.445 183.353 268.402 183.461 268.333C183.569 268.263 183.659 268.169 183.723 268.059C183.788 267.948 183.825 267.823 183.832 267.695C194.826 255.248 205.89 242.68 214.2 228.244ZM261.853 229.207C251.686 224.464 240.322 222.203 231.069 215.545C230.894 215.445 230.687 215.42 230.493 215.473C230.299 215.527 230.134 215.655 230.034 215.83C226.467 220.574 223.039 225.43 219.475 230.206C214.551 236.385 210.001 242.854 205.848 249.577C205.726 249.791 205.692 250.044 205.752 250.283C205.812 250.522 205.961 250.729 206.169 250.861C215.784 255.712 226.429 260.257 237.168 261.704C237.397 261.754 237.636 261.733 237.853 261.643C238.069 261.554 238.254 261.401 238.381 261.205C246.21 250.73 254.839 240.823 263.352 230.884C264.273 229.808 262.78 228.244 261.853 229.207ZM236.989 259.493C227.002 257.993 217.05 254 207.988 249.611C213.055 240.611 227.038 222.334 230.854 217.222C239.95 223.643 251.044 225.676 261.175 229.993C252.936 239.659 244.588 249.326 236.989 259.493Z" fill="black"/>
<path d="M225.111 247.257C223.234 246.674 221.329 246.186 219.403 245.795C218.763 245.682 218.235 245.411 217.692 245.973C217.54 246.135 217.432 246.333 217.377 246.548C217.323 246.763 217.324 246.988 217.382 247.202C217.439 247.417 217.549 247.613 217.704 247.772C217.858 247.932 218.05 248.049 218.262 248.114C221.151 249.15 224.326 249.578 227.287 250.431C230.12 251.474 233.029 252.297 235.987 252.893C236.808 252.996 236.922 251.843 236.379 251.466C233.214 249.231 228.784 248.3 225.111 247.257ZM241.521 242.727C238.887 241.218 236.116 239.962 233.244 238.977C230.205 237.747 227.14 236.489 224.112 235.302C222.576 234.702 221.935 237.159 223.434 237.764C229.032 240.014 235.018 243.026 240.949 244.113C241.124 244.151 241.306 244.126 241.464 244.043C241.621 243.959 241.745 243.824 241.813 243.659C241.881 243.494 241.889 243.31 241.836 243.14C241.782 242.97 241.671 242.824 241.521 242.727ZM247.2 234.701C242.299 232.175 237.261 229.924 232.11 227.959C231.837 227.889 231.549 227.92 231.297 228.046C231.045 228.171 230.847 228.384 230.739 228.643C230.631 228.903 230.62 229.193 230.708 229.461C230.796 229.728 230.977 229.955 231.219 230.099C236.101 232.69 241.242 234.759 246.558 236.27C247.407 236.555 248.047 235.1 247.2 234.701ZM272.199 197.21C268.62 197.003 268.513 197.21 250.224 197.852C244.302 198.059 238.374 198.203 232.495 198.743C232.353 198.743 232.217 198.799 232.117 198.9C232.016 199 231.96 199.136 231.96 199.278C231.96 199.421 232.016 199.557 232.117 199.657C232.217 199.758 232.353 199.814 232.495 199.814C238.524 199.796 244.516 199.62 250.545 199.457C257.745 199.26 265.27 199.618 272.412 198.673C273.268 198.559 272.982 197.255 272.199 197.21ZM1.16245 209.45C8.84245 207.75 14.916 208.712 35.193 207.522C35.3002 207.514 35.4001 207.465 35.4729 207.385C35.5457 207.306 35.5861 207.203 35.5861 207.095C35.5861 206.987 35.5457 206.884 35.4729 206.805C35.4001 206.725 35.3002 206.676 35.193 206.668C11.505 206.525 6.01195 206.621 0.69295 207.773C-0.40955 208.009 0.0554494 209.69 1.16245 209.45ZM105.931 205.2C101.971 205.2 98.0115 205.091 94.0815 204.95C93.0825 204.914 93.0825 206.48 94.0815 206.52C119.949 207.552 145.806 204.896 171.631 204.88C171.834 204.871 172.025 204.784 172.165 204.638C172.305 204.491 172.383 204.297 172.383 204.094C172.383 203.892 172.305 203.697 172.165 203.551C172.025 203.404 171.834 203.318 171.631 203.309C163.768 203.309 165.439 203.609 165.246 203.024C165.118 199.109 164.615 195.214 163.746 191.394C162.396 185.258 159.373 172.161 155.364 164.283C155.238 164.048 155.036 163.863 154.79 163.759C154.544 163.656 154.27 163.639 154.014 163.713C149.664 165.14 129.943 170.696 111.136 164.177C110.987 164.126 110.828 164.107 110.67 164.122C110.513 164.136 110.36 164.184 110.222 164.261C110.084 164.338 109.964 164.444 109.87 164.571C109.775 164.698 109.708 164.843 109.674 164.997C109.177 167.21 108.247 172.025 107.604 175.985C106.104 185.189 104.715 195.569 105.892 205.022C105.859 205.022 105.9 205.128 105.931 205.2ZM129.15 183.404C132.244 182.464 135.502 182.184 138.711 182.583C138.851 182.628 138.973 182.716 139.059 182.835C139.146 182.954 139.193 183.097 139.193 183.243C139.193 183.39 139.146 183.533 139.059 183.652C138.973 183.771 138.851 183.859 138.711 183.903C138.35 184.012 137.979 184.084 137.604 184.118C138.532 189.504 140.851 197.816 142.17 203.951C142.17 204.269 143.649 204.021 130.899 204.629C130.927 204.561 130.939 204.488 130.933 204.414C131.284 197.761 131.296 191.094 130.969 184.439C130.399 184.439 129.864 184.403 129.292 184.367C128.761 184.296 128.584 183.554 129.15 183.404Z" fill="black"/>
</svg>
