<svg width="19" height="21" viewBox="0 0 19 21" fill="none" xmlns="http://www.w3.org/2000/svg">
<path d="M6.5 9C6.5 9.79565 6.81607 10.5587 7.37868 11.1213C7.94129 11.6839 8.70435 12 9.5 12C10.2956 12 11.0587 11.6839 11.6213 11.1213C12.1839 10.5587 12.5 9.79565 12.5 9C12.5 8.20435 12.1839 7.44129 11.6213 6.87868C11.0587 6.31607 10.2956 6 9.5 6C8.70435 6 7.94129 6.31607 7.37868 6.87868C6.81607 7.44129 6.5 8.20435 6.5 9Z" stroke="#FFD5A4" stroke-width="2" stroke-linecap="round" stroke-linejoin="round"/>
<path d="M15.157 14.657L10.914 18.9C10.539 19.2746 10.0306 19.4851 9.5005 19.4851C8.97042 19.4851 8.46202 19.2746 8.087 18.9L3.843 14.657C2.72422 13.5382 1.96234 12.1127 1.65369 10.5609C1.34504 9.00904 1.50349 7.40053 2.10901 5.93874C2.71452 4.47696 3.7399 3.22755 5.05548 2.34852C6.37107 1.46949 7.91777 1.00031 9.5 1.00031C11.0822 1.00031 12.6289 1.46949 13.9445 2.34852C15.2601 3.22755 16.2855 4.47696 16.891 5.93874C17.4965 7.40053 17.655 9.00904 17.3463 10.5609C17.0377 12.1127 16.2758 13.5382 15.157 14.657Z" stroke="#FFD5A4" stroke-width="2" stroke-linecap="round" stroke-linejoin="round"/>
</svg>
