<svg width="18" height="18" viewBox="0 0 18 18" fill="none" xmlns="http://www.w3.org/2000/svg">
<path d="M9.58912 0.910859L17.0891 8.41086C17.6141 8.93586 17.2425 9.83336 16.5 9.83336H15.6666V14.8334C15.6666 15.4964 15.4032 16.1323 14.9344 16.6011C14.4655 17.07 13.8297 17.3334 13.1666 17.3334H12.3333V11.5C12.3333 10.8623 12.0897 10.2488 11.6522 9.78481C11.2147 9.32085 10.6165 9.0416 9.97995 9.00419L9.83328 9.00002H8.16662C7.50358 9.00002 6.86769 9.26342 6.39885 9.73226C5.93001 10.2011 5.66662 10.837 5.66662 11.5V17.3334H4.83328C4.17024 17.3334 3.53436 17.07 3.06552 16.6011C2.59668 16.1323 2.33328 15.4964 2.33328 14.8334V9.83336H1.49995C0.758284 9.83336 0.385784 8.93586 0.910784 8.41086L8.41078 0.910859C8.56706 0.754633 8.77898 0.66687 8.99995 0.66687C9.22092 0.66687 9.43284 0.754633 9.58912 0.910859ZM9.83328 10.6667C10.0543 10.6667 10.2663 10.7545 10.4225 10.9108C10.5788 11.067 10.6666 11.279 10.6666 11.5V17.3334H7.33328V11.5C7.33331 11.2959 7.40825 11.0989 7.54388 10.9464C7.67951 10.7939 7.86641 10.6964 8.06912 10.6725L8.16662 10.6667H9.83328Z" fill="#888888"/>
</svg>
