<svg width="171" height="139" viewBox="0 0 171 139" fill="none" xmlns="http://www.w3.org/2000/svg">
<path d="M99.3869 107.748C104.473 104.188 111.496 106.006 113.886 105.825C115.056 105.735 116.136 105.097 117.311 105.074C117.356 105.075 117.401 105.086 117.441 105.107C117.481 105.128 117.516 105.157 117.543 105.193C117.57 105.229 117.588 105.271 117.597 105.315C117.606 105.36 117.604 105.405 117.593 105.449C117.495 105.957 117.272 106.434 116.944 106.835C116.617 107.236 116.195 107.55 115.717 107.748C116.373 108.265 117.64 109.391 117.687 109.438C117.763 109.413 117.845 109.413 117.921 109.439C117.998 109.464 118.064 109.513 118.11 109.579C118.174 109.647 118.213 109.735 118.222 109.829C118.23 109.922 118.207 110.016 118.156 110.095C119.835 112.445 119.436 115.05 117.828 116.43C120.658 115.599 123.618 115.297 126.558 115.538C129.349 115.502 132.136 115.785 134.863 116.382C135.815 116.604 136.742 116.918 137.632 117.321C138.493 115.662 139.004 113.844 139.133 111.979C139.262 110.114 139.007 108.243 138.383 106.481C135.475 98.5089 126.275 92.9668 117.314 93.1558C109.346 93.3232 102.536 97.6 99.7181 102.023C98.9117 103.217 98.2648 104.511 97.7939 105.872C98.3969 106.432 98.9316 107.062 99.3869 107.748ZM136.128 114.408C135.752 115.018 134.908 114.877 134.298 114.689C130.981 113.979 128.448 110.255 125.851 110.189C123.459 110.124 120.361 111.832 120.596 114.599C120.596 114.74 120.361 114.787 120.361 114.646C119.81 111.887 122.666 109.666 125.383 109.484C128.861 109.251 131.413 113.577 134.955 114.083C135.216 114.154 135.491 114.154 135.752 114.083C136.034 113.94 136.316 114.175 136.128 114.408Z" fill="#191919"/>
<path d="M115.763 118.586C122.362 116.616 129.375 116.502 136.034 118.258C138.439 119.005 140.79 119.914 143.072 120.979C143.116 121.004 143.167 121.011 143.216 120.998C143.264 120.984 143.305 120.953 143.33 120.909C143.355 120.865 143.362 120.814 143.349 120.765C143.336 120.717 143.304 120.676 143.26 120.651C140.04 118.334 134.277 116.921 130.262 116.568C124.749 116.083 120.765 116.067 115.857 117.976C113.59 118.664 111.404 119.592 109.335 120.744C107.552 120.087 105.768 119.528 103.935 119.008C100.284 117.872 96.4949 117.24 92.6729 117.132C90.5445 117.074 88.4171 117.279 86.3387 117.741C86.1506 117.786 86.2442 118.07 86.4287 118.023C98.6975 116.004 112.101 122.973 114.677 123.423C114.737 123.438 114.8 123.431 114.855 123.403C114.91 123.375 114.953 123.327 114.976 123.27C114.999 123.213 115 123.149 114.979 123.091C114.959 123.033 114.918 122.984 114.864 122.954C113.335 122.244 111.769 121.617 110.172 121.076C110.595 120.842 111.017 120.654 111.439 120.466C112.82 119.71 114.268 119.08 115.763 118.586Z" fill="#191919"/>
<path d="M109.85 119.853C110.418 119.628 116.748 116.428 116.842 116.709C116.842 116.662 116.795 116.619 116.842 116.568C117.828 115.208 118.822 113.996 118.39 112.158C118.225 111.524 117.955 110.922 117.593 110.375C117.546 110.375 117.546 110.375 117.503 110.422C116.317 110.817 116.076 112.598 114.499 112.815C114.359 112.815 114.264 112.627 114.453 112.58C115.373 112.351 115.52 110.653 116.939 109.765C116.986 109.765 117.029 109.718 117.08 109.718C116.207 108.67 115.391 108.297 115.391 107.841C115.301 107.751 115.344 107.607 115.438 107.513C116.181 106.956 116.638 106.729 116.939 105.824C115.589 106.07 115.187 106.634 113.514 106.668C111.444 106.707 109.538 106.185 105.864 106.433C103.659 106.583 99.247 108.683 99.247 108.683C98.6911 107.753 97.9765 106.927 97.1356 106.244C96.5767 105.816 94.8937 104.795 94.3204 105.774C93.6679 106.889 96.8161 112.591 97.4641 113.939C98.0284 115.109 99.1534 117.552 99.1534 117.552C103.516 117.507 109.105 120.148 109.85 119.853ZM110.507 116.475C110.962 116.345 111.369 116.085 111.677 115.726C111.986 115.367 112.183 114.926 112.243 114.457C111.82 114.288 111.551 113.818 111.962 113.612C112.291 113.522 112.952 113.328 113.182 113.706C113.325 113.939 113.092 114.222 112.947 114.41C113.032 114.76 113.251 115.064 113.557 115.254C113.725 115.365 113.919 115.43 114.12 115.442C114.261 115.489 115.106 115.583 114.777 115.911C114.4 116.288 113.418 116.194 112.713 115.254C112.803 115.395 112.384 115.818 112.338 115.865C112.139 116.131 111.875 116.34 111.57 116.472C111.265 116.604 110.931 116.653 110.601 116.615C110.413 116.658 110.367 116.478 110.507 116.478V116.475ZM102.767 111.032C103.221 110.801 103.717 110.665 104.225 110.633C104.734 110.601 105.243 110.672 105.723 110.843C107.476 111.428 108.021 112.75 109.665 112.955C109.7 112.965 109.731 112.987 109.754 113.016C109.776 113.046 109.788 113.082 109.788 113.119C109.788 113.156 109.776 113.192 109.754 113.222C109.731 113.251 109.7 113.273 109.665 113.283C108.465 113.698 106.903 112.322 105.864 111.782C105.295 111.507 104.662 111.394 104.033 111.454C103.705 111.5 103.424 111.594 103.095 111.642C102.839 111.734 102.569 111.781 102.297 111.782C102.114 111.782 102.146 111.277 102.765 111.032H102.767Z" fill="#191919"/>
<path d="M33.3185 84.8947C33.9089 84.8947 36.3407 85.1341 37.7762 85.2709C32.3069 78.3094 35.0456 68.7108 31.6292 60.9646C31.5824 60.8232 31.7696 60.6829 31.8641 60.8233C35.8736 69.0655 33.1358 78.1932 38.4341 85.1763C38.4341 85.2231 38.4809 85.2232 38.4809 85.2709C41.6309 85.5571 41.4104 85.5516 41.6714 85.5516C41.9531 85.5516 42.0467 85.1764 41.8127 85.0828C38.8904 83.4709 37.7087 81.3298 36.8384 78.232C35.7719 74.4322 35.9609 70.6081 35.9006 68.0962C35.7044 59.9647 32.8982 57.9846 28.6268 52.9401C26.5671 50.5918 25.1595 47.7442 24.5444 44.6818C24.4958 44.401 25.8116 44.2129 25.9997 44.2129C29.9408 43.5172 31.4231 48.0135 35.1491 48.0135C35.1925 48.0114 35.2348 47.9987 35.2723 47.9767C35.3097 47.9547 35.3414 47.924 35.3644 47.8871C35.3875 47.8503 35.4013 47.8084 35.4047 47.7651C35.4081 47.7218 35.401 47.6783 35.384 47.6383C34.8728 46.8832 34.304 46.1353 33.7883 45.3883C33.1045 44.1698 32.098 43.1633 30.8795 42.4794C29.7998 41.9509 28.6149 41.6721 27.4128 41.6639C26.2106 41.6556 25.022 41.9181 23.9351 42.4318C23.2205 42.8368 22.8065 43.6018 22.0577 43.9339C20.9937 44.4093 20.0718 45.1538 19.3829 46.0939C18.8744 46.8031 18.3029 48.0648 18.9608 48.8154C21.8131 52.0646 23.9975 55.8436 25.3895 59.9368C26.4695 63.3612 25.6334 69.3706 25.1546 71.4325C24.5111 74.2045 23.7803 77.0611 23.9846 79.9258C24.0746 81.219 24.5498 83.361 25.439 84.2898C25.4768 84.3309 25.5273 84.3581 25.5824 84.3669C25.6374 84.3758 25.6939 84.3659 25.7427 84.3388C25.7914 84.3116 25.8296 84.2689 25.8511 84.2174C25.8726 84.1659 25.8761 84.1087 25.8611 84.055C25.6145 83.4025 25.2986 82.7878 25.1105 82.1308C24.0089 78.2752 24.9053 75.4654 25.7207 71.761C27.5711 63.3514 24.872 69.9493 28.9112 78.421C29.8618 80.4491 31.0768 82.3424 32.5247 84.0513C32.7083 84.3321 32.99 84.8479 33.3185 84.8947Z" fill="#38A1FF"/>
<path d="M31.5355 48.1072C31.9245 48.4083 32.2593 48.7735 32.5255 49.1872C32.719 49.4932 32.7397 49.8172 32.854 49.9855C32.944 50.0755 33.088 50.0755 33.1348 49.9855C33.4165 49.7038 33.1825 49.1404 33.0448 48.8587C32.3914 47.7292 30.9892 47.2108 29.1973 46.0435C29.0551 45.9535 28.9624 46.1839 29.0569 46.2784C31.342 48.0613 30.4024 47.2576 31.5355 48.1072Z" fill="#191919"/>
<path d="M27.7348 50.6883C28.1127 50.6496 28.4794 50.538 28.8148 50.3598C29.3572 50.0416 29.7711 49.5436 29.9848 48.9522C30.0748 48.7164 29.9848 48.1953 29.6095 48.4356C29.4889 48.5286 29.4055 48.6618 29.3746 48.8109C29.1914 49.2252 28.9192 49.5939 28.5772 49.8909C28.4368 50.0322 27.5449 50.4075 27.5449 50.5479C27.5467 50.6406 27.6403 50.6883 27.7348 50.6883Z" fill="#191919"/>
<path d="M53.4491 126.985C53.746 126.25 53.9355 125.476 54.0116 124.686C54.1673 123.371 53.6318 121.957 54.8567 120.932C55.0871 120.739 56.2175 120.509 56.3579 120.275C56.349 118.744 56.1762 117.218 55.8422 115.723C55.8279 115.675 55.7994 115.631 55.7604 115.599C55.7213 115.567 55.6735 115.547 55.6231 115.542C55.5726 115.537 55.5218 115.547 55.4771 115.571C55.4325 115.595 55.396 115.632 55.3724 115.676C55.2824 115.766 55.4201 116.052 55.4201 116.193C55.6703 117.448 55.8593 118.899 56.0294 119.806C55.6268 119.794 55.2274 119.882 54.8671 120.062C54.5068 120.242 54.1968 120.509 53.9648 120.838C53.1683 121.871 53.4482 123.184 53.4023 124.358C53.3123 126.559 52.3025 128.768 50.1623 129.331C49.9751 129.381 50.0723 129.66 50.2523 129.66C50.9719 129.531 51.6454 129.216 52.2061 128.747C52.7668 128.278 53.1952 127.671 53.4491 126.985Z" fill="#191919"/>
<path d="M57.437 127.638C57.4298 127.609 57.4163 127.582 57.3977 127.559C57.379 127.536 57.3555 127.517 57.3289 127.504C57.3022 127.49 57.273 127.483 57.2432 127.482C57.2134 127.481 57.1837 127.486 57.1562 127.498C56.7287 127.723 56.5487 128.251 56.2643 128.624C55.2191 129.89 53.7205 130.697 52.0883 130.874C51.9002 130.874 51.9002 131.108 52.0883 131.156C53.2419 131.205 54.3799 130.875 55.3283 130.217C56.0851 129.737 56.7262 129.096 57.2057 128.339C57.3434 128.205 57.5315 127.83 57.437 127.638Z" fill="#191919"/>
<path d="M59.6893 128.487C59.4572 130.298 58.5529 131.956 57.1558 133.132C56.965 133.269 57.1558 133.602 57.343 133.46C58.626 132.5 59.5905 131.176 60.1114 129.66C60.2832 129.239 60.2832 128.767 60.1114 128.346C60.0259 128.156 59.6893 128.299 59.6893 128.487Z" fill="#191919"/>
<path d="M62.7865 126.891C62.3419 124.587 61.0036 117.413 60.8623 117.037C61.579 117.124 62.3025 117.14 63.0223 117.084C63.3508 117.037 63.3508 116.522 63.0223 116.568C60.6987 116.724 58.377 116.237 56.3119 115.161C55.1419 114.583 52.558 113.143 51.4321 114.41C49.4197 110.133 43.5202 101.074 38.4343 90.9013C37.9177 89.869 37.4443 88.7944 36.9331 87.8044C36.6937 87.3373 36.4633 86.9125 36.2761 86.4436C36.2284 86.3032 35.9926 86.3968 36.0412 86.5336C37.381 90.2313 39.029 93.81 40.9678 97.2319C43.6858 102.443 50.1622 113.328 50.4466 113.75C51.4825 115.28 51.694 116.233 53.9656 116.612C53.9876 116.611 54.0088 116.604 54.0261 116.59C54.0433 116.576 54.0555 116.557 54.0608 116.536C54.0661 116.515 54.0643 116.492 54.0555 116.472C54.0468 116.452 54.0316 116.435 54.0124 116.424C53.4967 116.236 51.9811 115.677 51.8074 115.11C51.5518 114.272 53.2618 114.641 53.5903 114.687C54.7376 115.003 55.8412 115.46 56.8753 116.048C57.992 116.561 59.1775 116.909 60.3943 117.08C60.3943 117.457 61.8343 125.342 62.0368 126.466C62.4661 128.811 63.4768 131.596 61.8487 133.223C61.7083 133.363 61.8964 133.599 62.0368 133.504C63.9286 132.218 63.214 129.105 62.7865 126.891Z" fill="#191919"/>
<path d="M22.3856 73.8678C22.7829 74.0347 23.1905 74.1756 23.606 74.2899C23.84 74.3844 23.9813 74.0091 23.7464 73.9146C23.3711 73.7274 23.0426 73.4457 22.6664 73.2576C20.1394 71.9126 17.7908 70.2567 15.6752 68.3283C10.9755 63.8622 7.75065 58.0683 6.43126 51.7206C5.6842 48.3495 5.46289 44.8832 5.77516 41.4444C5.97316 39.7848 6.72106 36.8769 8.16826 36.4233C8.56835 36.3235 8.98672 36.3227 9.38722 36.4208C9.78772 36.519 10.1583 36.7132 10.4669 36.9867C11.4683 37.9991 12.1393 39.2914 12.3911 40.6929C12.4424 40.8801 12.716 40.7883 12.6728 40.6029C12.2642 38.8272 11.7386 36.7914 9.85666 36.0048C9.47345 35.8198 9.0508 35.7313 8.62554 35.747C8.20027 35.7626 7.7853 35.8821 7.41676 36.0948C6.66855 36.665 6.11217 37.45 5.82196 38.3448C5.11142 40.3128 4.79254 42.4006 4.88326 44.4909C4.88326 57.3582 11.8394 68.7558 22.3856 73.8678Z" fill="#191919"/>
<path d="M129.981 6.90878C135.029 7.46138 140.311 7.51178 144.386 10.8499C150.984 16.2544 151.201 26.7799 151.472 35.9068C151.61 40.5697 151.235 46.4917 151.518 49.3276C151.518 49.5148 151.851 49.6093 151.894 49.3744C152.502 46.0975 152.269 42.5704 152.269 39.2386C152.269 35.6728 152.179 32.1529 151.941 28.5871C151.622 23.8945 150.844 19.0714 148.515 14.9323C144.599 7.97438 138.104 6.58028 130.027 6.58028C129.747 6.53348 129.747 6.85838 129.981 6.90878Z" fill="#191919"/>
<path d="M65.7428 6.85836C66.9542 7.05186 80.8745 6.67026 82.1183 6.67026C82.7838 6.7047 83.4504 6.62526 84.0893 6.43536C84.2297 6.38766 84.1793 6.15636 84.0425 6.10686C83.0057 5.74686 81.6026 6.01686 80.4767 6.06006C79.2257 6.11046 66.8489 6.33006 65.696 6.57666C65.5547 6.53346 65.5547 6.85836 65.7428 6.85836Z" fill="#191919"/>
<path d="M22.7609 32.5758C23.003 32.0907 22.6457 31.0953 23.5115 25.4433C24.2882 20.3718 25.9415 14.9214 30.2219 11.6949C33.9686 8.86982 38.9519 8.44772 43.6418 8.12822C49.319 7.74212 54.9971 7.37762 60.722 7.00232C60.812 6.67382 60.3467 6.53072 60.0182 6.53342C54.1052 6.58022 48.239 6.99062 42.3782 7.51892C38.8115 7.83932 35.1503 8.21913 31.9616 9.86433C23.8823 14.0322 22.3388 24.5982 22.4792 32.763C22.5737 32.8098 22.6673 32.7162 22.7609 32.5758Z" fill="#191919"/>
<path d="M170.616 61.5271C167.196 73.2568 160.915 75.2341 152.269 104.415C151.143 108.216 150.167 112.032 149.078 115.865C148.944 116.335 148.89 116.803 148.797 117.319C148.75 117.694 149.219 117.836 149.407 117.46C150.908 113.847 151.571 109.81 152.647 106.057C160.772 77.6227 167.44 73.6681 170.619 62.9815C170.759 62.5126 170.901 62.0905 170.994 61.6207C171.007 61.5705 170.999 61.5175 170.972 61.4733C170.945 61.4291 170.902 61.3973 170.852 61.3849C170.802 61.3724 170.749 61.3805 170.705 61.4071C170.661 61.4338 170.629 61.4769 170.616 61.5271Z" fill="#191919"/>
<path d="M19.2883 99.3946C13.9441 85.846 8.48828 83.1172 3.85058 76.4491C0.845475 72.1291 -0.689924 66.8317 1.73918 62.1841C1.83638 61.9978 1.59788 61.8556 1.50428 62.0437C-0.935624 65.8912 -0.126524 70.8115 1.92638 74.6662C6.28058 82.8391 11.9947 84.2755 17.7871 97.7521C22.9171 109.696 24.3787 122.659 25.3417 126.192C25.366 126.254 25.4107 126.306 25.4685 126.339C25.5262 126.372 25.5935 126.384 25.6591 126.373C25.7248 126.363 25.7849 126.33 25.8294 126.281C25.874 126.232 25.9004 126.168 25.9042 126.102C25.4785 121.09 22.4455 107.397 19.2883 99.3946Z" fill="#191919"/>
<path d="M89.2511 133.46C89.3924 133.555 89.5796 133.32 89.4392 133.226C87.0494 131.452 84.8899 129.387 83.0105 127.079C80.1305 123.192 78.884 118.096 80.711 113.659C82.7099 113.859 84.5566 114.816 85.8725 116.333C86.0102 116.477 86.2487 116.287 86.1542 116.099C85.512 115.19 84.6713 114.439 83.6959 113.902C82.7204 113.366 81.6357 113.058 80.5238 113.003C80.4338 113.003 80.2889 113.049 80.2889 113.143C78.1838 117.879 79.0811 124.45 85.0751 130.317C86.3164 131.551 87.7216 132.609 89.2511 133.46Z" fill="#191919"/>
<path d="M147.483 115.398C146.493 114.603 145.282 115.308 144.433 115.914C143.485 116.584 142.673 117.428 142.04 118.401C141.95 118.543 142.134 118.682 142.275 118.589C142.878 117.818 143.589 117.139 144.386 116.571C145.05 116.112 146.217 115.21 147.061 115.774C147.689 116.388 148.086 117.199 148.187 118.072C149.144 121.902 147.969 125.662 145.513 128.771C143.586 131.21 141.084 132.641 138.521 134.308C138.379 134.398 138.474 134.684 138.662 134.637C142.463 133.208 145.637 130.482 147.624 126.941C150.283 121.988 149.015 116.629 147.483 115.398Z" fill="#191919"/>
<path d="M147.858 136.323C144.577 136.038 119.034 135.732 96.1018 137.027C91.2688 137.297 86.4826 137.684 81.6496 138.059C81.6141 138.062 81.5811 138.078 81.557 138.104C81.5329 138.131 81.5195 138.165 81.5195 138.2C81.5195 138.236 81.5329 138.27 81.557 138.296C81.5811 138.322 81.6141 138.338 81.6496 138.341C124.76 135.53 143.336 137.033 147.858 136.699C148.136 136.745 148.136 136.368 147.858 136.323Z" fill="#191919"/>
<path d="M32.0045 52.7529C32.0945 52.7322 34.4093 52.4479 34.6793 51.9079C34.8593 51.5434 34.3535 51.4831 34.1159 51.7207C33.3777 51.9531 32.6561 52.2352 31.9559 52.5648C31.8173 52.6116 31.8641 52.7529 32.0045 52.7529Z" fill="#191919"/>
<path d="M27.1248 47.685C27.6963 47.1783 28.5324 47.028 28.3443 46.7463C28.1571 46.5114 27.7377 46.6563 27.2643 46.8867C26.4714 47.2719 26.1384 48.576 26.4669 48.6237C26.6082 48.6237 26.4768 48.2583 27.1248 47.685Z" fill="#191919"/>
<path d="M36.0403 58.2429C36.2239 58.2947 36.413 58.3249 36.6037 58.3329C36.7441 58.3329 37.0258 58.3797 37.1194 58.2429C37.5334 57.7596 36.1978 57.7173 34.5859 57.2574C33.8668 56.9992 33.1295 56.7953 32.38 56.6472C32.29 56.6004 32.1928 56.7867 32.29 56.8353C34.5409 58.0053 33.2827 57.5796 36.0403 58.2429Z" fill="#191919"/>
<path d="M13.3766 39.8956C17.6294 37.8858 22.3549 37.09 27.0314 37.5961C27.5542 37.6476 28.0719 37.7418 28.5794 37.8778C29.0492 37.9678 29.4731 38.0578 29.9402 38.1595C30.1292 38.2018 30.2219 37.9246 30.0815 37.8778C29.824 37.7484 29.5571 37.6386 29.2832 37.5493C29.7456 36.9929 30.3274 36.5479 30.9854 36.2474C31.6434 35.9468 32.3606 35.7984 33.0839 35.8132C34.8587 36.2974 33.0839 38.0632 32.7086 39.6139C32.4418 40.5766 32.3938 41.5867 32.5682 42.5704C32.5783 42.6166 32.6054 42.6574 32.644 42.6848C32.6827 42.7121 32.7302 42.724 32.7772 42.7182C32.8242 42.7123 32.8673 42.6891 32.8981 42.6531C32.9288 42.6171 32.945 42.5709 32.9435 42.5236C33.0218 39.3862 33.2135 39.5482 34.2107 37.3621C34.2949 37.1973 34.3434 37.0167 34.3531 36.8319C34.3629 36.6472 34.3336 36.4624 34.2672 36.2897C34.2008 36.1171 34.0988 35.9603 33.9678 35.8296C33.8368 35.699 33.6798 35.5974 33.5069 35.5315C33.1195 35.4145 32.713 35.3751 32.3104 35.4154C31.9078 35.4557 31.5171 35.575 31.1606 35.7664C30.3036 36.1281 29.5581 36.7111 29.0006 37.4557C27.443 37.121 25.8551 36.9479 24.2621 36.9391C20.6432 36.9391 16.145 37.8148 13.1921 39.7084C13.0463 39.7552 13.1876 39.9883 13.3766 39.8956Z" fill="#191919"/>
<path d="M40.3097 52.8484C40.1693 52.8016 40.0289 52.9888 40.1693 53.0833C40.2161 53.1301 40.2593 53.2237 40.3574 53.2705C39.9541 53.8047 39.593 54.3695 39.2774 54.9598C38.7149 54.8698 36.3686 54.5845 35.8052 54.4441C37.9391 52.879 37.4657 50.3941 35.6648 48.3907C35.5748 48.3007 35.4299 48.4375 35.4767 48.5311C36.2831 49.5905 36.668 50.9114 36.5567 52.2382C35.9717 55.0885 32.0675 54.6259 31.208 54.8194C31.019 54.8617 31.0667 55.1002 31.208 55.1479C32.2187 55.4466 33.2942 55.4466 34.3049 55.1479C34.7399 55.0085 35.1636 54.8358 35.5721 54.6313C35.9006 54.7717 38.7626 55.4764 39.4196 55.6168C39.4888 55.64 39.5638 55.6388 39.6322 55.6132C39.7005 55.5876 39.758 55.5393 39.7949 55.4764C40.1687 54.8994 40.4832 54.286 40.7336 53.6458C41.1646 54.2048 41.3824 54.8991 41.3479 55.6041C41.3134 56.3092 41.029 56.9789 40.5455 57.4933C39.9541 58.1434 39.2142 58.6408 38.3889 58.9431C37.5637 59.2454 36.6775 59.3436 35.8061 59.2294C35.7557 59.2084 35.6993 59.2064 35.6475 59.2238C35.5957 59.2412 35.552 59.2767 35.5244 59.3239C35.2436 59.7928 34.7738 60.8719 34.7738 60.8719C34.7738 60.8251 34.8638 61.06 34.8638 61.1536C35.1923 60.6847 35.5208 60.2149 35.8025 59.746C37.5935 60.3859 41.5076 58.6615 41.8559 55.7572C42.143 54.7591 41.5292 53.05 40.3097 52.8484Z" fill="#191919"/>
<path d="M46.6915 52.4245C48.5447 51.6992 50.441 51.0893 52.3696 50.5984C56.3908 49.6084 58.1881 51.5659 60.5812 52.5226C60.628 52.5694 60.6712 52.663 60.7216 52.7098C62.9401 55.5898 66.9505 56.5798 69.4021 55.7599C69.5902 55.7131 69.5902 55.3378 69.3553 55.3846C67.4229 55.6 65.4692 55.2581 63.7249 54.3991C61.4749 53.2435 59.5723 50.8099 59.0791 47.0326C59.0756 47.004 59.0617 46.9778 59.0402 46.9587C59.0186 46.9397 58.9909 46.9292 58.9621 46.9292C58.9334 46.9292 58.9056 46.9397 58.884 46.9587C58.8625 46.9778 58.8487 47.004 58.8451 47.0326C58.734 48.6509 59.144 50.2623 60.0151 51.6307C58.7568 50.7622 57.3366 50.1559 55.8391 49.8478C53.8224 49.673 51.796 50.0462 49.9738 50.9278C48.8938 51.3589 47.7679 51.8197 46.6888 52.2886C46.5034 52.2832 46.5979 52.4713 46.6915 52.4245Z" fill="#191919"/>
<path d="M59.6429 81.6574C63.4067 80.9878 69.1631 80.3848 72.4058 80.203C77.4332 79.9213 82.9358 79.5415 86.2955 83.1586C86.8594 83.8542 87.3179 84.629 87.6563 85.4581C87.7931 85.7416 88.172 85.5049 88.1252 85.2709C87.9265 84.4535 87.5669 83.684 87.0675 83.0072C86.568 82.3304 85.9388 81.7598 85.2164 81.3289C81.9269 79.1005 77.5268 79.3255 73.4381 79.546C68.7627 79.7948 64.1166 80.4379 59.5493 81.4684C59.4548 81.517 59.5016 81.6574 59.6429 81.6574Z" fill="#191919"/>
<path d="M142.646 83.5815C141.942 80.1561 138.475 78.0735 135.28 77.2932C130.15 76.0404 114.767 76.8189 109.518 77.2464C102.967 77.7801 94.308 78.3948 90.2328 83.3934C90.0015 83.6778 89.7639 84.0036 89.529 84.3321C89.4822 84.4221 89.619 84.5661 89.7171 84.4725C91.8173 82.114 94.5816 80.4456 97.647 79.6863C105.04 77.5533 126.467 76.8495 133.262 77.6685C136.642 78.0762 140.14 79.5315 141.755 82.6896C141.933 83.0555 142.09 83.4315 142.224 83.8155C142.274 84.0036 142.743 83.91 142.646 83.5815Z" fill="#191919"/>
<path d="M143.025 97.564C143.399 94.6273 143.715 79.9942 144.01 74.3377C144.234 70.0618 144.64 66.109 147.764 63.1228C147.861 63.0328 147.718 62.8411 147.624 62.9347C144.384 65.281 143.695 69.5047 143.448 73.2109C143.417 73.6609 142.597 94.3114 142.696 97.5172C142.646 97.7989 142.978 97.7989 143.025 97.564Z" fill="#191919"/>
<path d="M35.7586 108.357C34.9185 101.863 33.633 95.4354 31.9111 89.1183C31.9019 89.0903 31.8828 89.0665 31.8573 89.0516C31.8318 89.0367 31.8018 89.0317 31.7728 89.0374C31.7439 89.0432 31.718 89.0594 31.7002 89.0829C31.6824 89.1065 31.6738 89.1357 31.6762 89.1651C36.0295 110.204 35.4004 112.164 36.4624 120.838C36.5092 121.073 36.8377 121.073 36.8377 120.838C36.6976 116.661 36.3374 112.495 35.7586 108.357Z" fill="#191919"/>
<path d="M83.4791 96.9079C84.4071 96.6239 85.2914 96.2132 86.1071 95.6875C88.3571 94.1422 88.8395 92.2477 88.313 90.6664C88.2994 90.6241 88.2698 90.5888 88.2306 90.568C88.1915 90.5471 88.1457 90.5423 88.103 90.5546C88.0604 90.5668 88.0241 90.5952 88.002 90.6337C87.9799 90.6722 87.9736 90.7178 87.9845 90.7609C88.1128 91.6282 87.9751 92.514 87.5894 93.3013C87.2038 94.0887 86.5884 94.7406 85.8245 95.1709C84.1192 96.1434 82.2638 96.8254 80.3345 97.1887C72.6728 99.0481 65.1425 98.3587 61.0961 98.6908H61.0493C61.0493 98.0797 59.4527 92.2927 58.703 89.8708C56.8247 83.8003 53.9204 76.8352 55.373 70.7728C55.4207 70.6324 55.1831 70.5847 55.139 70.726C53.249 76.747 55.7357 82.93 57.5321 88.6981C62.0132 103.085 61.8683 109.791 62.8808 115.866C62.9276 116.054 63.2561 116.007 63.2561 115.82V113.52C62.9371 108.623 62.2311 103.76 61.1447 98.9743C63.3147 99.138 65.492 99.1848 67.667 99.1147C73.3514 98.9896 78.3725 98.6521 83.4791 96.9079Z" fill="#191919"/>
<path d="M100.09 96.673C100.648 96.6519 101.2 96.5572 101.733 96.3913C101.873 96.3445 101.92 96.0628 101.733 96.0628C101.138 96.0322 100.542 96.0478 99.95 96.1096C98.5352 96.2185 94.1459 96.2455 91.9724 95.4994C91.5776 95.3805 91.2115 95.1817 90.8967 94.9154C90.582 94.6491 90.3253 94.321 90.1427 93.9514C90.0968 93.8569 89.9546 93.9046 89.9546 94.0414C90.2831 95.4022 91.6394 96.079 92.8643 96.3877C95.2473 96.8246 97.6803 96.9207 100.09 96.673Z" fill="#191919"/>
<path d="M118.578 57.3979C108.839 57.8407 102.341 61.348 96.3835 59.7442C100.958 55.8427 107.239 47.3602 109.1 45.1507C109.194 46.84 108.771 57.3511 108.866 58.1953C112.001 57.4232 115.209 56.983 118.436 56.8822C120.125 48.4384 122.3 37.9687 120.736 29.8543C120.501 28.6339 120.318 27.3136 119.188 26.5693C117.208 25.2652 113.918 26.9563 111.773 27.9301C108.835 29.2911 105.997 30.8592 103.28 32.6227C100.418 34.4515 85.6852 45.1984 85.6384 45.4324C85.6053 45.814 85.7048 46.1955 85.9201 46.5124C86.1487 46.8445 91.7386 49.6093 92.0671 49.8424C92.4027 50.0649 92.6513 50.3965 92.7709 50.7811C93.2795 52.0223 93.7179 53.2913 94.084 54.5818C94.2991 56.0398 94.084 71.9905 93.9436 72.553C93.9198 72.7412 93.8399 72.918 93.7144 73.0604C93.5889 73.2027 93.4236 73.3041 93.2398 73.3513C92.8798 73.4269 89.6497 73.6402 80.5237 74.6176C80.4862 74.6159 80.4489 74.6221 80.4139 74.6356C80.379 74.6492 80.3473 74.6699 80.3208 74.6964C80.2943 74.7229 80.2736 74.7546 80.26 74.7895C80.2465 74.8245 80.2403 74.8618 80.242 74.8993V75.9316C80.2468 76.0047 80.2781 76.0735 80.3299 76.1254C80.3817 76.1772 80.4505 76.2084 80.5237 76.2133C91.5272 77.1077 102.593 75.5863 112.947 71.7556C118.48 69.7756 124.495 69.9403 130.122 68.2366C137.495 66.0037 144.714 62.2966 152.597 62.3245C155.882 62.3335 155.953 55.4845 154.757 53.5495C154.469 53.0833 152.507 53.3695 152.036 53.3614C146.739 53.5938 141.459 54.1265 136.222 54.9571C134.385 55.3531 122.708 57.2107 118.578 57.3979Z" fill="#38A1FF"/>
<path d="M155.976 54.5827C157.933 53.6204 159.515 52.0362 160.476 50.0782C161.655 47.9227 162.143 45.463 163.667 43.4614C163.991 43.0357 164.511 42.3814 165.168 42.5236C166.294 42.7612 166.014 45.6673 165.919 46.4179C165.492 49.7911 163.548 51.9979 163.104 53.9257C162.865 54.9571 163.229 56.3062 162.54 57.1657C161.724 58.1836 159.583 58.1422 158.411 58.3357C157.613 58.4698 156.769 58.6174 155.971 58.7578C155.784 58.8046 155.831 59.0395 156.018 59.0395C156.769 58.9927 157.568 59.0008 158.318 58.8991C159.587 58.7254 161.321 58.711 162.447 58.0072C163.573 57.3034 163.554 55.9894 163.527 54.8167C163.475 52.609 166.758 49.4401 166.483 44.7277C166.428 43.7899 166.295 41.9071 164.934 42.0061C163.714 42.0961 162.873 43.6504 162.354 44.5873C160.993 47.0389 160.644 49.3573 158.882 51.5785C158.042 52.6703 156.948 53.5406 155.696 54.1138C155.366 54.256 155.648 54.7249 155.976 54.5827Z" fill="#191919"/>
<path d="M41.2953 51.1573C43.4136 48.04 46.0684 45.3233 49.1361 43.1338C55.2993 38.7121 63.9861 35.9086 71.5182 37.1272C74.2339 37.5002 76.8213 38.5166 79.0648 40.0918C81.3082 41.6669 83.1429 43.7553 84.4161 46.183C85.3056 48.0368 85.8314 50.0441 85.965 52.096C84.6662 52.9523 83.2418 53.6009 81.7431 54.0184C80.3355 54.4414 78.8343 54.6286 77.3799 54.9571C76.6605 53.2134 75.7135 51.5726 74.5638 50.0773C71.8638 47.0596 70.8306 45.9373 67.1973 44.1175C67.0092 44.0275 67.1073 44.446 67.1505 44.446C64.7106 44.7745 59.0793 45.9013 59.1729 45.9949C60.7686 47.3557 65.7978 51.1447 66.6339 51.7666C68.091 52.8466 69.7956 54.3991 71.6082 54.1129L72.1707 57.0685C71.8609 57.1162 71.5695 57.2458 71.3265 57.4438C70.4562 58.1305 70.6686 59.476 70.5759 60.7738C70.5759 61.7683 70.2474 74.3422 70.2474 75.1324C68.2981 73.3522 66.9943 70.9757 66.5403 68.3752C66.1467 66.2607 66.2199 64.0858 66.7548 62.0026C67.2898 59.9194 68.2735 57.9783 69.6372 56.3152C69.7272 56.2252 69.5904 56.0335 69.4968 56.1748C67.4963 58.2295 66.1861 60.8569 65.7487 63.6911C65.3112 66.5253 65.7682 69.4254 67.056 71.9878C67.95 73.4848 69.0565 74.8442 70.341 76.0234C76.1393 74.7653 82.0192 73.9183 87.9369 73.489C89.5785 73.3405 91.1769 73.1605 92.8176 73.0201C92.849 73.0222 92.8804 73.0176 92.9098 73.0065C92.9393 72.9955 92.966 72.9782 92.9881 72.956C93.0103 72.9337 93.0275 72.9069 93.0384 72.8774C93.0494 72.848 93.0539 72.8165 93.0516 72.7852C92.949 68.3752 93.2865 57.2377 93.2865 54.8608C93.1965 54.8608 89.2977 55.6582 88.4535 55.705C88.9986 57.0984 89.3909 58.5469 89.6235 60.025C89.96 61.3592 89.8948 62.7632 89.4363 64.0606C89.295 64.4359 89.2041 64.6321 88.7793 64.7644C88.1268 64.966 87.4203 65.0038 86.7147 65.1865C86.0091 65.3692 84.2532 66.0505 83.6646 65.6086C83.076 65.2162 82.9932 63.5386 82.257 62.8402C82.0179 62.6607 81.735 62.5487 81.4379 62.5158C81.1408 62.4829 80.8403 62.5302 80.5677 62.653C79.1169 62.9977 78.5877 61.1068 78.2682 60.0718C77.9642 59.1257 77.7597 58.1505 77.658 57.1621C77.6085 56.5996 77.424 55.2856 77.3772 55.192C77.7057 55.192 78.0342 55.1452 78.3618 55.1452C78.2204 56.3932 78.3487 57.6571 78.738 58.8514C78.9055 59.4939 79.1249 60.1218 79.3941 60.7288C79.6649 61.3089 79.9952 61.8593 80.3796 62.3713C80.4741 62.4613 80.7081 62.3245 80.6613 62.1832C80.5848 61.7206 79.8711 60.493 79.3473 58.711C79.0044 57.541 78.9252 56.3179 78.6903 55.1452C79.7981 55.0679 80.8972 54.8951 81.9753 54.6286C85.4061 53.7115 86.3394 52.4686 86.3394 52.3786C86.9532 46.5448 82.0959 39.0586 73.3416 36.8986C65.562 34.9789 56.5251 37.5349 49.9263 41.9665C46.3612 44.3412 43.339 47.4437 41.0586 51.07C41.0613 51.1573 41.2485 51.2509 41.2953 51.1573ZM77.3322 56.9758C76.7427 57.1153 77.3394 56.9254 74.9391 57.4915C74.5188 57.5914 74.1417 57.6328 73.7196 57.7264C73.3532 57.8263 72.9713 57.8568 72.5937 57.8164C72.4992 57.7696 72.4524 57.676 72.5469 57.5824C72.8805 57.3999 73.2482 57.288 73.6269 57.2539C74.0004 57.154 74.4234 57.1081 74.7969 57.019C75.2003 56.9463 75.6079 56.8994 76.0173 56.8786C76.4394 56.8318 76.8147 56.7373 77.2368 56.6905C77.4267 56.6005 77.5212 56.9317 77.3322 56.9758Z" fill="#191919"/>
<path d="M82.0763 59.3689C82.2685 59.6703 82.4411 59.9838 82.5929 60.3076C82.9214 60.9646 83.6324 63.8239 83.8601 64.4836C83.9078 64.624 84.1409 64.624 84.1409 64.4836C84.2822 63.5917 83.1509 60.0736 82.6865 59.2753C82.5527 58.9339 82.2938 58.6564 81.9625 58.4994C81.6312 58.3423 81.2525 58.3176 80.9036 58.4302C79.964 58.7083 80.3123 60.016 80.7155 60.7765C80.7264 60.7954 80.7432 60.8103 80.7633 60.8189C80.7835 60.8275 80.8059 60.8293 80.8272 60.824C80.8484 60.8187 80.8674 60.8066 80.8811 60.7896C80.8949 60.7726 80.9028 60.7515 80.9036 60.7297C80.8235 60.3123 80.7933 59.8869 80.8136 59.4625C80.8462 59.3252 80.9216 59.202 81.029 59.1105C81.1363 59.019 81.27 58.9641 81.4107 58.9536C81.5513 58.9432 81.6916 58.9778 81.8113 59.0525C81.931 59.1271 82.0238 59.2379 82.0763 59.3689Z" fill="#191919"/>
<path d="M85.8254 64.624C86.0335 63.4445 86.0335 62.2377 85.8254 61.0582C85.784 60.7288 85.7354 60.1663 85.4501 59.9323C85.4289 59.9097 85.4017 59.8936 85.3718 59.8859C85.3418 59.8781 85.3103 59.879 85.2808 59.8884C85.2513 59.8978 85.2251 59.9154 85.2052 59.9391C85.1853 59.9628 85.1725 59.9916 85.1684 60.0223C85.0343 60.5623 85.6382 60.7819 85.6382 64.6204C85.6382 64.7185 85.8254 64.7653 85.8254 64.624Z" fill="#191919"/>
<path d="M86.8111 59.6506C86.7868 59.6372 86.7595 59.6304 86.7318 59.6309C86.7041 59.6314 86.6771 59.6391 86.6533 59.6533C86.6295 59.6675 86.6099 59.6877 86.5964 59.7118C86.5828 59.736 86.5759 59.7633 86.5762 59.791C86.6405 60.1544 86.7678 60.5037 86.9524 60.8233C87.3642 61.8707 87.5863 62.983 87.6085 64.1083C87.6111 64.1376 87.6245 64.165 87.6463 64.1849C87.668 64.2048 87.6964 64.2159 87.7259 64.2159C87.7554 64.2159 87.7838 64.2048 87.8056 64.1849C87.8273 64.165 87.8408 64.1376 87.8434 64.1083C88.0693 62.1859 87.2962 60.0565 86.8111 59.6506Z" fill="#191919"/>
<path d="M88.7821 61.2931C89.035 63.5683 88.9567 63.2883 89.017 63.8265C89.017 63.9165 89.1574 63.9669 89.2042 63.8265C89.4795 62.103 89.3673 60.3398 88.8757 58.665C88.5516 57.379 88.0793 56.135 87.4681 54.958C87.3068 54.5551 87.0677 54.1881 86.7643 53.8779C86.7345 53.8561 86.6988 53.8438 86.6619 53.8429C86.625 53.8421 86.5887 53.8525 86.5579 53.873C86.5272 53.8934 86.5034 53.9228 86.49 53.9572C86.4765 53.9916 86.4739 54.0293 86.4826 54.0651C86.7472 55.1235 88.2502 56.5042 88.7821 61.2931Z" fill="#191919"/>
<path d="M91.3622 50.4066C91.3622 50.4066 87.5651 48.3366 86.7641 47.7318C86.7233 47.7049 86.6748 47.6919 86.626 47.695C86.5772 47.698 86.5307 47.7169 86.4936 47.7487C86.4564 47.7806 86.4307 47.8236 86.4202 47.8714C86.4098 47.9192 86.4152 47.9691 86.4356 48.0135C86.7937 48.926 86.9846 49.8954 86.999 50.8755C87.89 50.7351 90.7997 50.5002 91.3622 50.4066Z" fill="#191919"/>
<path d="M93.38 54.2541C93.38 54.2073 92.0669 51.0636 91.9724 50.8755C91.4324 50.943 87.0935 51.3922 86.999 51.3922C86.999 51.6262 87.0503 51.8611 87.0458 52.096C87.0224 53.41 88.1258 54.9111 88.4066 55.4745C89.2976 55.2864 93.2864 54.2541 93.38 54.2541Z" fill="#191919"/>
<path d="M44.0171 31.2618C42.9031 31.3962 41.8223 31.73 40.8266 32.2473C40.6385 32.3373 40.7798 32.6226 40.967 32.5758C41.5304 32.4813 43.3601 32.0124 43.7354 31.9656C43.5989 32.8294 43.2617 33.6491 42.7508 34.3587C42.7212 34.4067 42.7053 34.4619 42.7049 34.5183C42.7045 34.5748 42.7197 34.6302 42.7486 34.6786C42.7776 34.7269 42.8193 34.7664 42.8692 34.7927C42.9191 34.819 42.9753 34.8311 43.0316 34.8276C44.2015 34.7961 45.3584 34.5742 46.457 34.1706C46.8314 34.0275 46.6919 33.42 46.2698 33.5613C45.4181 33.8578 44.5371 34.0621 43.6418 34.1706C44.0809 33.3771 44.3373 32.4956 44.3924 31.5903C44.4392 31.3554 44.2052 31.2618 44.0171 31.2618Z" fill="#191919"/>
<path d="M51.009 18.9184C51.0523 18.8906 51.088 18.8524 51.1126 18.8073C51.1373 18.7621 51.1502 18.7115 51.1502 18.6601C51.1502 18.6087 51.1373 18.558 51.1126 18.5129C51.088 18.4678 51.0523 18.4296 51.009 18.4018C49.6676 17.6508 48.13 17.3239 46.599 17.464C46.4109 17.464 46.3641 17.7961 46.599 17.7925C47.8905 17.7688 49.1666 18.0755 50.3062 18.6835C49.4774 19.2999 48.7892 20.0856 48.2875 20.9884C48.2643 21.0307 48.2508 21.0776 48.2479 21.1258C48.2451 21.1739 48.2528 21.2221 48.2707 21.2669C48.2886 21.3117 48.3161 21.352 48.3514 21.3849C48.3867 21.4178 48.4287 21.4425 48.4747 21.4573C49.5898 21.7176 50.7175 21.9213 51.8532 22.0675C52.2285 22.1143 52.3222 21.5041 51.9433 21.4105C51.0055 21.1756 50.02 21.0352 49.0813 20.8948C49.5591 20.0933 50.2197 19.416 51.009 18.9184Z" fill="#191919"/>
<path d="M56.2172 76.8712C58.2818 76.8712 63.5369 77.4346 64.0535 77.5282C64.4288 77.575 64.8536 77.7181 65.1335 77.3878C65.3702 77.1079 65.6492 72.5539 65.7437 71.428C65.7437 71.338 65.5556 71.2876 65.5088 71.3812C64.805 73.0237 64.7582 77.0593 64.5233 77.0593C64.2884 77.0593 60.4418 76.6093 59.4554 76.5895C58.3754 76.5643 57.2504 76.5895 56.1713 76.6363C56.0291 76.5895 56.0291 76.8712 56.2172 76.8712Z" fill="#191919"/>
<path d="M59.5493 3.81186C60.4403 4.18716 61.2818 4.61646 62.1764 5.03136C62.6912 5.26986 63.9125 5.64156 63.3968 6.39216C63.1834 6.71001 62.8925 6.96832 62.5517 7.14276C62.1719 7.37046 60.0182 8.87886 59.3117 9.44226C59.27 9.48344 59.2398 9.53475 59.224 9.59115C59.2081 9.64756 59.2073 9.70711 59.2214 9.76395C59.2356 9.8208 59.2643 9.87298 59.3048 9.91536C59.3452 9.95774 59.396 9.98886 59.4521 10.0057C60.3962 10.2181 64.1402 11.2954 65.1302 11.4601C65.4578 11.515 65.5991 11.038 65.2706 10.9444C64.3796 10.6159 61.001 9.77436 60.2972 9.58357C62.7128 7.68457 63.8288 7.56216 64.1447 6.39216C64.5389 4.93506 62.2268 4.61556 59.687 3.57696C59.5016 3.48336 59.408 3.76506 59.5493 3.81186Z" fill="#191919"/>
<path d="M108.162 89.4936C108.162 89.3523 108.02 89.2587 107.88 89.2119C107.342 89.1532 106.797 89.2062 106.28 89.3678C105.763 89.5293 105.286 89.7958 104.877 90.1506C104.735 90.2406 104.925 90.4818 105.064 90.3846C105.799 89.8593 106.697 89.6101 107.598 89.6808C107.598 91.4385 107.554 91.6608 107.739 91.9308C108.209 92.4951 109.246 91.9911 109.989 91.7427C110.051 91.724 110.103 91.6813 110.134 91.6241C110.164 91.5669 110.171 91.4998 110.152 91.4376C110.134 91.3755 110.091 91.3233 110.034 91.2925C109.976 91.2618 109.909 91.2551 109.847 91.2738C108.909 91.4079 108.171 91.9389 108.111 91.5555C108.046 91.1226 108.162 90.462 108.162 89.4936Z" fill="#191919"/>
<path d="M112.103 85.2708C112.054 84.9423 111.774 84.801 111.493 84.6606C110.839 84.3041 110.122 84.0808 109.381 84.0036C109.146 83.9568 109.146 84.2853 109.334 84.3789C109.969 84.6034 110.582 84.886 111.164 85.2231C111.254 85.2708 111.493 85.3176 111.539 85.4112C111.493 85.3644 111.493 85.458 111.449 85.5012C111.406 85.5444 111.359 85.6425 111.309 85.6893C110.886 86.1114 110.409 86.3904 110.229 86.9556C110.178 87.0876 110.156 87.2291 110.164 87.3705C110.173 87.5118 110.212 87.6496 110.279 87.7744C110.346 87.8992 110.439 88.0081 110.552 88.0936C110.665 88.1791 110.795 88.2391 110.933 88.2696C111.287 88.3609 111.648 88.4238 112.013 88.4577C112.413 88.5506 112.822 88.5977 113.232 88.5981C113.514 88.5981 113.56 88.1787 113.279 88.0824C112.091 87.672 110.839 87.8385 110.839 87.2841C110.845 87.1645 110.878 87.0477 110.934 86.9423C110.991 86.8368 111.071 86.7454 111.168 86.6748C111.493 86.3031 112.194 85.8783 112.103 85.2708Z" fill="#191919"/>
<path d="M92.3479 17.9355C90.4777 9.42425 90.3607 7.82225 88.8289 6.34535C88.2028 5.74629 87.4375 5.3125 86.6019 5.08311C85.7664 4.85371 84.8868 4.83592 84.0427 5.03135C83.8555 5.08175 83.9527 5.31305 84.1327 5.31305C84.9052 5.19366 85.6947 5.24979 86.4426 5.47726C87.1904 5.70474 87.8775 6.09772 88.4527 6.62704C89.8648 7.93564 90.1006 9.95705 90.5173 11.7417C92.023 18.192 93.9373 27.8769 94.5061 31.0269C94.5061 31.1169 94.6465 31.215 94.7401 31.215C98.4864 31.2114 102.225 30.8659 105.908 30.1827C106.189 30.1305 106.049 29.7147 105.768 29.7597C102.186 30.3688 98.561 30.6827 94.9282 30.6984C94.1362 26.382 93.2767 22.1583 92.3479 17.9355Z" fill="#38A1FF"/>
<path d="M136.503 28.399C136.602 28.2556 136.672 28.0934 136.707 27.9223C136.742 27.7512 136.742 27.5748 136.707 27.4037C136.672 27.2326 136.602 27.0704 136.503 26.927C136.403 26.7836 136.275 26.6619 136.127 26.5693C133.877 25.0735 124.902 27.8086 122.332 28.6807C122.192 28.7284 122.242 29.0119 122.422 28.9624C124.971 28.2874 132.111 26.0446 135.326 26.7124C136.559 26.9671 136.762 27.9292 135.28 28.9174C134.124 29.6878 131.905 30.1306 130.54 30.4663C127.821 31.1341 125.05 31.6957 122.235 32.1079C121.906 32.1565 122.047 32.6713 122.375 32.5777C125.003 32.1547 130.352 30.982 130.399 30.982C130.688 33.11 131.339 35.1731 132.323 37.0822C131.934 37.1065 122.546 37.8733 122.469 37.8796C122.434 37.8824 122.401 37.8985 122.376 37.9246C122.352 37.9507 122.339 37.9849 122.339 38.0204C122.339 38.0559 122.352 38.0902 122.376 38.1163C122.401 38.1424 122.434 38.1584 122.469 38.1613H123.267C123.538 38.8992 123.57 39.7039 123.357 40.4608C123.277 40.8357 123.29 41.2248 123.397 41.5932C123.503 41.9616 123.699 42.298 123.967 42.5722C124.003 42.6034 124.047 42.6218 124.094 42.6244C124.141 42.6269 124.187 42.6134 124.226 42.586C124.264 42.5587 124.292 42.5192 124.304 42.474C124.317 42.4288 124.314 42.3806 124.296 42.3373C124.056 42.0106 123.901 41.6298 123.843 41.2287C123.786 40.8276 123.829 40.4185 123.967 40.0378C124.356 37.5106 122.479 38.4349 124.671 38.1613V38.3017C125.426 39.1261 124.761 40.5562 124.905 41.6803C125.02 42.5803 125.657 42.8503 125.657 42.4309C125.61 42.2437 125.515 42.0556 125.469 41.8684C125.338 41.2813 125.338 40.6726 125.469 40.0855C125.539 39.7431 125.525 39.3886 125.427 39.0531C125.329 38.7177 125.149 38.4114 124.905 38.1613C125.375 38.1613 125.797 38.1145 126.266 38.1145C127.129 39.1342 126.536 40.3825 126.783 41.4445C126.81 41.6494 126.891 41.8435 127.018 42.007C127.108 42.1483 127.252 42.3823 127.44 42.3823C127.58 42.3823 127.721 42.2923 127.675 42.1483C127.599 41.9517 127.505 41.763 127.393 41.5849C126.967 40.4788 127.634 38.9749 126.783 38.0191C127.049 38.027 127.316 38.011 127.58 37.9714C128.003 37.9246 128.425 37.9246 128.847 37.8814C129.459 38.4061 128.811 39.7039 129.316 41.1214C129.399 41.486 129.597 41.8146 129.88 42.0592C129.97 42.1069 130.068 42.0592 130.068 41.9692C130.068 41.4346 129.551 40.8991 129.551 39.5761C129.639 38.9919 129.523 38.3954 129.223 37.8868C129.457 37.8868 129.691 37.84 129.926 37.84C129.926 38.2054 130.445 38.1379 130.677 40C130.738 40.583 130.931 41.1445 131.24 41.6425C131.538 42.0925 131.897 42.0241 131.897 41.7838C131.868 41.6073 131.786 41.4437 131.662 41.314C131.565 41.1514 131.487 40.9784 131.428 40.7983C131.148 40.0495 131.196 38.3359 130.302 37.8886C131.005 37.8418 131.662 37.7986 132.366 37.7482C133.233 38.5474 132.552 40.1386 133.023 41.314C133.156 41.6461 133.399 42.0646 133.774 42.0178C133.864 42.0178 133.962 41.9278 133.915 41.8306C133.726 41.5273 133.554 41.2139 133.399 40.8919C133.113 39.9163 133.619 38.623 132.788 37.7014C132.833 37.6696 132.87 37.6273 132.894 37.5782C132.919 37.5291 132.931 37.4746 132.93 37.4197C133.172 36.9346 132.332 36.9481 130.63 30.991C132.5 30.5752 135.522 29.9389 136.503 28.399Z" fill="#38A1FF"/>
<path d="M77.6606 5.59834C77.7134 5.09421 77.8912 4.61125 78.1781 4.19333C78.4649 3.77541 78.8516 3.43577 79.3031 3.20524C80.2792 2.69666 81.349 2.39313 82.4468 2.31334C90.5018 1.24594 97.331 1.75084 104.642 1.75084C114.327 1.75084 115.73 0.749142 118.952 1.28104C123.033 1.95424 125.195 5.40664 126.975 8.93104C130.94 16.7745 133.026 22.287 133.635 23.7585C133.776 24.0402 134.245 23.8485 134.104 23.5704C132.742 19.7904 129.789 13.3554 128.052 9.91654C126.348 6.54514 124.346 2.54284 120.544 1.18654C117.238 0.00934285 115.225 1.15144 105.95 1.27654C98.0006 1.38724 90.7025 0.773443 83.1929 1.79314C81.1742 2.06314 78.6029 2.33854 77.6552 4.37344C77.4551 4.76703 77.343 5.19942 77.3267 5.64064C77.3798 5.77834 77.657 5.77834 77.6606 5.59834Z" fill="#38A1FF"/>
<path d="M122.379 41.35C122.332 40.6462 122.191 39.9892 122.144 39.2854C122.141 39.2568 122.127 39.2306 122.105 39.2115C122.084 39.1925 122.056 39.182 122.027 39.182C121.998 39.182 121.971 39.1925 121.949 39.2115C121.927 39.2306 121.914 39.2568 121.91 39.2854C121.91 40.4032 121.73 42.9268 122.426 43.2742C122.447 43.2845 122.47 43.2904 122.494 43.2915C122.517 43.2925 122.541 43.2887 122.563 43.2803C122.585 43.2718 122.605 43.2589 122.622 43.2424C122.639 43.2259 122.652 43.206 122.661 43.1842C122.66 42.8967 122.612 42.6112 122.519 42.3391C122.404 42.0228 122.356 41.6859 122.379 41.35Z" fill="#38A1FF"/>
<path d="M94.6471 37.1271C94.6683 37.1103 94.6854 37.0889 94.6972 37.0645C94.7089 37.0401 94.715 37.0134 94.715 36.9863C94.715 36.9592 94.7089 36.9325 94.6972 36.9081C94.6854 36.8837 94.6683 36.8623 94.6471 36.8454C94.3885 36.7558 94.1212 36.6931 93.8497 36.6582C93.0005 36.4796 92.1682 36.2282 91.3621 35.9067C90.6151 35.6466 89.1121 35.2965 88.4533 35.6259C88.1833 30.3465 85.6354 8.58364 85.3096 6.72064C85.3096 6.58024 85.0729 6.63064 85.0747 6.76744C85.1035 8.78254 85.8379 15.6423 86.0602 17.6574C88.2616 37.5474 87.7306 35.4225 88.3102 36.0048C88.828 35.9791 89.347 36.0093 89.8582 36.0948C90.8914 36.2667 92.0443 36.8148 93.0982 37.0803C93.6043 37.2132 94.134 37.2292 94.6471 37.1271Z" fill="#38A1FF"/>
<path d="M89.1106 38.4879C89.2078 38.1097 89.1979 37.7119 89.0818 37.339C88.9658 36.9661 88.7483 36.6328 88.4536 36.3765C88.3132 36.2865 88.1719 36.4665 88.2655 36.5637C89.3788 38.1225 87.5914 40.4031 88.6417 41.3031C88.6595 41.3131 88.6794 41.3186 88.6998 41.3192C88.7202 41.3199 88.7404 41.3156 88.7587 41.3068C88.7771 41.298 88.7931 41.2848 88.8053 41.2685C88.8175 41.2522 88.8256 41.2332 88.8289 41.2131C88.8523 40.9948 88.8523 40.7745 88.8289 40.5561V39.8523C88.947 39.4028 89.041 38.9474 89.1106 38.4879Z" fill="#38A1FF"/>
<path d="M90.1897 39.5203C90.1224 39.8762 90.0922 40.2381 90.0997 40.6003C90.1465 40.7416 90.2869 40.882 90.4282 40.7416C90.6295 40.4337 90.7431 40.0768 90.7567 39.7093C90.8295 39.2899 90.8761 38.8664 90.8962 38.4412C90.9381 38.1178 90.8902 37.7892 90.7578 37.4913C90.6254 37.1933 90.4136 36.9375 90.1456 36.7519C90.0043 36.6619 89.8639 36.8419 89.9575 36.9868C90.5533 37.7338 90.3121 38.6635 90.1897 39.5203Z" fill="#38A1FF"/>
<path d="M91.976 39.3321C92.0705 39.3321 92.1641 39.3321 92.2109 39.2421C92.3348 38.9622 92.3663 38.6501 92.3009 38.3511C92.3009 38.163 92.1605 37.3188 91.832 37.4124C91.5971 37.4592 91.742 37.9749 91.742 38.1162C91.8752 38.6616 91.7177 39.3321 91.976 39.3321Z" fill="#38A1FF"/>
<path d="M97.6037 2.59144C97.5743 2.58912 97.545 2.59768 97.5215 2.6155C97.4979 2.63331 97.4817 2.65915 97.476 2.6881C97.4702 2.71705 97.4752 2.74712 97.4902 2.77259C97.5051 2.79807 97.5288 2.81719 97.5569 2.82634C103.797 4.09354 108.812 8.50803 112.666 13.3374C114.113 15.1509 114.993 16.482 115.996 17.6574C116.022 17.6836 116.057 17.6991 116.094 17.7011C116.131 17.7032 116.168 17.6915 116.197 17.6684C116.226 17.6453 116.245 17.6123 116.252 17.5758C116.258 17.5393 116.251 17.5017 116.231 17.4702C115.358 16.0429 114.386 14.6787 113.322 13.3878C109.341 8.07063 104.186 3.65884 97.6037 2.59144Z" fill="#38A1FF"/>
<path d="M116.138 13.5714C116.048 13.4814 115.857 13.6182 115.997 13.7127C117.406 15.1671 118.711 16.6278 120.033 18.1227C121.203 19.443 122.317 21.3825 123.787 22.3932C123.926 22.4895 124.068 22.3032 124.021 22.1583C121.612 19.1035 118.977 16.2331 116.138 13.5714Z" fill="#38A1FF"/>
<path d="M13.046 44.8221C17.3174 46.4835 16.9925 47.2908 17.879 47.685C18.0194 47.7318 18.1139 47.6382 18.1139 47.4969C17.9726 46.6527 16.7576 46.0335 16.0493 45.6672C15.0931 45.2317 14.1046 44.8706 13.0928 44.5872C13.001 44.6349 12.956 44.8221 13.046 44.8221Z" fill="#191919"/>
</svg>
