<svg width="247" height="320" viewBox="0 0 247 320" fill="none" xmlns="http://www.w3.org/2000/svg">
<path d="M203.299 21.0656C203.352 15.7733 203.661 13.2841 209.729 12.099C213.656 11.3331 217.197 13.0838 220.535 15.0382C226.852 18.7368 229.708 24.6967 231.178 31.5156C233.928 44.2668 203.03 47.2424 203.297 21.0656H203.299Z" fill="#38A1FF"/>
<path d="M57.9416 9.90981C61.3071 4.89868 73.3148 0.782832 78.997 0.111807C85.5071 -0.655818 91.4722 2.58201 89.3211 8.20033C82.0433 27.2047 49.7358 22.128 57.9416 9.90981Z" fill="#38A1FF"/>
<path d="M1.96876 99.6307C3.21938 96.2066 5.17898 93.124 6.69008 89.8224C9.70366 83.2415 22.793 88.2492 21.1922 110.274C20.2331 123.474 -4.34129 116.898 1.96876 99.6307Z" fill="#38A1FF"/>
<path d="M210.1 102.27C204.951 102.351 204.732 110.443 210.076 110.296C215.612 110.144 215.275 102.187 210.1 102.27Z" fill="#38A1FF"/>
<path d="M213.533 97.4037C213.504 100.045 217.828 100.969 218.63 97.521C218.106 94.1072 213.562 94.7127 213.533 97.4037Z" fill="#38A1FF"/>
<path d="M202.076 92.3684C196.012 92.3598 195.983 101.564 201.967 101.656C207.951 101.747 208.532 92.3788 202.076 92.3684Z" fill="#38A1FF"/>
<path d="M245.867 94.8953C243.019 58.0734 211.496 54.4302 193.551 29.2194C181.822 12.7422 157.29 -2.58967 133.847 0.936226C107.235 4.93999 93.1971 25.7711 64.7346 26.6077C40.3932 27.3236 32.4668 26.3145 20.3055 45.8725C13.0812 57.4921 14.6165 71.0454 21.137 82.013C25.2149 88.8716 27.4971 92.244 28.3509 100.543C30.6573 122.989 21.5165 139.105 35.4631 153.766C42.3631 161.02 48.8405 168.313 72.4747 174.383C72.6627 174.432 73.7133 174.549 75.4728 174.714C77.1788 172.796 79.2574 170.531 81.7811 167.804C86.4524 162.757 86.3058 163.323 86.2402 162.574C82.221 115.659 92.5658 77.1657 118.717 41.4237C121.07 38.2083 125.274 36.1763 127.399 36.1763C135.285 36.1763 145.679 56.2691 150.486 65.3805C178.05 117.615 166.496 156.209 169.149 162.043C176.171 169.319 180.451 173.904 182.933 177.373C184.815 176.943 186.156 176.415 186.844 175.777C200.309 171.371 211.032 166.443 221.661 156.48C237.587 141.55 247.642 117.883 245.863 94.8953H245.867ZM55.1454 72.9153C55.1454 76.7517 49.3476 76.7517 49.3476 72.9153C49.3476 69.0789 55.1454 69.0789 55.1454 72.9153ZM54.74 149.272C44.233 149.914 42.5649 140.608 45.3249 130.577C46.8429 125.064 52.2663 124.539 55.8285 127.236C66.3734 135.214 67.4498 149.997 54.74 149.272ZM66.8685 49.2949C66.8685 46.2589 71.4604 46.2589 71.4604 49.2949C71.4604 52.3309 66.8685 52.3309 66.8685 49.2949ZM70.8981 154.277C70.8981 151.241 75.49 151.241 75.49 154.277C75.49 157.313 70.8981 157.313 70.8981 154.277ZM70.296 91.8938C70.296 88.0574 76.0938 88.0574 76.0938 91.8938C76.0938 95.7302 70.296 95.7302 70.296 91.8938ZM161.552 28.5294C161.552 25.4934 166.144 25.4934 166.144 28.5294C166.144 31.5654 161.552 31.5654 161.552 28.5294ZM169.898 52.0221C169.898 48.1857 175.694 48.1857 175.694 52.0221C175.694 55.8585 169.898 55.8585 169.898 52.0221ZM185.402 64.6698C185.402 60.8334 191.2 60.8334 191.2 64.6698C191.2 68.5062 185.402 68.5062 185.402 64.6698ZM186.851 151.982C186.851 148.946 191.443 148.946 191.443 151.982C191.443 155.018 186.851 155.018 186.851 151.982ZM211.97 139.976C211.97 136.14 217.768 136.14 217.768 139.976C217.768 143.813 211.97 143.813 211.97 139.976ZM208.322 116.67C200.639 116.794 192.028 110.134 192.229 100.193C192.397 91.8869 199.364 84.7195 208.272 84.6091C229.448 84.3469 229.793 116.323 208.322 116.67Z" fill="#38A1FF"/>
<path d="M177.382 318.985C108.5 316.766 113.476 321.175 83.0541 319.573C70.6824 318.921 63.9497 320.028 57.0204 313.056C52.0196 308.022 50.2325 297.852 52.9011 291.005C55.7042 283.814 63.7703 278.404 67.7999 280.719C70.3563 282.189 71.6863 273.503 83.5198 275.27C85.9176 275.629 85.1465 278.275 83.3973 277.88C76.2024 276.256 70.3443 281.816 68.8642 289.04C68.7452 289.618 68.7745 290.36 67.9362 290.377C66.9926 290.396 67.0219 289.539 66.9391 288.954C66.3699 284.904 68.5054 283.814 66.5596 283.62C61.9746 283.165 53.8947 289.31 55.2057 300.962C56.2303 310.068 62.8353 315.04 69.844 315.216C110.623 316.24 89.164 316.492 124.318 314.85C184.746 312.028 213.43 323.318 207.787 295.426C206.298 288.069 197.282 283.952 192.141 290.952C190.02 293.841 189.951 295.637 188.624 295.268C187.122 294.85 187.684 290.864 190.792 287.288C191.534 286.434 191.52 285.835 190.972 285.014C187.66 280.057 183.258 276.733 177.217 275.898C174.909 275.579 171.893 277.031 171.538 276.063C170.931 274.407 177.403 271.766 183.899 274.428C193.744 278.463 192.504 285.044 194.927 284.29C202.721 281.87 212.289 287.552 211.863 299.647C211.104 321.179 196.961 317.97 177.382 318.985Z" fill="#38A1FF"/>
<path d="M109.203 289.622C121.449 290.212 122.306 297.129 123.54 295.59C127.404 290.772 136.934 292.213 140.46 296.222C142.482 298.519 141.873 292.623 149.567 290.303C161.24 286.782 169.822 302.133 166.087 303.553C163.825 304.414 163.824 301.169 160.893 297.555C156.349 291.952 147.153 289.46 141.017 303.989C140.805 304.491 140.562 305.124 139.838 304.95C139.042 304.759 139.139 304.058 139.189 303.454C139.356 301.419 141.231 299.849 137.69 297.5C132.66 294.164 127.428 293.967 123.981 298.923C123.024 300.299 121.87 300.353 120.92 298.93C118.266 294.957 114.256 293.605 109.809 293.122C102.457 292.323 101.068 296.323 99.6641 294.864C98.1409 293.282 103.707 289.356 109.203 289.622Z" fill="#38A1FF"/>
<path d="M157.407 268.686C165.067 268.739 171.898 275.537 171.866 282.932C171.859 284.373 169.925 284.78 169.388 283.405C164.698 271.409 156.722 269.89 149.782 274.268C143.907 277.975 143.781 282.313 142.128 281.578C140.127 280.686 146.62 268.611 157.408 268.687L157.407 268.686Z" fill="#38A1FF"/>
<path d="M101.603 269.867C104.841 269.527 112.25 270.964 111.221 273.502C110.347 275.663 108.386 273.559 105.27 273.233C96.9023 272.356 88.2721 277.864 84.8618 285.551C83.3627 288.928 83.8682 290.541 82.5917 290.279C79.5764 289.66 84.8928 271.622 101.603 269.865V269.867Z" fill="#38A1FF"/>
<path d="M123.557 292.389C122.948 292.973 121.401 292.834 121.37 291.169C121.37 291.076 120.942 277.454 120.957 257.461C120.957 256.171 121.023 254.861 122.31 254.82C123.923 254.768 123.883 255.003 123.902 260.611C123.902 260.647 124.28 291.693 123.557 292.389Z" fill="#38A1FF"/>
<path d="M138.692 283.169C138.468 263.088 138.268 256.579 138.494 254.523C138.634 253.248 140.412 253.224 140.581 254.578C140.859 256.788 140.629 263.945 140.847 286.624C140.89 291.142 141.588 293.075 139.876 293.094C138.316 293.111 138.789 291.773 138.692 283.169Z" fill="#38A1FF"/>
<path d="M116.153 271.076C116.153 287.674 116.519 287.814 114.899 287.85C113.28 287.886 113.431 287.923 113.419 257.564C113.419 256.209 113.323 255.149 114.666 255.053C116.642 254.911 116.153 256.109 116.153 271.076Z" fill="#38A1FF"/>
<path d="M85.0084 297.536C88.5929 297.59 96.0018 300.41 94.5666 302.746C92.5966 305.945 82.8521 291.059 71.3257 310.27C70.4545 311.722 69.4196 310.962 69.806 309.628C71.5551 303.575 77.1717 297.419 85.0084 297.536Z" fill="#38A1FF"/>
<path d="M166.473 164.437C161.195 158.967 176.025 121.404 147.322 67.0609C144.576 61.8617 132.055 37.679 126.652 39.9146C124.684 40.7288 122.895 41.8 121.615 43.5491C94.8877 80.076 86.0781 118.43 89.8127 162.281C90.0387 164.934 89.5471 164.699 84.41 170.25C72.3781 183.25 71.6053 184.752 72.0159 187.423C73.6184 197.814 77.184 213.848 81.079 232.231C81.6414 234.888 81.7035 238.1 84.1651 238.246C86.0833 238.36 86.599 236.256 87.0941 234.36C89.9266 223.518 91.4135 209.294 92.8901 207.526C93.9665 206.239 95.1809 204.992 96.2918 203.812C97.4027 202.632 97.4027 202.651 97.9979 204.148C105.94 224.136 115.557 221.46 114.503 224.948C106.861 250.244 107.208 250.958 110.699 250.885C125.896 250.575 137.618 249.925 145.782 249.505C148.92 249.343 148.052 246.975 146.815 241.632C142.423 222.685 141.951 223.127 142.982 222.561C150.445 218.461 155.107 209.485 157.854 201.428C161.219 205.056 162.018 205.528 162.454 207.945C163.45 213.458 166.361 230.135 168.033 234.46C169.064 237.13 172.023 236.804 172.923 232.519C181.624 191.099 179.794 198.319 182.069 187.724C183.139 182.746 182.402 180.938 166.473 164.434V164.437ZM112.089 63.9852C114.68 58.7619 121.073 47.2217 125.701 43.6768C131.121 39.5247 144.783 68.4426 147.655 74.6336C148.899 77.3126 148.889 77.3005 146.163 78.5511C134.19 84.0487 119.498 84.7335 105.571 79.5878C104.67 79.2549 104.044 80.2002 112.088 63.9869L112.089 63.9852ZM102.221 85.8789C102.723 84.7853 102.869 83.1224 103.687 82.6946C105.007 82.0063 114.686 87.8316 130.319 86.3878C147.792 84.7732 149.374 77.0814 150.478 81.0472C151.285 83.94 152.832 84.4592 150.643 85.6167C133.885 94.4815 100.541 89.5445 102.221 85.8789ZM90.1681 205.563C89.3504 206.434 89.742 205.476 84.479 232.875C84.1133 234.779 84.5636 235.491 80.0837 212.806C74.6224 185.159 74.2325 186.807 76.08 184.668C79.9354 180.2 86.8751 172.507 90.3596 169.241C93.8234 205.578 101.186 193.833 90.1698 205.564L90.1681 205.563ZM150.945 208.223C147.457 214.969 142.646 219.016 135.365 222.43C133.935 223.101 134.211 223.61 133.826 226.722C139.143 224.714 139.132 224.308 139.541 225.692C141.023 230.718 143.398 242.112 144.123 245.291C144.642 247.572 145.033 245.32 111.675 248.077C111.958 246.873 112.21 245.722 112.503 244.582C118.424 221.574 116.636 225.028 119.448 225.769C118.667 219.961 119.874 223.13 113.39 218.738C81.0152 196.815 95.0533 87.7557 101.624 90.4105C116.305 96.341 138.116 94.547 149.375 89.5359C152.566 88.1162 152.832 86.8622 153.448 88.651C167.962 130.786 162.963 184.975 150.945 208.223ZM171 227.876C170.281 231.51 170.268 231.393 170.025 231.45C164.077 200.339 166.427 206.097 159.392 198.281C159.077 197.93 159.023 197.623 159.166 197.152C163.812 181.923 164.193 169.816 164.605 167.89C166.021 168.511 176.987 181.037 178.773 183.124C180.132 184.713 179.813 183.352 171 227.876Z" fill="white"/>
<path d="M129.043 241.084C127.685 244.066 125.098 243.311 124.049 241.134C119.648 232.002 115.643 180.333 115.51 173.916C115.419 169.5 114.786 165.757 118.912 163.825C126.153 160.433 138.271 160.627 137.55 170.847C136.885 180.283 132.962 232.474 129.043 241.084ZM134.568 176.134C135.475 167.885 133.862 166.057 129.527 165.436C126.512 165.005 120.304 165.31 119.081 168.235C116.862 173.542 119.065 177.757 120.245 198.361C120.368 200.498 123.866 239.247 126.469 239.05C129.036 238.857 129.771 219.735 134.568 176.134Z" fill="white"/>
<path d="M127.783 147.058C117.47 147.099 109.816 138.483 109.766 129.021C109.712 118.693 118.503 110.298 128.494 110.677C152.166 111.576 151.67 146.965 127.783 147.058ZM127.977 144.813C136.921 144.781 143.738 137.668 143.859 129.29C143.99 120.256 136.653 113.075 127.67 113.136C118.686 113.196 112.107 120.077 111.986 128.849C111.865 137.62 119.231 144.844 127.978 144.812L127.977 144.813Z" fill="white"/>
<path d="M116.419 129.089C116.447 113.572 139.859 113.541 139.746 129.199C139.633 145.214 116.392 144.765 116.419 129.089ZM124.472 125.761C124.342 123.617 123.062 123.215 121.629 124.919C118.194 128.999 123.078 136.963 124.987 135.38C125.639 134.838 122.998 130.948 124.472 125.761Z" fill="#38A1FF"/>
</svg>
