<svg width="285" height="206" viewBox="0 0 285 206" fill="none" xmlns="http://www.w3.org/2000/svg">
<path d="M158.56 17.0208C147.963 20.3808 139.498 26.8176 134.841 33.0288C123.807 46.8192 119.899 69.0416 127.579 87.2448C136.942 109.243 161.409 119.074 183.345 112.65C190.421 110.704 196.96 106.987 202.419 101.806C203.484 102.942 208.033 107.486 209.001 108.829C211.326 103.976 214.618 97.7792 215.586 94.9903C214.469 93.5971 213.202 92.3495 211.81 91.2735C217.575 84.6367 221.361 76.3227 222.688 67.3868C224.016 58.4508 222.824 49.2957 219.265 41.0832C209.476 18.5376 182.821 9.33917 158.56 17.0208ZM217.231 70.7215C215.469 80.6767 210.093 90.6607 201.739 95.6095C201.45 95.8175 201.063 95.3007 201.354 95.0943C207.138 90.2337 211.516 83.7279 213.983 76.3274C216.449 68.9268 216.904 60.9332 215.295 53.2688C213.102 42.6288 207.508 33.9088 200.385 26.1088C200.287 26.0064 200.385 25.696 200.58 25.7984C211.575 34.3504 220.458 52.4864 217.231 70.7215ZM125.74 67.1072C125.64 60.3265 127.103 53.6233 130 47.5872C130.096 47.3808 130.387 47.4848 130.29 47.6912C126.799 57.3838 126.223 67.9948 128.64 78.0527C130.189 84.6623 133.29 90.0319 136.675 95.7119C136.966 96.2287 136.288 96.848 135.804 96.4352C131.04 91.544 125.922 80.0527 125.74 67.1072ZM168.436 104.078C162.651 103.858 156.988 102.233 151.879 99.3279C126.57 84.984 128.605 44.5248 154.107 30.4464C174.445 19.056 204.175 25.2736 210.937 49.7584C213.549 59.3825 212.686 69.7011 208.518 78.68C201.562 93.7327 185.184 104.864 168.436 104.078Z" fill="#38A1FF"/>
<path d="M227.688 158.709C227.979 160.981 228.269 163.562 226.913 165.525C224.784 168.418 220.718 169.139 217.613 169.862C209.175 171.942 44.3131 202.982 40.7281 203.632C34.8061 204.846 31.2406 203.712 29.1106 197.746C23.3506 180.731 0.697583 48.3504 1.81058 42.4256C2.39108 39.328 4.90808 38.2944 7.42508 37.7776C10.9111 37.056 177.825 4.112 187.311 2.976C189.828 2.6656 192.347 2.4592 194.766 2.1504C196.605 1.9424 198.93 1.3232 200.576 2.4592C203.678 4.2672 205.58 16.1888 205.707 20.2192C205.719 20.4293 205.806 20.6265 205.95 20.7706C206.094 20.9147 206.284 20.995 206.481 20.995C206.678 20.995 206.868 20.9147 207.012 20.7706C207.156 20.6265 207.243 20.4293 207.255 20.2192C207.062 16.4783 206.477 12.7721 205.512 9.1696C203.357 0.300799 200.757 0.0496015 196.512 0.288001C177.321 1.9472 160.748 5.528 144.036 8.8592C132.321 11.2336 25.5361 32.5088 12.1726 35.4C6.85508 36.6144 2.08358 36.088 0.459083 41.2864C-0.509917 44.6944 0.264084 48.4112 0.844584 51.8192C2.36558 59.9296 2.89958 69.2464 11.6881 119.152C16.9171 149.003 22.3381 176.336 24.7591 187.518C26.0866 193.493 26.9641 201.17 31.4401 204.35C35.9641 207.488 44.0251 204.706 55.1596 202.493C78.5881 197.949 210.744 173.053 214.91 172.131C219.473 171.066 225.591 170.256 228.077 165.832C229.335 163.558 228.948 160.872 228.659 158.293C229.412 147.376 224.55 130.954 227.688 158.709Z" fill="white"/>
<path d="M72.9751 53.2688C84.4981 50.904 120.512 44.0784 126.999 42.8384C127.871 42.632 127.482 41.2896 126.612 41.496C98.8141 45.696 36.9856 59.3072 36.7621 59.7744C36.6661 59.8784 39.9571 82.1856 40.8286 83.6304C41.8231 84.9936 37.8286 85.128 102.114 72.2704C108.6 70.928 115.281 69.6896 121.671 67.9328C121.736 67.9066 121.791 67.8571 121.825 67.7929C121.86 67.7286 121.872 67.6535 121.861 67.5805C121.849 67.5074 121.814 67.4408 121.762 67.3921C121.71 67.3435 121.643 67.3157 121.574 67.3136C108.485 69.0432 99.0976 71.5488 65.2261 78.1568C57.4816 79.7056 49.4461 80.7392 41.7976 83.0112C41.8936 82.9072 38.4091 62.3568 37.9246 60.704C49.7386 59.0528 61.3591 55.6544 72.9751 53.2688Z" fill="white"/>
<path d="M44.5109 63.5968C44.4134 63.08 43.5419 63.1824 43.6394 63.6992C44.2199 68.5536 44.8979 73.5104 45.8669 78.3632C46.0604 79.3968 47.5169 78.984 47.3189 77.9504C46.4534 71.4896 44.8499 65.76 44.5109 63.5968Z" fill="white"/>
<path d="M31.3501 113.786C36.0721 112.643 118.388 96.2304 118.97 96.1264C119.646 96.024 117.516 83.424 116.84 83.528C103.866 86.1088 29.4136 100.877 29.1226 101.608C28.7296 102.323 30.5656 113.974 31.3501 113.786Z" fill="white"/>
<path d="M130.871 156.024C131.549 155.92 129.419 143.32 128.741 143.426C115.767 146.006 41.316 160.774 41.025 161.506C40.7355 162.125 42.477 173.794 43.3485 173.691C48 172.651 130.388 156.128 130.871 156.024Z" fill="white"/>
<path d="M217.329 95.0944C216.395 97.1488 209.216 111.939 208.712 112.96C207.642 114.69 206.796 116.565 206.194 118.536C205.612 122.357 212.874 119.776 214.326 119.259C221.127 117.166 226.958 112.456 230.69 106.04C230.301 106.763 235.626 109.346 236.208 109.654C240.558 111.618 246.567 113.373 251.021 110.688C251.214 110.584 251.117 110.171 250.925 110.171C245.825 110.474 242.344 110.846 235.624 107.589C234.03 106.921 232.531 106.018 231.173 104.904C231.134 104.805 231.072 104.72 230.991 104.656C230.911 104.593 230.816 104.553 230.717 104.543C230.617 104.532 230.517 104.551 230.427 104.596C230.336 104.642 230.259 104.713 230.203 104.802C226.335 110.884 220.682 115.425 214.133 117.71C212.97 118.123 209.195 119.878 208.032 118.949C207.258 118.33 209.097 115.851 209.382 115.334C210.973 112.331 219.152 94.4448 220.71 92.6144C222.033 91.3988 223.708 90.7056 225.453 90.6512C232.908 89.5152 240.17 87.8624 247.721 87.656C257.519 87.656 255.804 88.4416 260.696 88.896C262.826 89.1024 264.567 87.76 266.408 86.8304C267.375 86.3136 271.248 83.9392 272.216 83.32C272.278 83.291 272.327 83.2374 272.352 83.1705C272.378 83.1037 272.378 83.0288 272.353 82.9618C272.328 82.8947 272.279 82.8406 272.218 82.811C272.156 82.7814 272.086 82.7786 272.022 82.8032C263.945 86.2496 262.891 87.6736 260.791 87.4432C256.725 87.0304 252.756 86.1008 248.594 86.1008C240.557 86.1008 232.812 87.8608 224.872 89.096C220.95 89.6624 219.347 90.6576 217.329 95.0944Z" fill="white"/>
<path d="M241.05 118.019C241.081 117.972 241.102 117.918 241.113 117.861C241.123 117.804 241.122 117.745 241.11 117.689C241.098 117.632 241.075 117.579 241.042 117.532C241.01 117.486 240.969 117.447 240.922 117.419C240.874 117.39 240.822 117.372 240.768 117.366C240.714 117.36 240.659 117.366 240.608 117.384C240.556 117.402 240.508 117.431 240.468 117.47C240.427 117.508 240.395 117.555 240.372 117.608C235.097 126.568 223.019 135.168 214.619 129.792C212.272 128.212 210.576 125.738 209.876 122.874C209.778 122.563 209.294 122.667 209.391 122.978C209.391 128.912 214.829 133 220.526 133.2C223.509 133.197 226.442 132.38 229.046 130.826C234.133 127.897 238.306 123.446 241.05 118.019Z" fill="white"/>
<path d="M225.074 140.326C232.586 143.077 240.986 137.728 245.696 130.826C246.521 129.818 247.176 128.664 247.632 127.418C247.728 127.211 247.439 126.901 247.244 127.109C244.659 128.893 243.251 132.67 238.434 136.091C230.679 141.691 223.338 139.314 221.588 136.091C221.557 136.03 221.507 135.983 221.446 135.959C221.385 135.935 221.318 135.936 221.257 135.962C221.197 135.988 221.148 136.037 221.119 136.099C221.091 136.161 221.085 136.233 221.103 136.299C221.376 137.283 221.887 138.172 222.583 138.879C223.28 139.586 224.139 140.085 225.074 140.326Z" fill="white"/>
<path d="M251.505 140.222C253.076 138.303 254.175 135.996 254.7 133.51C254.796 132.891 254.022 132.374 253.731 133.098C251.832 137.149 250.367 139.978 246.954 142.698C243.988 145.248 240.307 146.666 236.498 146.726C235.473 146.766 234.452 146.574 233.501 146.165C232.55 145.756 231.691 145.137 230.979 144.35C230.786 144.04 230.303 144.454 230.496 144.763C230.929 145.673 231.602 146.427 232.433 146.933C233.301 147.478 234.25 147.862 235.239 148.069C239.577 148.952 246.705 146.68 251.505 140.222Z" fill="white"/>
<path d="M258.96 138.469C258.913 138.375 258.843 138.297 258.758 138.242C258.673 138.187 258.575 138.159 258.476 138.159C258.376 138.159 258.278 138.187 258.193 138.242C258.108 138.297 258.038 138.375 257.991 138.469C257.313 139.909 257.411 141.566 256.539 143.011C255.649 144.563 254.501 145.928 253.151 147.038C250.925 148.898 244.921 153.339 242.113 150.446C241.822 150.138 241.34 150.55 241.533 150.861C243.566 154.061 247.533 152.203 250.053 150.861C254.047 148.821 261.15 142.35 258.96 138.469Z" fill="white"/>
<path d="M262.638 143.734C262.254 143.01 259.927 141.152 259.831 141.669C258.244 145.815 255.18 149.121 251.311 150.861C251.197 150.899 251.093 150.968 251.011 151.061C250.929 151.155 250.87 151.269 250.841 151.393C250.812 151.517 250.813 151.647 250.844 151.771C250.876 151.895 250.936 152.008 251.02 152.099C252.072 153.235 253.429 153.995 254.904 154.272C256.378 154.55 257.896 154.332 259.249 153.648C260.097 153.253 260.86 152.678 261.493 151.959C262.127 151.24 262.616 150.392 262.933 149.465C263.25 148.538 263.387 147.552 263.336 146.567C263.286 145.582 263.048 144.619 262.638 143.734Z" fill="#38A1FF"/>
<path d="M284.326 109.758C281.582 110.43 278.918 111.434 276.387 112.752C271.182 115.066 267.883 115.792 267.387 118.742C266.805 122.262 267.193 125.354 265.353 128.554C264.091 130.675 262.405 132.474 260.416 133.821C260.127 134.027 260.319 134.648 260.707 134.542C262.902 133.583 264.805 131.996 266.206 129.955C267.607 127.913 268.451 125.499 268.645 122.978C268.84 121.538 268.258 119.363 269.226 118.123C270.105 117.292 271.174 116.722 272.325 116.47C272.325 115.864 280.761 113.534 284.716 110.894C284.833 110.822 284.923 110.708 284.968 110.572C285.014 110.436 285.014 110.288 284.967 110.152C284.921 110.017 284.831 109.903 284.714 109.831C284.597 109.759 284.46 109.733 284.326 109.758Z" fill="white"/>
<path d="M145.78 62.976C150.79 62.1488 152.461 62.1536 152.461 61.216C152.562 58.2714 153.152 55.3693 154.204 52.6448C155.31 49.9468 156.925 47.5209 158.949 45.5184C159.033 45.4267 159.093 45.3138 159.124 45.1902C159.155 45.0667 159.156 44.9368 159.127 44.8127C159.098 44.6886 159.04 44.5745 158.957 44.4813C158.875 44.3881 158.772 44.3188 158.658 44.28C156.836 43.6774 154.948 43.33 153.042 43.2464C151.123 43.1796 149.212 43.5313 147.426 44.28C147.136 44.3824 147.331 44.6928 147.523 44.6928C150.701 43.9066 154.021 44.0856 157.108 45.2096C155.267 47.1478 153.818 49.4674 152.848 52.0256C151.794 54.7052 151.267 57.587 151.299 60.4928C147.895 60.7743 144.542 61.5383 141.327 62.7648C141.147 59.9843 141.41 57.1914 142.102 54.504C142.915 51.7447 144.054 49.1069 145.491 46.6544C145.684 46.3456 145.296 46.0352 145.006 46.2416C143.091 48.458 141.67 51.1074 140.85 53.992C139.904 57.1222 139.575 60.4269 139.882 63.6992C139.972 65.352 144.333 63.216 145.78 62.976Z" fill="#38A1FF"/>
<path d="M171.727 96.9536C168.657 95.5728 166.104 96.7008 159.916 94.0608C153.936 91.3434 148.754 86.955 144.916 81.3584C144.819 81.152 144.528 81.3583 144.625 81.5647C145.044 82.6503 145.563 83.6885 146.175 84.664C150.6 91.2324 157.218 95.7413 164.665 97.2624C166.699 97.6752 169.797 98.3984 171.733 97.2624C171.825 97.2624 171.825 97.056 171.727 96.9536Z" fill="#38A1FF"/>
<path d="M153.429 71.6512C155.156 70.5872 152.946 67.728 152.268 64.9392C152.171 64.4224 150.816 64.8352 150.428 64.9392C149.847 65.0416 141.909 67.52 139.488 69.5792C140.001 71.7093 140.961 73.6871 142.296 75.3632C142.586 75.672 142.877 75.0528 142.682 74.744C141.813 73.2147 141.037 71.6274 140.36 69.992C143.868 68.119 147.625 66.8325 151.5 66.1776C151.769 67.7238 152.157 69.2437 152.661 70.7216C150.106 71.794 147.616 73.0359 145.206 74.44C144.329 74.9999 143.488 75.621 142.688 76.2992C142.398 76.608 142.592 77.1248 142.988 76.9184C146.85 74.6464 152.942 71.96 153.429 71.6512Z" fill="#38A1FF"/>
<path d="M145.393 80.5328C145.104 80.8432 145.491 81.5648 145.878 81.256C148.988 79.02 152.22 76.9854 155.559 75.1632C159.625 81.6688 167.859 84.8704 174.826 85.696C175.503 85.8 175.6 84.664 175.02 84.4576C167.854 82.4944 161.562 79.8096 155.946 74.5376C155.946 73.4896 151.95 73.1984 145.393 80.5328Z" fill="#38A1FF"/>
<path d="M175.02 86.8401C173.956 88.6622 173.08 90.6014 172.405 92.6241C172.212 93.3457 171.534 94.7921 171.727 95.6177C171.825 96.0305 172.503 97.0577 172.89 96.1345C174.148 93.2433 174.54 90.0417 175.6 87.1505C175.891 86.7281 175.309 86.5201 175.02 86.8401Z" fill="#38A1FF"/>
<path d="M203.871 78.0544C203.929 78.2112 204.034 78.3427 204.171 78.4275C204.307 78.5123 204.466 78.5454 204.623 78.5215C204.779 78.4976 204.923 78.4181 205.032 78.2958C205.14 78.1736 205.207 78.0158 205.221 77.848C204.738 72.3744 203.571 67.0048 202.704 61.6336C199.62 42.6208 199.368 40.1392 198.25 36.4352C198.25 36.1568 198.015 36.008 197.767 35.92C195.027 35.9061 192.295 36.2527 189.634 36.952C185.932 37.6576 164.227 40.632 160.492 40.8768C158.944 41.0832 157.492 41.2896 156.04 41.6C155.965 41.601 155.891 41.6201 155.824 41.6558C155.757 41.6916 155.698 41.743 155.652 41.8064C155.458 42.0128 155.652 42.3216 155.845 42.528C156.094 42.6201 156.357 42.6555 156.619 42.632C169.302 41.9088 181.792 39.8432 194.377 37.8816C194.668 37.8816 197.677 37.4688 197.677 37.1584C197.839 41.344 201.738 64.8592 202.42 68.9664C202.709 72.0276 203.193 75.064 203.871 78.0544Z" fill="white"/>
<path d="M195.739 40.36C195.716 40.2638 195.674 40.1737 195.617 40.0951C195.559 40.0166 195.488 39.9512 195.406 39.9029C195.325 39.8546 195.235 39.8244 195.142 39.8142C195.049 39.8039 194.955 39.8138 194.866 39.8432C193.011 40.1744 187.026 40.8576 187.026 41.3936C187.026 42.0128 187.702 48.416 187.896 49.7584C187.904 49.8788 187.937 49.9959 187.993 50.101C188.048 50.2061 188.125 50.2966 188.218 50.3659C188.311 50.4352 188.417 50.4815 188.528 50.5015C188.64 50.5216 188.755 50.5147 188.863 50.4816C191.284 50.0672 193.803 49.8608 196.222 49.552C196.325 49.5535 196.426 49.5331 196.521 49.4921C196.616 49.451 196.702 49.3902 196.774 49.313C196.846 49.2359 196.903 49.1441 196.942 49.0431C196.98 48.9421 196.999 48.8338 196.998 48.7248C196.998 48.6224 196.05 41.8 195.739 40.36ZM188.187 42.12C190.295 42.0007 192.396 41.7598 194.479 41.3984C194.673 42.5344 195.255 47.6976 195.255 48.1184C193.221 48.2224 191.284 48.5312 189.255 48.8416C189.15 47.6928 188.38 42.5296 188.187 42.1152V42.12Z" fill="white"/>
<path d="M191.091 45.4208C190.898 45.936 190.221 47.2784 190.994 47.4864C191.478 47.6928 192.059 46.6592 192.252 46.2464C192.351 46.2464 193.902 47.8992 194.48 47.072C195.053 46.1552 193.634 45.6112 192.641 44.904C192.641 44.904 193.221 42.8384 193.221 42.632C193.236 42.5183 193.216 42.4025 193.164 42.302C193.112 42.2015 193.031 42.1219 192.932 42.0753C192.834 42.0286 192.724 42.0174 192.619 42.0434C192.514 42.0694 192.42 42.1311 192.351 42.2192C191.991 42.816 191.667 43.4371 191.382 44.0784C190.791 43.7206 190.176 43.4099 189.542 43.1488C189.15 42.7264 188.466 43.504 188.963 43.768C189.699 44.2783 190.41 44.83 191.091 45.4208Z" fill="white"/>
<path d="M182.282 52.5456C176.075 53.3568 160.277 55.3616 154.107 56.6768C154.028 56.7025 153.96 56.7576 153.915 56.8321C153.871 56.9066 153.853 56.9956 153.865 57.083C153.877 57.1704 153.917 57.2504 153.98 57.3086C154.042 57.3667 154.122 57.3992 154.205 57.4C159.117 57.1824 178.839 54.6144 181.893 54.2C181.893 54.5104 183.543 65.2496 183.83 67.5216C181.7 67.7296 172.793 68.9616 170.469 69.2816C168.146 69.6016 158.754 70.8304 157.011 71.9664C156.962 72.005 156.924 72.0574 156.901 72.1176C156.878 72.1779 156.871 72.2438 156.882 72.3079C156.892 72.3721 156.918 72.4319 156.958 72.481C156.998 72.53 157.05 72.5662 157.109 72.5856C158.759 72.896 183.734 68.8688 184.992 68.5584C185.67 68.352 185.379 66.7984 185.282 66.2864C185.088 65.56 183.249 52.3392 182.282 52.5456Z" fill="white"/>
<path d="M186.15 74.1296C184.212 74.1808 182.279 74.6464 180.438 74.8528C174.777 75.3866 169.152 76.2832 163.592 77.5376C163.534 77.5581 163.485 77.6004 163.455 77.6564C163.424 77.7125 163.414 77.7784 163.426 77.8419C163.438 77.9054 163.472 77.9621 163.52 78.0012C163.568 78.0404 163.629 78.0593 163.689 78.0544C164.657 78.0544 165.626 78.1568 166.593 78.0544C173.177 77.5376 179.858 76.8144 186.441 75.6784C187.122 75.576 186.929 74.1088 186.15 74.1296Z" fill="white"/>
<path d="M145.006 135.16C144.426 130.616 143.656 126.072 142.974 121.528C142.359 116.652 141.453 111.823 140.262 107.07C140.244 107.008 140.205 106.955 140.152 106.921C140.1 106.888 140.037 106.876 139.977 106.889C139.917 106.902 139.863 106.938 139.827 106.99C139.79 107.043 139.773 107.108 139.779 107.173C140.042 112.058 140.593 116.921 141.429 121.733C142.107 126.587 142.687 131.544 143.559 136.293C143.655 137.016 144.72 137.016 145.011 136.499C151.068 135.976 200.043 127.334 200.196 127.307C200.295 127.315 200.395 127.298 200.488 127.258C200.58 127.218 200.662 127.155 200.728 127.075C200.794 126.995 200.841 126.9 200.867 126.797C200.892 126.694 200.894 126.586 200.874 126.482C200.196 120.389 198.937 114.398 197.874 108.402C197.68 107.472 196.422 107.885 196.524 108.814C197.491 114.494 198.556 120.07 199.137 125.75C199.126 126.301 152.905 133.478 145.006 135.16Z" fill="white"/>
<path d="M154.882 115.334C154.837 115.252 154.767 115.187 154.684 115.15C154.602 115.113 154.51 115.106 154.423 115.129C154.335 115.152 154.258 115.205 154.201 115.279C154.144 115.353 154.111 115.445 154.107 115.541C153.816 118.64 154.978 122.15 155.457 125.25C155.524 125.416 155.63 125.562 155.767 125.67C155.903 125.779 156.063 125.848 156.232 125.869C164.655 124.733 186.15 121.221 188.473 120.808C189.054 120.706 188.956 120.189 188.956 119.672C188.799 117.312 188.345 114.985 187.606 112.754C187.411 112.443 186.831 112.443 186.831 112.856C186.621 115.033 186.752 117.232 187.218 119.363C187.218 119.466 156.819 124.216 156.819 124.114C156.378 121.14 155.731 118.206 154.882 115.334Z" fill="white"/>
<path d="M166.887 118.95C169.799 118.69 177.867 117.63 178.02 117.608C178.893 117.502 180.345 117.608 180.926 116.781C180.988 116.719 181.036 116.642 181.066 116.557C181.096 116.472 181.106 116.381 181.097 116.29C181.087 116.2 181.058 116.113 181.012 116.037C180.966 115.961 180.903 115.897 180.83 115.851C179.765 115.128 177.441 116.058 176.376 116.264C169.413 117.394 162.512 117.808 160.691 118.536C160.401 118.64 160.497 119.053 160.787 119.157C162.818 119.43 164.876 119.361 166.887 118.95Z" fill="white"/>
<path d="M34.3501 125.869C46.8946 124.893 51.0481 121.659 90.1156 115.645C95.3446 114.819 100.67 114.205 105.897 113.064C106.575 112.96 106.478 111.72 105.704 111.72C91.7536 112.936 38.4871 123.24 34.1536 124.84C33.6676 124.939 33.6676 125.973 34.3501 125.869Z" fill="white"/>
<path d="M37.0499 135.886C42.3599 135.224 47.7959 133.821 53.0249 132.789C64.7324 130.288 71.9249 129.125 77.9069 127.211C78.2939 127.109 78.1964 126.386 77.8094 126.488C77.1314 126.592 76.5509 126.592 75.8729 126.694C68.8364 127.768 37.7474 134.421 36.9524 134.646C36.2819 134.853 36.3764 135.971 37.0499 135.886Z" fill="white"/>
<path d="M99.2129 173.477C96.7484 173.87 50.1269 183.397 46.5434 184.424C45.9629 184.63 46.0604 185.766 46.7384 185.662C50.0294 185.25 53.2244 184.424 56.4194 183.803C114.279 171.762 92.6759 176.522 103.956 173.683C104.343 173.581 104.247 172.856 103.86 172.96C102.117 173.166 100.662 173.24 99.2129 173.477Z" fill="white"/>
<path d="M38.2185 146.317C47.8485 145.29 87.894 136.459 97.566 133.821C98.244 133.614 99.216 132.168 97.9545 132.272C94.0815 132.374 90.111 134.032 86.3355 134.853C82.4625 135.782 59.0355 140.946 51.192 142.496C46.7899 143.166 42.4262 144.096 38.121 145.283C37.6365 145.594 37.734 146.317 38.2185 146.317Z" fill="white"/>
<path d="M32.8934 69.896C30.0119 64.4688 22.1669 70.2592 23.5019 75.1632C24.5249 78.6176 28.9334 79.0752 31.7309 76.0928C31.7309 76.0928 33.9584 77.5328 34.4414 77.8528C35.6999 78.576 36.6689 77.2336 35.3129 76.304C34.8299 75.9936 32.7959 74.864 32.6999 74.7536C33.1034 74.023 33.3321 73.1978 33.3658 72.3506C33.3996 71.5034 33.2373 70.6604 32.8934 69.896ZM28.4399 76.1952C24.7484 77.1824 24.2759 72.9952 26.4059 70.7216C27.4709 69.6896 29.9879 68.5536 31.2464 70.1024C32.9894 72.3744 30.4664 75.6528 28.4399 76.1952Z" fill="white"/>
</svg>
