<svg width="241" height="225" viewBox="0 0 241 225" fill="none" xmlns="http://www.w3.org/2000/svg">
<path d="M168.399 25.4398C168.393 24.8659 168.558 24.3039 168.873 23.8298C169.187 23.3556 169.635 22.9921 170.156 22.7883C171.078 22.4816 172.047 22.3494 173.014 22.3984C172.987 22.8014 173.01 23.2064 173.084 23.6033C173.116 23.7183 173.184 23.8194 173.278 23.8913C173.371 23.9632 173.484 24.0021 173.6 24.0021C173.717 24.0021 173.83 23.9632 173.923 23.8913C174.017 23.8194 174.084 23.7183 174.117 23.6033C174.943 17.8974 180.763 16.8342 185.516 17.1539C185.492 17.4795 185.539 17.8064 185.655 18.1105C185.683 18.2099 185.742 18.2971 185.823 18.3592C185.903 18.4212 186.001 18.4548 186.102 18.4548C186.203 18.4548 186.301 18.4212 186.381 18.3592C186.462 18.2971 186.521 18.2099 186.549 18.1105C186.658 17.2444 186.992 16.4243 187.514 15.7359C188.072 15.1863 188.808 14.8703 189.58 14.8494C189.436 15.5 189.378 16.1676 189.409 16.8342C189.409 16.9297 189.444 17.0217 189.505 17.0934C189.566 17.1651 189.651 17.2116 189.743 17.2246C189.835 17.2375 189.928 17.2159 190.006 17.1638C190.084 17.1117 190.141 17.0325 190.166 16.9407C194.139 3.53903 206.95 3.91336 212.622 13.3612C211.205 13.9092 209.915 14.7542 208.833 15.8425C208.764 15.9184 208.725 16.017 208.721 16.1204C208.717 16.2238 208.749 16.3254 208.811 16.4066C208.873 16.4879 208.962 16.5435 209.061 16.5635C209.159 16.5835 209.262 16.5666 209.349 16.5157C213.723 14.2477 218.131 12.8647 222.918 14.7429C225.027 15.5965 226.913 16.9435 228.429 18.6772C229.534 20.047 230.439 21.575 231.115 23.2133C213.723 23.355 196.192 22.9664 178.836 24.3831C178.735 24.3831 178.639 24.4242 178.568 24.4973C178.497 24.5704 178.457 24.6696 178.457 24.773C178.457 24.8764 178.497 24.9756 178.568 25.0487C178.639 25.1219 178.735 25.163 178.836 25.163C196.434 25.1279 213.999 24.4897 231.598 24.5248C232.321 24.5248 232.527 24.2414 232.493 23.8866C231.853 17.1435 222.642 10.1093 213.309 13.0779C211.45 7.61894 205.458 4.39426 200.016 5.20921C197.73 5.59701 195.585 6.60188 193.8 8.12127C192.016 9.64065 190.654 11.6201 189.856 13.8577C188.996 13.6876 188.106 13.8409 187.348 14.2897C186.589 14.7385 186.013 15.4528 185.723 16.3026C181.728 15.4161 174.392 16.6574 173.219 21.265C172.458 21.0754 171.668 21.0499 170.897 21.1901C170.127 21.3304 169.393 21.6333 168.742 22.0799C168.196 22.4235 167.777 22.945 167.552 23.5616C167.327 24.1782 167.31 24.8544 167.501 25.4827C167.53 25.5853 167.592 25.6749 167.676 25.7371C167.761 25.7993 167.863 25.8304 167.967 25.8255C168.07 25.8205 168.17 25.7798 168.248 25.7098C168.326 25.6399 168.38 25.5447 168.399 25.4398Z" fill="#38A1FF"/>
<path d="M5.77246 144.878C11.3184 144.931 16.8619 144.984 22.4079 144.949C22.4761 145.977 22.5455 147.041 22.6479 148.069C22.6415 148.412 22.7418 148.748 22.9339 149.029C23.1261 149.309 23.4002 149.519 23.7164 149.628C25.2661 150.125 31.4651 150.443 34.2892 149.31C35.4752 148.821 35.1127 146.664 35.2188 144.809C46.2287 144.549 66.0027 144.697 73.6883 143.886C73.7983 143.88 73.9019 143.831 73.9777 143.748C74.0534 143.666 74.0957 143.557 74.0957 143.443C74.0957 143.33 74.0534 143.221 73.9777 143.139C73.9019 143.056 73.7983 143.007 73.6883 143.001C67.9718 142.611 62.2553 142.788 56.5376 142.894C50.9234 143.001 36.7345 143.214 35.2542 143.249C35.3569 135.984 35.4369 128.718 35.4942 121.452C46.8943 122.374 43.5536 92.7097 43.3818 92.39C42.624 89.6267 38.1806 89.8386 38.2842 93.0282C39.1456 115.463 35.5295 114.152 35.5295 114.152C35.5295 114.152 35.5977 97.034 35.5977 88.4569C35.5977 83.4945 35.1847 76.3355 29.1563 75.3074C27.661 75.1161 26.1431 75.3238 24.7483 75.9105C21.6829 77.4702 20.099 81.2979 20.478 85.0191C20.2367 88.9183 21.0627 120.461 21.2004 123.65C20.5367 123.64 19.8936 123.411 19.3664 122.996C18.8391 122.581 18.4557 122.002 18.2727 121.346C17.722 119.539 18.7893 107.028 17.8938 101.677C17.8417 101.138 17.6054 100.635 17.227 100.259C16.8486 99.8821 16.3527 99.656 15.8275 99.6205C13.5894 99.4437 13.0033 100.967 12.901 103.483C12.8657 104.122 12.2468 119.219 12.9692 123.224C13.8306 127.832 17.5843 129.853 21.4758 129.639C21.717 134.247 22.0277 138.855 22.3712 143.497C16.8606 143.603 11.3513 143.781 5.84067 144.064C5.78667 144.055 5.73146 144.058 5.6785 144.072C5.62553 144.086 5.57595 144.111 5.53284 144.146C5.48973 144.18 5.45403 144.224 5.42795 144.273C5.40188 144.323 5.38599 144.377 5.38129 144.433C5.37659 144.489 5.38318 144.546 5.40063 144.599C5.41809 144.652 5.44605 144.701 5.48275 144.743C5.51946 144.785 5.56413 144.818 5.61398 144.842C5.66383 144.865 5.71778 144.877 5.77246 144.878Z" fill="#38A1FF"/>
<path d="M99.3468 165.718C98.3831 165.609 98.176 167.206 99.1056 167.454C100.242 167.738 101.413 167.951 102.55 168.234C103.563 168.586 104.616 168.8 105.683 168.871C105.777 168.867 105.868 168.835 105.944 168.779C106.021 168.724 106.081 168.647 106.117 168.558C106.154 168.469 106.164 168.372 106.149 168.276C106.133 168.181 106.091 168.093 106.028 168.021C104.41 166.533 101.483 165.96 99.3468 165.718Z" fill="#191919"/>
<path d="M102.895 175.747C100.928 174.726 98.176 174.613 96.0061 174.33C95.007 174.188 94.8012 175.96 95.7648 176.137C97.9006 176.526 100.587 177.236 102.757 176.811C102.863 176.779 102.957 176.715 103.028 176.629C103.1 176.543 103.146 176.437 103.16 176.325C103.175 176.212 103.157 176.098 103.11 175.995C103.063 175.893 102.988 175.806 102.895 175.747Z" fill="#191919"/>
<path d="M236.109 208.212C233.457 208.695 230.909 209.772 228.325 210.515C225.812 211.26 223.332 212.146 220.852 212.961C200.091 219.665 177.512 224.434 158.309 214.059C135.081 201.444 136.773 183.952 119.66 176.775C119.901 175.449 119.826 174.082 119.442 172.792C119.058 171.502 118.377 170.327 117.456 169.366C115.149 166.78 111.704 165.68 108.501 164.76C108.34 164.711 108.168 164.719 108.011 164.783C107.855 164.847 107.725 164.964 107.641 165.114C103.852 168.551 100.511 175.109 102.44 180.353C102.463 180.46 102.509 180.56 102.574 180.646C102.64 180.732 102.724 180.801 102.819 180.85C107.296 183.437 115.323 184.111 118.593 179.185C127.544 184.984 130.301 191.89 135.159 199.279C140.174 206.811 146.794 213.066 154.514 217.567C176.617 230.361 204.765 224.443 228.664 215.335C231.681 214.288 234.598 212.96 237.379 211.365C237.71 211.145 237.955 210.812 238.072 210.424C238.189 210.037 238.171 209.619 238.02 209.245C237.869 208.87 237.595 208.561 237.246 208.373C236.897 208.184 236.495 208.127 236.109 208.212ZM103.479 179.964C103.146 177.467 103.426 174.923 104.292 172.564C105.158 170.206 106.584 168.108 108.439 166.461C110.813 166.972 113.07 167.947 115.087 169.333C117.187 170.927 119.563 173.869 117.6 177.448C114.81 182.624 107.406 181.064 103.479 179.964Z" fill="#38A1FF"/>
<path d="M76.7536 157.353C72.5856 156.742 64.8382 158.664 62.3235 164.441C59.3276 163.91 52.8874 165.221 49.1336 167.099C40.4326 171.376 34.9965 179.482 30.0871 183.012C21.8774 188.748 10.9623 187.23 2.01871 182.694C1.78607 182.559 1.51141 182.524 1.25374 182.595C0.99607 182.667 0.77595 182.84 0.640664 183.076C0.505378 183.313 0.465718 183.595 0.530206 183.862C0.594693 184.128 0.758182 184.358 0.985553 184.502C8.35535 190.243 18.8941 192.404 27.6772 189.109C38.1326 185.146 43.4412 173.642 54.4712 170.254C56.9745 169.444 59.6 169.108 62.2199 169.262C62.4431 170.631 63.0126 171.915 63.8711 172.985C64.7296 174.055 65.8468 174.873 67.1104 175.358C69.2462 176.28 73.1035 177.413 75.5828 176.528C79.4755 174.863 81.2665 169.085 81.0252 165.436C80.8876 162.669 80.0956 157.843 76.7536 157.353ZM63.8707 167.951C63.8155 166.482 64.1365 165.025 64.8016 163.725C65.4666 162.424 66.4524 161.327 67.6598 160.542C69.5635 159.488 71.6669 158.872 73.8247 158.736C71.6561 161.609 70.316 170.394 73.3763 174.755C71.9939 174.755 70.6169 174.577 69.2778 174.223C66.3879 173.337 64.0362 171.282 63.8732 167.951H63.8707ZM75.0296 174.826C73.029 172.124 72.8585 167.977 73.5834 164.618C73.8929 163.059 74.4436 159.622 76.2358 159.409C78.6128 159.161 79.7142 163.448 79.8519 165.221C79.9921 168.056 78.4411 173.975 75.0321 174.826H75.0296Z" fill="#38A1FF"/>
<path d="M134.097 73.8893C135.785 73.2862 138.713 72.2581 138.506 75.0941C138.436 76.2639 140.227 76.2639 140.297 75.0941C140.606 70.6282 136.163 71.1247 133.305 72.223C123.572 75.9701 103.769 93.7455 81.6795 97.7409C73.1755 99.2551 68.0715 97.585 62.6683 92.9917C58.4057 89.2112 55.0669 84.452 52.9215 79.0986C50.6139 73.6397 46.7225 61.1296 49.3054 53.439C51.7456 46.0915 62.3146 38.8298 69.0744 33.3436C76.0653 27.7079 83.5046 22.6752 90.599 17.1825C91.012 16.8628 90.9085 16.5443 90.8743 16.4741C90.4891 8.4482 93.485 4.09274 97.9347 2.36797C99.8852 1.66851 101.98 1.5066 104.01 1.89834C106.04 2.29008 107.935 3.22183 109.507 4.60094C110.324 5.49644 111.187 6.34803 112.09 7.15235C112.538 7.47079 113.019 6.93919 112.917 6.47908C112.758 5.6159 112.364 4.81707 111.78 4.17592C117.173 3.39024 122.671 3.97389 127.794 5.876C138.909 9.85583 153.512 25.3826 157.792 46.5581C160.033 57.515 158.378 61.6014 158.756 66.8342C158.755 66.9919 158.809 67.1447 158.909 67.2641C159.01 67.3836 159.149 67.4614 159.3 67.4832C159.452 67.505 159.606 67.4692 159.734 67.3826C159.863 67.2959 159.956 67.1643 159.996 67.0123C160.806 63.9559 161.085 60.7766 160.822 57.6203C160.601 48.1628 158.33 38.8755 154.176 30.436C149.344 20.4917 139.504 8.4469 129.413 4.63474C123.937 2.54344 116.739 1.1969 111.126 3.53645C109.648 2.26923 107.955 1.29565 106.132 0.665303C103.142 -0.350237 99.8936 -0.198966 97.0051 1.09032C91.9416 3.42987 87.7067 10.6955 90.1165 16.3299C78.993 23.9581 66.1783 33.0641 56.0209 41.9908C52.0601 45.5001 48.4427 49.8244 47.066 55.1755C45.5858 60.8463 47.9274 69.0685 48.6158 71.8331C51.4058 82.7132 57.6048 94.125 68.1789 98.6261C74.4461 101.32 81.6441 99.9375 87.9466 98.1309C107.65 92.412 126.755 76.5979 134.097 73.8893Z" fill="#191919"/>
<path d="M144.498 75.8026C144.599 75.3061 143.981 74.846 143.602 75.271C142.718 76.2289 141.723 78.1421 138.849 78.1421C138.744 78.1438 138.642 78.185 138.563 78.2579C138.485 78.3308 138.435 78.4306 138.422 78.5387C138.41 78.6468 138.436 78.7559 138.495 78.8457C138.555 78.9356 138.645 79.0001 138.747 79.0273C140.917 79.4172 144.005 78.2799 144.498 75.8026Z" fill="#191919"/>
<path d="M72.6211 54.7505C72.6756 54.8464 72.7565 54.9236 72.8536 54.9722C72.9507 55.0207 73.0597 55.0386 73.1666 55.0234C73.2736 55.0082 73.3738 54.9607 73.4545 54.8869C73.5353 54.8131 73.5929 54.7163 73.6201 54.6088C74.2744 51.9144 72.1045 48.938 70.0382 47.5564C67.8683 46.1033 64.2181 45.5002 62.0482 47.2717C62.0071 47.3181 61.9792 47.3752 61.9677 47.4369C61.9561 47.4985 61.9613 47.5622 61.9828 47.621C62.0042 47.6798 62.041 47.7313 62.0891 47.7699C62.1372 47.8085 62.1947 47.8327 62.2554 47.8397C64.8724 47.6981 67.0764 47.2717 69.3498 49.0446C71.3467 50.5328 71.6548 52.589 72.6211 54.7505Z" fill="#191919"/>
<path d="M102.073 100.612C102.902 100.132 103.611 99.4583 104.143 98.646C104.676 97.8337 105.016 96.9047 105.138 95.9331C106.15 96.5451 107.301 96.8709 108.474 96.8772C109.648 96.8836 110.802 96.5703 111.82 95.9692C112.837 95.368 113.683 94.5005 114.269 93.4546C114.856 92.4087 115.163 91.2216 115.16 90.014C116.193 90.6094 117.36 90.9177 118.544 90.9085C119.728 90.8992 120.89 90.5728 121.914 89.9614C122.939 89.3499 123.791 88.4745 124.387 87.4213C124.982 86.368 125.301 85.1732 125.312 83.9546C126.293 84.4419 127.381 84.6512 128.466 84.561C129.551 84.4707 130.593 84.0842 131.485 83.4413C132.376 82.7983 133.085 81.9223 133.538 80.9035C133.99 79.8847 134.171 78.76 134.06 77.6456C133.957 76.9008 132.786 76.9372 132.648 77.6456C132.584 78.524 132.332 79.377 131.909 80.1429C131.486 80.9089 130.903 81.5688 130.203 82.0751C129.381 82.5526 128.439 82.7641 127.499 82.682C126.559 82.6 125.665 82.2281 124.933 81.615C124.791 81.4783 124.61 81.3919 124.417 81.3685C124.224 81.3451 124.028 81.3858 123.859 81.4848C123.69 81.5838 123.556 81.7358 123.476 81.9187C123.397 82.1015 123.376 82.3057 123.418 82.5015C123.652 83.6323 123.522 84.8108 123.047 85.859C122.573 86.9073 121.781 87.7683 120.789 88.3124C119.798 88.8565 118.662 89.054 117.552 88.8751C116.442 88.6963 115.418 88.1508 114.636 87.3209C114.494 87.1833 114.313 87.096 114.119 87.0721C113.925 87.0482 113.729 87.0888 113.56 87.188C113.39 87.2872 113.256 87.4397 113.177 87.6232C113.098 87.8066 113.078 88.0114 113.12 88.2074C113.46 89.3378 113.411 90.5541 112.983 91.652C112.554 92.7499 111.771 93.6627 110.766 94.237C109.761 94.8114 108.594 95.0123 107.462 94.8062C106.33 94.6 105.301 93.9993 104.548 93.1048C103.824 92.325 102.722 93.3167 103.17 94.2031C104.341 96.5777 102.171 99.1291 100.035 99.8024C97.1429 100.724 94.1811 99.3072 91.4605 98.491C91.0475 98.3857 90.7709 98.9875 91.1498 99.2006C94.2846 101.033 98.728 102.67 102.073 100.612Z" fill="#191919"/>
<path d="M108.514 98.4493C108.4 98.4493 108.29 98.496 108.209 98.5791C108.129 98.6622 108.083 98.775 108.083 98.8925C108.083 99.0101 108.129 99.1228 108.209 99.2059C108.29 99.289 108.4 99.3357 108.514 99.3357C124.419 99.8153 141.196 91.185 151.874 78.2798C153.435 76.6364 154.675 74.6992 155.525 72.5739C155.697 72.0423 155.043 71.7577 154.664 72.0774C152.22 74.1479 151.38 76.8774 145.675 82.2492C135.402 91.7821 122.315 97.4872 108.514 98.4493Z" fill="#191919"/>
<path d="M65.6643 50.0364C63.5335 50.863 63.8051 54.1839 63.9074 56.062C63.9769 57.6217 64.3558 60.3148 66.4562 59.9951C68.6286 59.7078 69.3612 56.7353 69.005 54.5023C68.6956 52.9777 68.011 49.1266 65.6643 50.0364Z" fill="#191919"/>
<path d="M53.7828 61.131C53.28 60.8392 52.6909 60.7466 52.1263 60.8706C51.5618 60.9946 51.0607 61.3266 50.7175 61.8042C50.5051 62.2421 50.386 62.7217 50.3681 63.2107C50.3503 63.6998 50.4341 64.1872 50.6139 64.6403C51.4058 66.8369 53.8852 67.9715 55.7115 66.2351C56.9164 65.0302 56.2319 62.7881 53.7828 61.131Z" fill="#191919"/>
<path d="M100.655 35.1516C103.903 37.4327 107.622 38.401 111.126 36.5333C114.157 34.9385 114.052 30.0826 113.812 28.701C113.223 25.5042 111.566 22.6203 109.128 20.5489C102.982 14.73 95.7042 17.1605 94.4563 22.0736C94.1461 23.3836 94.0758 24.7416 94.2492 26.0781C95.5299 22.7455 100.412 22.7182 102.343 27.2128C103.101 28.9843 103.755 31.6774 102.791 33.5204C102.619 33.9707 102.328 34.3622 101.95 34.6506C101.572 34.9389 101.124 35.1125 100.655 35.1516Z" fill="#191919"/>
<path d="M237.9 92.2118C237.461 91.2162 236.763 91.2903 236.35 91.6087C235.937 91.9272 234.388 94.7281 234.112 95.083C233.251 96.1461 235.282 97.5278 234.422 98.5559C233.836 99.2291 231.977 98.9458 231.839 100.079C231.701 101.107 232.665 101.852 232.803 102.809C232.94 103.73 232.011 104.085 231.253 104.227C230.599 104.333 229.358 104.192 228.979 104.83C228.635 105.396 228.91 106.105 229.014 106.708C229.323 108.196 230.081 111.032 227.739 111.137C226.602 111.173 225.328 110.323 224.227 110.783C222.628 111.423 224.326 115.729 222.779 116.808C222.332 117.127 217.613 116.453 216.993 116.808C216.373 117.163 215.375 122.267 214.859 122.551C213.928 123.082 209.899 120.175 208.866 120.033C207.832 119.926 204.113 126.448 203.355 126.129C202.77 125.881 200.703 122.444 200.084 121.558C199.705 121.026 199.154 120.388 198.43 120.565C197.741 120.743 192.23 124.429 191.887 124.392C190.646 124.216 190.096 119.289 189.82 118.226C189.476 116.985 189.441 115.32 187.822 115.142C186.651 115.037 182.691 116.702 181.83 116.525C180.763 116.312 183.277 108.09 180.624 107.665C179.798 107.523 175.252 107.168 174.977 106.211C174.77 105.396 178.42 99.5476 176.699 98.5208C175.494 97.776 171.05 95.2597 171.12 93.9834C171.222 91.857 173.393 87.0726 173.358 86.6827C173.254 85.6195 165.885 83.7413 165.436 83.033C164.988 82.3246 166.642 76.7942 166.194 74.7393C166.022 73.9243 158.066 73.641 156.999 73.9594C156.62 73.8178 156.241 74.4195 156.585 74.7042C170.327 86.7919 168.536 107.806 180.556 121.026C191.418 133.007 211.467 133.618 225.501 119.679C232.055 112.989 236.27 104.252 237.486 94.8347C237.993 97.375 238.36 99.9426 238.587 102.525C239.233 112.37 237.331 122.214 233.077 131.056C226.269 145.16 212.007 155.61 199.498 159.521C196.639 160.406 193.644 160.69 190.783 161.47C190.266 161.613 190.198 162.533 190.783 162.64C199.683 164.106 234.966 150.734 239.964 114.44C240.896 107.203 240.847 98.8847 237.9 92.2118Z" fill="#191919"/>
<path d="M156.277 156.644C151.322 156.235 146.875 155.758 142.397 153.313C128.63 145.775 123.802 128.639 127.381 112.697C128.937 106.614 131.228 100.756 134.201 95.2599C134.239 95.185 134.249 95.0983 134.227 95.0168C134.206 94.9354 134.155 94.8653 134.086 94.8205C134.016 94.7757 133.933 94.7595 133.852 94.7752C133.771 94.7909 133.7 94.8372 133.651 94.905C130.676 99.0649 128.384 103.698 126.866 108.621C125.964 109.91 124.784 110.966 123.418 111.704C117.207 115.084 110.837 110.897 107.645 115.71C107.027 116.606 106.683 117.672 106.659 118.771C106.634 119.87 106.929 120.951 107.506 121.876C107.92 122.514 109.125 122.124 108.782 121.309C108.454 120.633 108.3 119.88 108.336 119.125C108.373 118.37 108.597 117.636 108.987 116.996C109.378 116.355 109.922 115.829 110.568 115.467C111.213 115.105 111.938 114.921 112.673 114.93C116.389 114.691 121.748 115.939 126.036 111.528C122.109 127.514 125.829 145.587 140.536 154.376C145.082 157.106 151.145 159.196 156.45 158.062C157.276 157.884 157.035 156.707 156.277 156.644Z" fill="#191919"/>
<path d="M132.547 120.14C133.684 119.673 134.992 119.715 136.163 119.36C138.227 118.66 140.055 117.369 141.432 115.639C144.843 111.492 145.704 105.573 145.704 100.292C145.704 99.8674 145.014 99.7258 144.946 100.186C143.706 106.388 143.121 114.469 136.542 117.343C134.511 118.229 131.514 117.732 130.137 119.824C128.725 121.985 130.239 124.537 131.996 125.883C132.513 126.273 133.133 125.53 132.858 124.998C132.1 123.542 130.166 121.12 132.547 120.14Z" fill="#191919"/>
<path d="M138.161 127.263C138.249 127.211 138.319 127.133 138.363 127.039C138.408 126.945 138.423 126.84 138.408 126.737C138.393 126.634 138.349 126.538 138.28 126.461C138.212 126.384 138.122 126.33 138.023 126.307C136.37 125.979 135.319 125.383 135.199 123.649C135.165 123.259 135.303 122.869 135.062 122.549C134.716 122.193 133.98 122.495 133.891 123.897C133.833 124.45 133.915 125.008 134.128 125.519C134.341 126.03 134.679 126.476 135.107 126.814C135.536 127.152 136.042 127.371 136.577 127.45C137.112 127.528 137.657 127.464 138.161 127.263Z" fill="#191919"/>
<path d="M142.604 127.724C142.983 127.553 143.223 126.909 142.741 126.697C141.863 126.451 141.027 126.068 140.262 125.562C139.523 124.857 139.059 123.9 138.953 122.869C138.885 122.338 138.127 122.124 137.989 122.727C137.839 123.39 137.852 124.08 138.027 124.736C138.201 125.392 138.532 125.992 138.988 126.484C139.408 127.031 139.974 127.44 140.616 127.66C141.259 127.881 141.95 127.903 142.604 127.724Z" fill="#191919"/>
<path d="M155.76 105.042C155.72 104.913 155.637 104.803 155.526 104.73C155.415 104.658 155.283 104.627 155.152 104.644C155.022 104.661 154.901 104.724 154.811 104.822C154.72 104.921 154.666 105.048 154.658 105.183C155.028 109.039 154.091 112.909 152.005 116.135C149.732 119.396 146.425 120.954 142.809 122.089C142.72 122.116 142.643 122.174 142.592 122.254C142.542 122.334 142.521 122.43 142.533 122.525C142.546 122.62 142.591 122.707 142.661 122.77C142.73 122.833 142.82 122.868 142.913 122.869C151.283 122.904 158.031 113.113 155.76 105.042Z" fill="#191919"/>
<path d="M113.639 122.479C113.057 122.049 112.365 121.806 111.986 121.168C111.811 120.799 111.717 120.395 111.711 119.984C111.705 119.574 111.787 119.167 111.952 118.793C112.125 118.262 111.435 117.978 111.09 118.297C110.616 118.753 110.299 119.357 110.187 120.016C110.075 120.674 110.175 121.352 110.472 121.948C110.714 122.531 111.144 123.012 111.689 123.309C112.234 123.605 112.862 123.7 113.467 123.577C113.572 123.54 113.666 123.475 113.737 123.387C113.809 123.3 113.856 123.194 113.874 123.081C113.891 122.969 113.879 122.853 113.837 122.747C113.796 122.641 113.728 122.548 113.639 122.479Z" fill="#191919"/>
<path d="M115.775 121.558C115.353 120.873 115.182 120.056 115.293 119.253C115.318 119.154 115.307 119.048 115.262 118.956C115.217 118.864 115.141 118.792 115.049 118.753C114.956 118.714 114.853 118.711 114.759 118.745C114.664 118.778 114.585 118.846 114.535 118.935C113.019 121.476 115.181 124.248 117.187 123.861C117.704 123.754 117.67 123.081 117.325 122.798C116.755 122.46 116.233 122.043 115.775 121.558Z" fill="#191919"/>
<path d="M122.835 119.076C121.192 119.13 119.55 118.903 117.979 118.403C117.393 118.155 116.876 118.97 117.462 119.29C118.29 119.824 119.221 120.167 120.19 120.296C121.159 120.424 122.144 120.334 123.077 120.033C123.593 119.785 123.283 119.118 122.835 119.076Z" fill="#191919"/>
<path d="M193.747 148.386C194.023 147.926 193.334 147.323 192.989 147.784C184.084 158.947 182.468 178.277 188.442 190.774C188.891 191.661 190.371 191.058 190.028 190.101C184.946 175.457 185.42 163.241 193.747 148.386Z" fill="#191919"/>
<path d="M188.615 192.086C187.191 192.493 185.789 192.978 184.415 193.539C184.208 191.873 183.657 189.96 181.935 189.356C181.472 189.187 180.966 189.185 180.502 189.353C180.039 189.521 179.645 189.847 179.387 190.278C178.993 189.623 178.417 189.104 177.733 188.79C177.437 188.665 177.12 188.604 176.801 188.608C176.481 188.612 176.166 188.683 175.874 188.815C175.581 188.947 175.318 189.139 175.098 189.378C174.879 189.617 174.709 189.9 174.598 190.208C174.095 189.415 173.359 188.807 172.498 188.471C172.05 188.361 171.579 188.414 171.165 188.621C170.75 188.827 170.418 189.175 170.224 189.605C170.038 190.077 169.957 190.587 169.987 191.095C170.017 191.604 170.157 192.1 170.396 192.546C167.365 188.293 164.437 184.289 162.612 179.289C160.744 174.282 159.832 168.951 159.926 163.589C160.204 151.312 167.153 143.313 164.024 130.521C162.664 124.967 159.64 119.995 155.38 116.309C155.105 116.061 154.692 116.451 154.967 116.734C158.608 120.736 161.141 125.668 162.303 131.017C165.046 143.349 158.261 151.479 158.101 164.161C158.007 178.014 164.575 189.921 170.605 193.932C173.38 195.433 176.499 196.131 179.629 195.951C182.216 195.844 187.301 195.008 189.203 193.222C189.853 192.724 189.237 191.987 188.615 192.086ZM182.004 191.341C182.503 192.11 182.789 193.005 182.83 193.929C182.17 194.07 181.503 194.176 180.833 194.247C180.788 193.339 180.54 192.454 180.109 191.661C180.041 191.554 180.005 191.413 179.937 191.306C180.178 190.349 181.558 190.808 182.004 191.341ZM171.155 190.208C172.152 188.64 173.901 191.145 174.53 192.901C174.668 193.291 174.736 193.646 174.875 193.999C173.703 193.831 172.541 193.595 171.395 193.291C171.12 192.441 170.655 190.997 171.16 190.208H171.155ZM176.148 194.177C176.22 193.22 175.964 192.267 175.426 191.483C175.46 190.598 176.114 189.676 177.113 190.136C178.376 190.703 179.173 194.192 179.213 194.319C178.19 194.378 177.163 194.331 176.148 194.177Z" fill="#191919"/>
<path d="M150.181 160.822C145.748 165.936 144.834 176.722 147.218 181.412C144.873 181.894 142.475 182.05 140.09 181.874C140.13 181.25 140.03 180.624 139.798 180.046C139.565 179.469 139.205 178.954 138.747 178.543C138.429 178.264 138.044 178.077 137.632 178.002C137.22 177.928 136.796 177.967 136.404 178.116C136.152 177.578 135.815 177.087 135.406 176.663C135.28 176.497 135.12 176.361 134.938 176.262C134.757 176.164 134.557 176.107 134.352 176.093C134.147 176.08 133.942 176.111 133.75 176.185C133.558 176.259 133.383 176.373 133.236 176.522C131.472 173.004 130.551 169.103 130.55 165.145C130.493 159.899 131.675 154.718 133.994 150.047C134.048 149.935 134.059 149.806 134.024 149.686C133.989 149.566 133.911 149.464 133.806 149.401C133.701 149.338 133.577 149.318 133.458 149.346C133.339 149.374 133.235 149.447 133.167 149.55C128.717 156.035 127.655 165.147 129.896 173.049C130.784 175.739 132.049 178.282 133.65 180.598C136.124 184.301 144.757 184.796 148.011 182.512C148.152 182.421 148.259 182.284 148.315 182.124C148.371 181.963 148.373 181.788 148.321 181.626C146.812 172.503 147.47 169.949 150.904 161.35C150.94 161.252 150.944 161.145 150.915 161.045C150.885 160.945 150.824 160.858 150.742 160.797C150.659 160.737 150.559 160.706 150.457 160.711C150.356 160.715 150.259 160.754 150.181 160.822ZM138.092 180.101C138.294 180.582 138.455 181.081 138.574 181.591C138.101 181.456 137.64 181.278 137.197 181.059C137.315 180.426 137.204 179.771 136.887 179.216C137.137 179.269 137.374 179.375 137.582 179.529C137.789 179.682 137.963 179.879 138.092 180.106V180.101ZM135.199 179.464C135.264 179.677 135.337 179.889 135.406 180.101C135.131 179.924 134.854 179.783 134.579 179.606C134.335 178.891 134.048 178.193 133.719 177.515C134.131 177.023 135.125 179.222 135.199 179.469V179.464Z" fill="#191919"/>
<path d="M75.3416 169.119C75.0815 169.527 74.983 170.022 75.0663 170.502C75.0996 170.791 75.2401 171.055 75.4582 171.24C75.6763 171.425 75.9554 171.516 76.2371 171.494C77.2362 171.211 77.1326 169.829 76.9608 169.368C76.9161 169.195 76.8231 169.039 76.6933 168.919C76.5635 168.8 76.4026 168.722 76.2305 168.696C76.0583 168.67 75.8824 168.696 75.7245 168.771C75.5665 168.846 75.4334 168.967 75.3416 169.119Z" fill="#191919"/>
<path d="M76.3407 162.102C76.1473 162.2 75.9839 162.351 75.8685 162.539C75.7531 162.727 75.6901 162.943 75.6864 163.165C75.6523 164.583 76.8914 164.655 77.3397 164.228C78.0129 163.606 77.7818 161.608 76.3407 162.102Z" fill="#191919"/>
</svg>
