<svg width="16" height="16" viewBox="0 0 16 16" fill="none" xmlns="http://www.w3.org/2000/svg">
<path d="M5 8C5 8.79565 5.31607 9.55871 5.87868 10.1213C6.44129 10.6839 7.20435 11 8 11C8.79565 11 9.55871 10.6839 10.1213 10.1213C10.6839 9.55871 11 8.79565 11 8C11 7.20435 10.6839 6.44129 10.1213 5.87868C9.55871 5.31607 8.79565 5 8 5C7.20435 5 6.44129 5.31607 5.87868 5.87868C5.31607 6.44129 5 7.20435 5 8Z" stroke="black" stroke-width="2" stroke-linecap="round" stroke-linejoin="round"/>
<path d="M1.25 8H2M8 1.25V2M14 8H14.75M8 14V14.75M3.2 3.2L3.725 3.725M12.8 3.2L12.275 3.725M12.275 12.275L12.8 12.8M3.725 12.275L3.2 12.8" stroke="black" stroke-width="2" stroke-linecap="round" stroke-linejoin="round"/>
</svg>
